<?xml version="1.0" encoding="UTF-8" standalone="no"?>
<!-- Generator: Adobe Illustrator 25.3.1, SVG Export Plug-In . SVG Version: 6.00 Build 0)  -->

<svg
   xmlns:dc="http://purl.org/dc/elements/1.1/"
   xmlns:cc="http://creativecommons.org/ns#"
   xmlns:rdf="http://www.w3.org/1999/02/22-rdf-syntax-ns#"
   xmlns:svg="http://www.w3.org/2000/svg"
   xmlns="http://www.w3.org/2000/svg"
   xmlns:sodipodi="http://sodipodi.sourceforge.net/DTD/sodipodi-0.dtd"
   xmlns:inkscape="http://www.inkscape.org/namespaces/inkscape"
   version="1.1"
   id="Layer_1"
   x="0px"
   y="0px"
   viewBox="0 0 113.4 113.4"
   style="enable-background:new 0 0 113.4 113.4;"
   xml:space="preserve"
   sodipodi:docname="ori_green.svg"
   inkscape:version="0.92.4 (5da689c313, 2019-01-14)"><metadata
   id="metadata24"><rdf:RDF><cc:Work
       rdf:about=""><dc:format>image/svg+xml</dc:format><dc:type
         rdf:resource="http://purl.org/dc/dcmitype/StillImage" /></cc:Work></rdf:RDF></metadata><defs
   id="defs22" /><sodipodi:namedview
   pagecolor="#ffffff"
   bordercolor="#666666"
   borderopacity="1"
   objecttolerance="10"
   gridtolerance="10"
   guidetolerance="10"
   inkscape:pageopacity="0"
   inkscape:pageshadow="2"
   inkscape:window-width="3440"
   inkscape:window-height="1369"
   id="namedview20"
   showgrid="false"
   inkscape:zoom="5.8863209"
   inkscape:cx="47.441074"
   inkscape:cy="43.716938"
   inkscape:window-x="3832"
   inkscape:window-y="457"
   inkscape:window-maximized="1"
   inkscape:current-layer="Calque_1" />
<style
   type="text/css"
   id="style2">
	.st0{fill:#FF3333;}
	.st1{fill:none;stroke:#494C53;stroke-width:3;stroke-miterlimit:10;}
	.st2{fill:#4C4C4C;}
	.st3{fill:#494C53;}
</style>
<g
   id="Calque_1">
	<path
   class="st0"
   d="M10.8,48.7c0,0,0.3-1.4,0.7-3.7c0.1-0.6,0.3-1.2,0.5-1.9s0.4-1.5,0.7-2.3c0.2-0.8,0.6-1.6,1-2.5   s0.7-1.8,1.2-2.8c0.5-0.9,1-1.9,1.5-2.9c0.5-1,1.3-1.9,1.9-3c0.6-1,1.5-2,2.3-3l1.2-1.5l1.4-1.4c0.5-0.5,0.9-1,1.4-1.4   c0.5-0.5,1-0.9,1.6-1.3c1.1-0.9,2.1-1.8,3.3-2.6c1.2-0.8,2.3-1.6,3.6-2.3c1.3-0.7,2.5-1.4,3.9-2c1.3-0.5,2.6-1.2,4-1.6   c0.7-0.2,1.4-0.4,2.1-0.7c0.3-0.1,0.7-0.2,1-0.3l1.1-0.2c0.7-0.2,1.4-0.3,2.1-0.5c0.7-0.2,1.4-0.3,2.1-0.4c1.4-0.1,2.8-0.4,4.2-0.4   h4.1l3.9,0.3c2.5,0.2,4.9,0.8,7.1,1.4c4.4,1.2,7.8,2.8,10.1,4.1c1.2,0.6,2.1,1.2,2.7,1.6l0.9,0.6l-5.7,7.7c0,0-0.2-0.2-0.7-0.6   c-0.4-0.4-1.1-0.9-2-1.5c-1.8-1.2-4.4-2.9-7.9-4.3c-1.8-0.7-3.6-1.4-5.8-1.8c-1.1-0.2-2.2-0.5-3.3-0.7c-1.1-0.1-2.3-0.2-3.5-0.3   c-1.2-0.1-2.4,0-3.6,0c-0.6,0-1.2,0-1.9,0.1c-0.6,0.1-1.2,0.1-1.9,0.2L45.3,17c-0.3,0-0.6,0.1-0.9,0.2l-1.9,0.4   c-1.3,0.2-2.5,0.7-3.7,1c-1.3,0.3-2.4,0.9-3.6,1.4c-1.2,0.4-2.3,1.1-3.5,1.7s-2.2,1.3-3.3,2c-0.5,0.4-1.1,0.7-1.6,1.1L25.3,26   c-0.5,0.4-1,0.8-1.4,1.2l-1.3,1.3c-0.9,0.8-1.7,1.6-2.4,2.6c-0.7,0.9-1.5,1.7-2.1,2.6s-1.2,1.8-1.8,2.6c-0.6,0.8-1,1.7-1.4,2.5   s-0.9,1.6-1.2,2.3c-0.3,0.8-0.6,1.5-0.9,2.1c-0.3,0.7-0.6,1.3-0.7,1.9C11.2,47.3,10.8,48.7,10.8,48.7z"
   id="path4"
   style="fill:#23c629;fill-opacity:1" />
	<path
   class="st0"
   d="M64.9,29l28.3,9.5L87.3,9.2L64.9,29z M96.4,65.3c0,0-0.3,1.4-0.7,3.7c-0.1,0.6-0.3,1.2-0.5,1.9   s-0.4,1.5-0.7,2.3c-0.2,0.8-0.6,1.6-1,2.5s-0.7,1.8-1.2,2.8c-0.5,0.9-1,1.9-1.5,2.9s-1.3,1.9-1.9,3c-0.6,1-1.5,2-2.3,3l-1.2,1.5   L84,90.3c-0.5,0.5-0.9,1-1.4,1.4c-0.5,0.5-1,0.9-1.6,1.3c-1.1,0.9-2.1,1.8-3.3,2.6c-1.2,0.8-2.3,1.6-3.6,2.3   c-1.3,0.7-2.5,1.4-3.9,2c-1.3,0.5-2.6,1.2-4,1.6c-0.7,0.2-1.4,0.4-2.1,0.7c-0.3,0.1-0.7,0.2-1,0.3l-1.1,0.2   c-0.7,0.2-1.4,0.3-2.1,0.5c-0.7,0.2-1.4,0.3-2.1,0.4c-1.4,0.1-2.8,0.4-4.2,0.4h-4.1l-3.9-0.3c-2.5-0.2-4.9-0.8-7.1-1.4   c-4.4-1.2-7.8-2.8-10.1-4.1c-1.2-0.6-2.1-1.2-2.7-1.6L24.8,96l5.7-7.7c0,0,0.2,0.2,0.7,0.6c0.4,0.4,1.1,0.9,2,1.5   c1.8,1.2,4.4,2.9,7.9,4.3c1.8,0.7,3.6,1.4,5.8,1.8c1.1,0.2,2.2,0.5,3.3,0.7c1.1,0.1,2.3,0.2,3.5,0.3c1.2,0.1,2.4,0,3.6,0   c0.6,0,1.2,0,1.9-0.1c0.6-0.1,1.2-0.1,1.9-0.2l0.9-0.1c0.3,0,0.6-0.1,0.9-0.2l1.9-0.4c1.3-0.2,2.5-0.7,3.7-1   c1.3-0.3,2.4-0.9,3.6-1.4c1.2-0.4,2.3-1.1,3.5-1.7s2.2-1.3,3.3-2c0.5-0.4,1.1-0.7,1.6-1.1l1.5-1.2c0.5-0.4,1-0.8,1.4-1.2l1.3-1.3   c0.9-0.8,1.7-1.6,2.4-2.6c0.7-0.9,1.5-1.7,2.1-2.6s1.2-1.8,1.8-2.6c0.6-0.8,1-1.7,1.4-2.5s0.9-1.6,1.2-2.3c0.3-0.8,0.6-1.5,0.9-2.1   c0.3-0.7,0.6-1.3,0.7-1.9C96,66.6,96.4,65.3,96.4,65.3L96.4,65.3z"
   id="path6"
   style="fill:#23c629;fill-opacity:1" />
	<path
   class="st0"
   d="M42.4,84.9L14,75.4l5.9,29.3L42.4,84.9z"
   id="path8"
   style="fill:#23c629;fill-opacity:1" />
	<path
   class="st1"
   d="M3.1,75.7c0,0,3-4.2,7.7-4.2h92c4.3,0,6.9,1.9,6.9,1.9"
   id="path10" />
	<path
   class="st2"
   d="M58.5,96.3c0,0-1.2,0.3-2.7,0.3c-1.4,0-2.7-0.3-2.7-0.3L51,71.5h9.5L58.5,96.3z"
   id="path12" />
	<path
   class="st3"
   d="M105.6,54c-0.7-0.7-0.8-0.7-0.7-2.6c0.1-3.8,1-5.8-2.8-6.4c-2.1-0.3-4.2-0.6-6.4-0.8   c-6.9-2.9-12.5-6.5-16.8-7.8c-5.5-1.7-10.7-1.8-16.4-1.6c-4.1,0.1-8.1,0.5-12.1,1.5C43.6,38,37.6,42.2,32,45.6   c-7.7,0-15.3,1.8-22.7,4c-6.5,2.7-2.8,6.9-1.6,11.9c0.5,2,0.5,3,3,3.6c0.6,0.1,1.8,0.2,2.5,0.3c-0.3-1.1-0.5-2.2-0.5-3.3   c0-3,1.2-5.8,3.2-7.8s4.8-3.2,7.8-3.2c6.1,0,11,5,11,11.1c0,1.9-0.5,3.6-1.3,5.1l1,0.1h41.8C75.5,65.8,75,64,75,62.1   C75,56,80,51,86.1,51c3,0,5.8,1.2,7.8,3.2s3.2,4.8,3.2,7.8c0,1.4-0.3,2.7-0.7,4c0.2,0,0.5-0.1,0.7-0.1l5.7-1.5   c2.2-0.5,3.7-2.8,3.7-6.5C106.5,56.2,106.3,54.5,105.6,54z M61,36.5c-1.1,2.7-1.9,6.9-2.4,9.6c-5.3,0-10.6-0.1-15.9,0   c0.2-1.1,0.4-2-1.4-2.5C45.9,40.6,50.9,36.5,61,36.5z M62.6,46c0.1-2.6,0.4-6.8,0.9-9.6c4.3-0.2,19.9,1.7,19.9,9.6H62.6z"
   id="path14" />
	<path
   class="st3"
   d="M23.8,53.9c-4.6,0-8.3,3.7-8.3,8.3s3.7,8.3,8.3,8.3s8.3-3.7,8.3-8.3S28.4,53.9,23.8,53.9z M23.8,67.8   c-3.1,0-5.6-2.5-5.6-5.6s2.5-5.6,5.6-5.6s5.6,2.5,5.6,5.6C29.4,65.2,26.9,67.8,23.8,67.8z M86.1,53.9c-4.6,0-8.3,3.7-8.3,8.3   s3.7,8.3,8.3,8.3c4.6,0,8.3-3.7,8.3-8.3S90.6,53.9,86.1,53.9z M86.1,67.8c-3.1,0-5.6-2.5-5.6-5.6s2.5-5.6,5.6-5.6s5.6,2.5,5.6,5.6   C91.7,65.2,89.2,67.8,86.1,67.8z"
   id="path16" />
</g>
</svg>