<svg xmlns="http://www.w3.org/2000/svg" viewBox="0 0 141.73 141.73"><defs><style>.cls-1{fill:#242b38;}</style></defs><title>Intellidrop-pictos-poussin-ColdStartFactor</title><g id="Layer_1" data-name="Layer 1"><path class="cls-1" d="M100.73,58.63l-4.67,2.69,3.59,1a2.14,2.14,0,0,1,1.51,2.61L100.61,67A2.15,2.15,0,0,1,98,68.47l-9.78-2.63-8.82,5.1L88.22,76,98,73.41a2.14,2.14,0,0,1,2.61,1.51l.55,2a2.15,2.15,0,0,1-1.51,2.62l-3.59,1,4.67,2.7a2.13,2.13,0,0,1,.79,2.91l-2.14,3.7a2.14,2.14,0,0,1-2.92.79L91.79,88l1,3.59a2.13,2.13,0,0,1-1.5,2.61l-2.06.55a2.14,2.14,0,0,1-2.61-1.51L84,83.42l-8.67-5v10.7l7.37,7.42a2.21,2.21,0,0,1,0,3.12l-1.56,1.56a2.21,2.21,0,0,1-3.12,0l-2.72-2.72v5.58a2.22,2.22,0,0,1-2.21,2.21H68.63a2.22,2.22,0,0,1-2.21-2.21V98.52l-2.72,2.72a2.21,2.21,0,0,1-3.12,0L59,99.68a2.21,2.21,0,0,1,0-3.12l7.41-7.42V78.44l-8.67,5-2.62,9.78a2.13,2.13,0,0,1-2.61,1.5l-2.06-.55A2.14,2.14,0,0,1,49,91.56l1-3.59-4.67,2.69a2.15,2.15,0,0,1-2.92-.79l-2.14-3.7A2.14,2.14,0,0,1,41,83.26l4.67-2.71-3.59-1A2.15,2.15,0,0,1,40.56,77l.56-2a2.13,2.13,0,0,1,2.61-1.51L53.51,76l8.81-5.1-8.81-5.1-9.78,2.63A2.14,2.14,0,0,1,41.12,67l-.56-2.06a2.15,2.15,0,0,1,1.52-2.62l3.59-1L41,58.62a2.13,2.13,0,0,1-.79-2.92L42.36,52a2.12,2.12,0,0,1,2.91-.78l4.67,2.69-1-3.59a2.13,2.13,0,0,1,1.5-2.61l2.06-.55a2.13,2.13,0,0,1,2.61,1.5l2.62,9.78,8.68,5V52.75L59,45.33a2.21,2.21,0,0,1,0-3.12l1.58-1.56a2.21,2.21,0,0,1,3.12,0l2.72,2.72V23.51a2.21,2.21,0,0,1,2.21-2.21h4.42a2.22,2.22,0,0,1,2.21,2.21V43.37L78,40.65a2.21,2.21,0,0,1,3.12,0l1.57,1.56a2.23,2.23,0,0,1,0,3.12l-7.42,7.42v10.7l8.67-5,2.63-9.78a2.14,2.14,0,0,1,2.61-1.51l2.06.56a2.12,2.12,0,0,1,1.5,2.61l-1,3.59,4.67-2.7a2.15,2.15,0,0,1,2.92.79l2.14,3.7A2.14,2.14,0,0,1,100.73,58.63Z"/><path class="cls-1" d="M70.12,121.8A50.87,50.87,0,0,1,47,26a2.17,2.17,0,0,1,3,1L51.45,30a2.14,2.14,0,0,1-.9,2.81,43.18,43.18,0,1,0,39-.85,2.13,2.13,0,0,1-1-2.76l1.32-3.12A2.16,2.16,0,0,1,92.73,25a50.87,50.87,0,0,1-22.61,96.8Z"/></g></svg>