<?xml version="1.0" encoding="utf-8"?>
<!-- Generator: Adobe Illustrator 25.0.1, SVG Export Plug-In . SVG Version: 6.00 Build 0)  -->
<svg version="1.1" id="Calque_1" xmlns="http://www.w3.org/2000/svg" xmlns:xlink="http://www.w3.org/1999/xlink" x="0px" y="0px"
	 viewBox="0 0 141.7 141.7" style="enable-background:new 0 0 141.7 141.7;" xml:space="preserve">
<style type="text/css">
	.st0{fill:#242B38;}
	.st1{fill:#F02429;}
</style>
<g id="Layer_1">
	<path class="st0" d="M31.9,62.9c-1.6,0-2.9,1.3-2.9,2.9v15.6c0,1.6,1.3,2.9,2.9,2.9c0.5,0,0.8-0.4,0.8-0.8l0,0V63.7
		C32.7,63.3,32.3,62.9,31.9,62.9z"/>
	<path class="st0" d="M41.9,62.9L41.9,62.9c-0.5,0-0.8,0.4-0.8,0.8v19.7c0,0.5,0.4,0.8,0.8,0.8h0l0,0c1.6,0,2.9-1.3,2.9-2.9V65.8
		C44.8,64.2,43.5,62.9,41.9,62.9C41.9,62.9,41.9,62.9,41.9,62.9z"/>
	<path class="st1" d="M35,68.1h4c0.7,0,1.3,0.6,1.3,1.3v8.3c0,0.7-0.6,1.3-1.3,1.3h-4c-0.7,0-1.3-0.6-1.3-1.3v-8.3
		C33.7,68.7,34.2,68.1,35,68.1z"/>
	<path class="st0" d="M54.7,62.9c-1.6,0-2.9,1.3-2.9,2.9v15.6c0,1.6,1.3,2.9,2.9,2.9c0.5,0,0.8-0.4,0.8-0.8l0,0V63.7
		C55.5,63.3,55.2,62.9,54.7,62.9z"/>
	<path class="st0" d="M64.7,62.9L64.7,62.9c-0.5,0-0.8,0.4-0.8,0.8v19.7c0,0.5,0.4,0.8,0.8,0.8l0,0l0,0c1.6,0,2.9-1.3,2.9-2.9V65.8
		C67.6,64.2,66.3,62.9,64.7,62.9z"/>
	<path class="st0" d="M77.5,62.9c-1.6,0-2.9,1.3-2.9,2.9v15.6c0,1.6,1.3,2.9,2.9,2.9c0.5,0,0.8-0.4,0.8-0.8l0,0V63.7
		C78.3,63.3,78,62.9,77.5,62.9z"/>
	<path class="st0" d="M87.5,62.9L87.5,62.9c-0.5,0-0.8,0.4-0.8,0.8v19.7c0,0.5,0.4,0.8,0.8,0.8l0,0l0,0c1.6,0,2.9-1.3,2.9-2.9V65.8
		C90.4,64.2,89.1,62.9,87.5,62.9z"/>
	<path class="st0" d="M100.3,62.9c-1.6,0-2.9,1.3-2.9,2.9v15.6c0,1.6,1.3,2.9,2.9,2.9c0.5,0,0.8-0.4,0.8-0.8l0,0V63.7
		C101.1,63.3,100.8,62.9,100.3,62.9z"/>
	<path class="st0" d="M110.3,62.9L110.3,62.9c-0.5,0-0.8,0.4-0.8,0.8v19.7c0,0.5,0.4,0.8,0.8,0.8l0,0l0,0c1.6,0,2.9-1.3,2.9-2.9
		V65.8C113.2,64.2,111.9,62.9,110.3,62.9z"/>
	<path class="st0" d="M50.2,69.6h-3.9c-0.4,0-0.8,0.3-0.8,0.8c0,0,0,0,0,0v6.5c0,0.4,0.3,0.8,0.8,0.8c0,0,0,0,0,0h3.9
		c0.4,0,0.8-0.3,0.8-0.8v-6.5C51,69.9,50.6,69.6,50.2,69.6z"/>
	<path class="st0" d="M69.3,69.6H73c0.4,0,0.8,0.3,0.8,0.8v6.5c0,0.4-0.3,0.8-0.8,0.8h-3.7c-0.4,0-0.8-0.3-0.8-0.8v-6.5
		C68.5,69.9,68.9,69.6,69.3,69.6z"/>
	<path class="st0" d="M92.1,69.6h3.7c0.4,0,0.8,0.3,0.8,0.8v6.5c0,0.4-0.3,0.8-0.8,0.8h-3.7c-0.4,0-0.8-0.3-0.8-0.8v-6.5
		C91.3,69.9,91.6,69.6,92.1,69.6z"/>
	<path class="st0" d="M125.5,69.6h-5.1v-2.7c0-0.5-0.4-0.8-0.8-0.8h-0.3c-0.5,0-0.8,0.4-0.8,0.8l0,0v2.7h-3.7
		c-0.4,0-0.8,0.3-0.8,0.8v6.5c0,0.4,0.3,0.8,0.8,0.8h3.7v2.7c0,0.5,0.4,0.8,0.8,0.8l0,0h0.3c0.5,0,0.8-0.4,0.8-0.8v-2.7h5.1
		c0.4,0,0.8-0.3,0.8-0.8v-6.5C126.2,69.9,125.9,69.6,125.5,69.6z"/>
	<path class="st0" d="M27.5,69.6h-3.7c-0.4,0-0.8,0.3-0.8,0.8v1.5h-6.9c-0.4,0-0.7,0.3-0.7,0.7l0,0v2.1c0,0.4,0.3,0.7,0.7,0.7l0,0
		H23v1.5c0,0.4,0.3,0.8,0.8,0.8h3.7c0.4,0,0.8-0.3,0.8-0.8v-6.5C28.3,69.9,28,69.6,27.5,69.6z"/>
	<path class="st1" d="M46.4,26.5c0-1.3-1-2.3-2.3-2.3c0,0,0,0,0,0H29.8c-1.3,0-2.3,1-2.3,2.3c0,0,0,0,0,0v1.1h18.9V26.5z"/>
	<rect x="27.5" y="28.4" class="st1" width="18.9" height="2.6"/>
	<path class="st0" d="M80.6,68.1h4c0.7,0,1.3,0.6,1.3,1.3v8.3c0,0.7-0.6,1.3-1.3,1.3h-4c-0.7,0-1.3-0.6-1.3-1.3v-8.3
		C79.3,68.7,79.9,68.1,80.6,68.1z"/>
	<path class="st0" d="M92,26.5c0-1.3-1-2.3-2.3-2.3c0,0,0,0,0,0H75.4c-1.3,0-2.3,1-2.3,2.3v0v1.1H92V26.5z"/>
	<rect x="73.1" y="28.4" class="st0" width="18.9" height="2.6"/>
	<path class="st1" d="M57.7,74.8h4c0.7,0,1.3,0.6,1.3,1.3v8.3c0,0.7-0.6,1.3-1.3,1.3h-4c-0.7,0-1.3-0.6-1.3-1.3v-8.3
		C56.4,75.4,57,74.8,57.7,74.8z"/>
	<path class="st1" d="M69.1,33.2c0-1.2-1-2.2-2.3-2.2H52.6c-1.3,0-2.3,1-2.3,2.3v1.1h18.9V33.2z"/>
	<rect x="50.3" y="35.1" class="st1" width="18.9" height="2.6"/>
	<path class="st0" d="M103.3,61.4h4c0.7,0,1.3,0.6,1.3,1.3v8.3c0,0.7-0.6,1.3-1.3,1.3h-4c-0.7,0-1.3-0.6-1.3-1.3v-8.3
		C102,61.9,102.6,61.4,103.3,61.4z"/>
	<path class="st0" d="M114.8,19.8c0-1.3-1-2.3-2.3-2.3l0,0H98.2c-1.3,0-2.3,1-2.3,2.3v1.1h18.9L114.8,19.8z"/>
	<rect x="95.9" y="21.6" class="st0" width="18.9" height="2.6"/>
	<path class="st1" d="M46.4,41v-9.2H27.5V41c0,0.7,0.5,1.4,1.2,1.6c5.4,1.6,11.1,1.6,16.5,0C45.9,42.4,46.4,41.7,46.4,41z"/>
	<path class="st1" d="M39,67.7c0.1,0,0.2,0,0.3,0V44.2c-0.7,0-1.4,0.1-2.1,0.1s-1.7,0-2.5-0.1v23.6c0.1,0,0.2,0,0.3,0L39,67.7z"/>
	<path class="st1" d="M69.1,47.7v-9.2H50.3v9.2c0,0.7,0.5,1.4,1.2,1.6c5.4,1.6,11.1,1.6,16.5,0C68.7,49.1,69.1,48.4,69.1,47.7z"/>
	<path class="st1" d="M61.7,74.4c0.1,0,0.2,0,0.3,0V50.9C61.3,51,60.6,51,59.9,51s-1.7,0-2.5-0.1v23.6c0.1,0,0.2,0,0.3,0L61.7,74.4z
		"/>
	<path class="st0" d="M92,41v-9.2H73.1V41c0,0.7,0.5,1.4,1.2,1.6c5.4,1.6,11.1,1.6,16.5,0C91.5,42.4,92,41.7,92,41z"/>
	<path class="st0" d="M84.6,67.7c0.1,0,0.2,0,0.3,0l0,0V44.2c-0.7,0-1.4,0.1-2.1,0.1s-1.7,0-2.5-0.1v1.5l0,0v22.1l0,0
		c0.1,0,0.2,0,0.3,0L84.6,67.7z"/>
	<path class="st0" d="M114.8,34.2V25H95.9v9.2c0,0.7,0.5,1.4,1.2,1.6c5.4,1.6,11.1,1.6,16.5,0C114.3,35.6,114.8,35,114.8,34.2z"/>
	<path class="st0" d="M107.3,61c0.1,0,0.2,0,0.3,0V37.5c-0.7,0.1-1.4,0.1-2.1,0.1c-0.9,0-1.7,0-2.5-0.1V61c0.1,0,0.2,0,0.3,0H107.3z
		"/>
	<path class="st1" d="M61.6,102.9c-0.2-0.4-0.6-0.8-1-1c-1-0.5-2.2-0.5-3.2,0c-0.4,0.2-0.8,0.6-1,1c-0.3,0.4-0.5,0.9-0.6,1.4
		c-0.1,0.5-0.2,1.1-0.2,1.6c0,0.5,0.1,1,0.2,1.5c0.1,0.5,0.3,0.9,0.6,1.3c0.2,0.4,0.6,0.8,1,1c1,0.5,2.2,0.5,3.2,0
		c0.4-0.2,0.8-0.6,1-1c0.3-0.4,0.5-0.9,0.6-1.3c0.1-0.5,0.2-1,0.2-1.5c0-0.5-0.1-1.1-0.2-1.6C62.1,103.7,61.9,103.3,61.6,102.9z"/>
	<path class="st1" d="M82.9,95.7h-24c-5.5,0-10,4.5-10,10v0.2c0,5.5,4.5,10,10,10h24c5.5,0,10-4.5,10-10v-0.2
		C92.9,100.1,88.4,95.7,82.9,95.7z M64.7,108.4c-0.3,0.8-0.7,1.5-1.2,2.1c-0.5,0.6-1.2,1.1-1.9,1.4c-1.7,0.7-3.5,0.7-5.2,0
		c-0.7-0.3-1.4-0.8-1.9-1.4c-0.5-0.6-0.9-1.3-1.2-2.1c-0.3-0.8-0.4-1.7-0.4-2.6c0-0.9,0.1-1.8,0.4-2.6c0.3-0.8,0.7-1.5,1.2-2.1
		c0.5-0.6,1.2-1.1,1.9-1.4c1.7-0.7,3.5-0.7,5.2,0c0.7,0.3,1.4,0.8,1.9,1.4c0.5,0.6,0.9,1.3,1.2,2.1c0.3,0.8,0.4,1.7,0.4,2.6
		C65.2,106.7,65,107.6,64.7,108.4z M76.2,101.8h-6.1v2.9h5.2v2.1h-5.2v5.1h-2.8V99.5h8.8V101.8z M87.3,101.8h-6v2.9h5.2v2.1h-5.3
		v5.1h-2.8V99.5h8.8V101.8z"/>
</g>
</svg>
