<?xml version="1.0" encoding="utf-8"?>
<!-- Generator: Adobe Illustrator 25.0.1, SVG Export Plug-In . SVG Version: 6.00 Build 0)  -->
<svg version="1.1" id="Calque_1" xmlns="http://www.w3.org/2000/svg" xmlns:xlink="http://www.w3.org/1999/xlink" x="0px" y="0px"
	 viewBox="0 0 113.4 113.4" style="enable-background:new 0 0 113.4 113.4;" xml:space="preserve">
<style type="text/css">
	.st0{fill:#494C53;}
	.st1{fill:#F02429;}
</style>
<g id="Calque_1_1_">
</g>
<g id="Calque_2_1_">
</g>
<g id="Calque_3">
	<g>
		<g>
			<path class="st0" d="M57.7,83.4c-25.9,0-46.9-11-46.9-24.4s21.1-24.4,46.9-24.4c25.9,0,46.9,11,46.9,24.4S83.6,83.4,57.7,83.4z
				 M57.7,36.1c-25,0-45.4,10.3-45.4,22.9s20.4,22.9,45.4,22.9s45.4-10.3,45.4-22.9S82.8,36.1,57.7,36.1z"/>
		</g>
		<g>
			<path class="st0" d="M85,78.1c0.2-0.1,0.3-0.1,0.5-0.2c-0.2-0.1-0.3-0.2-0.5-0.2V78.1z M34.5,39.1l1.9-1.1
				c-0.9,0.2-1.8,0.5-2.7,0.8c0.3,0.1,0.5,0.3,0.8,0.4V39.1z M103.9,59.1L103.9,59.1c0-1.4-0.2-2.7-0.6-3.9v2.5L101,59l-2.3-1.3V55
				l1.7-1l0.6-0.3l2.2,1.3c-0.3-0.8-0.6-1.6-1-2.4l-0.4-0.2v-0.5c-0.4-0.7-1-1.4-1.5-2.1v2.6L98,53.7l-2.3-1.3v-2.6l1.1-0.7l1.1-0.7
				l2.2,1.3c-0.9-1-1.9-2-3-3v0.4l-2.3,1.3l-2.3-1.3v-2.6l0.8-0.5c-0.5-0.3-1-0.6-1.5-0.9l0,0L91,42.6c-0.9-0.5-1.9-1-3-1.4v0.6
				l-0.9,0.5l-1.4,0.8l-0.6-0.3l-1.7-1v-2.4c-0.8-0.3-1.7-0.6-2.6-0.8l1,0.6v2.6l-2.3,1.3l-2.3-1.3v-2.6l1.1-0.7l0.7-0.4
				c-0.7-0.2-1.4-0.4-2.1-0.5l-0.5,0.3l-1.1-0.6c-1-0.2-1.9-0.4-2.9-0.6l-0.9,0.5l-1.1,0.7l-1.1-0.7l-1.1-0.7V36
				c-0.5-0.1-1-0.1-1.5-0.2v0.7l-2.3,1.3L62,36.5v-1c-0.5,0-1,0-1.5-0.1v1.1l-2.3,1.3l-1.6-0.9l-0.7-0.4v-1.1c-0.5,0-1,0-1.5,0v1.1
				l-2.3,1.3l-2.3-1.3v-0.8c-0.5,0-1,0.1-1.5,0.1v0.6L46,37.8l-2.3-1.3c-0.8,0.1-1.5,0.3-2.2,0.4L41.3,37l-1.4,0.8l-0.7-0.4h-0.1
				c-0.7,0.2-1.5,0.3-2.2,0.5l2.1,1.2v2.6c1.6,0.9,3.2,1.7,4.8,2.6l2.1-1.2l2.3,1.3v2.4c1.6,0.9,3.2,1.9,4.8,2.8l2.1-1.2l1.1,0.7
				l1.1,0.7v2.5c0.9,0.5,1.7,1,2.6,1.6c0.7,0.4,1.4,0.9,2,1.3V55l1.1-0.7l1.1-0.7l2.3,1.3v2.6l-0.3,0.2c1.6,1.1,3.3,2.1,4.9,3.2
				v-0.7l1.6-0.9l0.7-0.4l2.3,1.3V63l-1,0.5c0.5,0.3,0.9,0.6,1.4,1l0.3-0.2l2.3,1.3v0.7c0.5,0.4,1,0.7,1.5,1.1v-1.8l2.3-1.3l2.3,1.3
				v2.6l-1.1,0.7l-0.7,0.4c0.5,0.3,0.9,0.7,1.4,1l0.1-0.1l1.1-0.7l1.1,0.7l1.1,0.7v2c1,0.8,2.1,1.6,3.1,2.4c0.9-0.5,1.9-1,2.7-1.6
				l-2,1.1l-2-1.2l-0.3-0.2v-2.6l1.1-0.7l1.1-0.7l1.1,0.7l1.1,0.7v2.6c0.5-0.3,1-0.7,1.5-1.1v-1.5l1.1-0.7l1.1-0.7l0.7,0.4
				c0.4-0.4,0.8-0.8,1.1-1.1l-1-0.6v-2.6l2.3-1.3l1.3,0.8c0.2-0.5,0.5-0.9,0.6-1.4l-1.2-0.7v-2.6L103.9,59.1z M45.2,41.8l-2.3,1.3
				l-2.3-1.3v-2.6l2.3-1.3l2.3,1.3V41.8z M94.9,53.7l2.3,1.3v2.6L94.9,59l-2.3-1.3V55l1.8-1L94.9,53.7z M94.1,49.7v2.6l-2.3,1.3
				l-1.8-1l-0.5-0.3v-2.6l1.1-0.7l1.1-0.7L94.1,49.7z M91.1,55v2.6L88.8,59l-2.3-1.3V55l2-1.2l0.3-0.2L91.1,55z M86.5,44.4l2.3-1.3
				l2.3,1.3V47L90,47.7l-1.1,0.7l-1.1-0.7L86.7,47v-2.6H86.5z M85.7,48.4l2.3,1.3v2.6l-2.3,1.3l-1.8-1l-0.5-0.3v-2.6L85.7,48.4z
				 M80.4,44.4l1.1-0.7l1.1-0.7l2.3,1.3v2.6l-1.1,0.7l-1.1,0.7l-1.1-0.7l-1.1-0.7v-2.5H80.4z M81.9,49.7v2.6l-2.3,1.3l-1.8-1
				l-0.5-0.3v-2.6l2.3-1.3L81.9,49.7z M78.8,44.4V47l-2.3,1.3L75,47.5l-0.7-0.4v-2.6l2.3-1.3L78.8,44.4z M71.2,39.1l2.3-1.3l1.1,0.7
				l1.1,0.7v2.6l-0.9,0.5l-1.4,0.8l-2.3-1.3v-2.7H71.2z M72.7,44.4V47l-2.3,1.3L68.1,47v-2.6l2.3-1.3L72.7,44.4z M65.1,39.1l2.3-1.3
				l2.3,1.3v2.6L67.4,43l-1.1-0.7l-1.1-0.7v-2.5H65.1z M59,39.1l2.3-1.3l2.3,1.3v2.6l-0.9,0.5L61.3,43L59,41.8V39.1z M46.7,41.8
				v-2.6l2.3-1.3l2.3,1.3v2.6L49,43.1L46.7,41.8z M54.4,47.1l-2.3,1.3l-2.3-1.3v-2.6l2.3-1.3l2.3,1.3V47.1z M52.9,41.8v-2.6l2.3-1.3
				l2.3,1.3v2.6l-1.1,0.7l-1.1,0.7L52.9,41.8z M55.9,47.1v-2.6l1.1-0.7l1.1-0.7l2.3,1.3V47l-2.3,1.3L55.9,47.1z M63.5,52.4L62.4,53
				l-1.1,0.7L60.1,53L59,52.4v-2.6l2.3-1.3l2.3,1.3L63.5,52.4L63.5,52.4z M63.2,47.7L62,47.1v-2.6l0.7-0.4l1.5-0.9l1.1,0.7l1.1,0.7
				v2.6l-1.1,0.7l-1.1,0.7L63.2,47.7z M65.6,52.6l-0.5-0.3v-2.6l2.3-1.3l1.1,0.7l1.1,0.7v2.6l-2.3,1.3L65.6,52.6z M72.7,57.7
				L70.4,59l-2.3-1.3V55l2-1.2l0.3-0.2l2.3,1.3C72.7,54.9,72.7,57.7,72.7,57.7z M71.5,52.5l-0.3-0.2v-2.6l2.3-1.3l2.3,1.3v2.6
				l-2.3,1.3L71.5,52.5z M74.3,57.7V55l2-1.2l0.3-0.2l2.3,1.3v2.6L76.6,59L74.3,57.7z M81.9,63l-2.3,1.3L77.3,63v-2.6l2.3-1.3
				l2.3,1.3C81.9,60.4,81.9,63,81.9,63z M80.4,57.7V55l2-1.2l0.3-0.2L85,55v2.6L82.7,59L80.4,57.7z M83.4,63v-2.6l2.3-1.3l2.3,1.3
				V63l-2.3,1.3L83.4,63z M91.1,68.3L90,69l-1.1,0.7L87.8,69l-1.1-0.7v-2.6l2.3-1.3l2.3,1.3v2.6H91.1z M89.6,63v-2.6l2.3-1.3
				l1.9,1.1l0.4,0.2V63l-2.3,1.3L89.6,63z M97.2,68.3L96.1,69L95,69.7L93.9,69l-1.1-0.7v-2.6l2.3-1.3l2.3,1.3v2.6H97.2z M100.3,63
				L98,64.3l-1.1-0.7L95.7,63v-2.6l1.6-0.9L98,59l2.3,1.3V63z M80.4,76.2l0.8-0.5c-0.7-0.4-1.4-0.7-2.1-1.1
				c-1.1-0.6-2.2-1.2-3.3-1.8v0.7l-1.1,0.7l-1.1,0.7l-1.1-0.7l-1.1-0.7v-2.6l0.5-0.3c-1.7-1-3.4-1.9-5.1-2.9v0.6L65.7,69l-1.1,0.7
				L63.5,69L62,68.3v-2.6l0.5-0.3c-1.7-1-3.4-2.1-5.1-3.1V63l-2.3,1.3L54,63.6L52.9,63v-2.6l0.7-0.4l0.1-0.1c-0.5-0.3-1-0.6-1.5-0.9
				h-0.1l-1.6-0.9l-0.7-0.4v-0.2c-0.5-0.3-1-0.7-1.5-1v1.3L46,59l-2.3-1.3V55l1.1-0.7l0.2-0.1c-0.5-0.3-1-0.6-1.4-1l-0.7,0.4
				L41.8,53l-1.1-0.7v-1.1c-0.5-0.4-1-0.7-1.5-1.1v2.1L37.9,53l-1.1,0.7L35.6,53l-1.1-0.7v-2.6l2.1-1.2c-0.5-0.3-0.9-0.7-1.4-1
				l-0.3,0.2l-1.1,0.7l-2.3-1.3v-2.2c-1.5-1.1-3.1-2.3-4.6-3.4l0,0v0.3l-2.3,1.3l-0.5-0.3c-0.5,0.3-1,0.6-1.5,0.9l0.1,0.1l1.1,0.7
				v2.6l-0.9,0.5l-1.4,0.8L20.8,48l-1.6-0.9V46c-1.8,1.4-3.4,3-4.6,4.6v1.8L13.5,53l-0.6,0.3c-0.9,1.8-1.3,3.7-1.3,5.6
				c0,0.1,0,0.3,0,0.4l0.7-0.4l2.3,1.3V63l-1.9,1.1c0.2,0.5,0.4,0.9,0.7,1.4l2-1.2l2.3,1.3v2.6l-1.6,0.9c0.4,0.4,0.7,0.8,1.1,1.1
				l0.8-0.4l0.5-0.3l2.3,1.3V73c1.5,1,3.2,2,5,2.9l1.6-1l0.3-0.2l1.1,0.7l1.1,0.7v1.6c0.5,0.2,1,0.4,1.5,0.6v-2.2l1.1-0.7l1.1-0.7
				l2.3,1.3v2.6l-1.2,0.7c2.1,0.6,4.2,1.1,6.5,1.6l0.4-0.2l1.1-0.7l1.1,0.7l1.1,0.7v0.2c0.5,0.1,1,0.1,1.5,0.2v-0.4l1.1-0.7l1.1-0.7
				l1.1,0.7l1.1,0.7v0.9c0.5,0,1,0.1,1.5,0.1v-1l1.1-0.7l1.1-0.7l1.1,0.7l1.1,0.7v1.1c0.1,0,0.2,0,0.3,0c0.4,0,0.8,0,1.2,0v-1.1
				l1.1-0.7l1.1-0.7l1.1,0.7l1.1,0.7v0.9c0.5,0,1-0.1,1.5-0.1v-0.8l1.1-0.7l1.1-0.7l1.1,0.7l1.1,0.7v0.3c0.5-0.1,1-0.1,1.5-0.2v-0.1
				l1.1-0.7l1.1-0.7l1.1,0.7l0.2,0.1c2.2-0.5,4.4-1,6.4-1.6l-0.8-0.5v-2.5H80.4z M55.9,65.6l2.3-1.3l2.2,1.3l0.1,0.1v2.6l-2.3,1.3
				l-2-1.2l-0.3-0.2V65.6z M54.4,65.6v2.6l-1.1,0.7l-1.1,0.7l-1.1-0.7L50,68.2v-2.6l1.1-0.7l1.1-0.7L54.4,65.6z M46.7,60.3L49,59
				l2.3,1.3V63L49,64.3L46.7,63V60.3z M48.3,65.6v2.6L46,69.6l-2-1.2l-0.3-0.2v-2.6l2.3-1.3L48.3,65.6z M42.9,59l1.1,0.7l1.1,0.7V63
				l-2.3,1.3l-1.5-0.9L40.6,63v-2.6L42.9,59z M42.1,65.6v2.6l-2.3,1.3l-2.3-1.3v-2.6l2.3-1.3L42.1,65.6z M37.6,55l1.1-0.7l1.1-0.7
				l1.1,0.7L42,55v2.6L39.9,59l-2.3-1.3C37.6,57.7,37.6,55,37.6,55z M39.1,60.3V63L38,63.7l-1.1,0.7L34.5,63v-2.6l2.3-1.3L39.1,60.3
				z M34.9,54.4L36,55v2.6L33.7,59l-2.3-1.3V55l1.1-0.7l1.1-0.7L34.9,54.4z M26,58.1l-0.7-0.4V55l1.1-0.7l1.1-0.7l1.1,0.7l1.1,0.7
				v2.6L27.6,59L26,58.1z M26.8,60.3V63l-1.1,0.7l-1.1,0.7L22.3,63v-2.6l2.3-1.3L26.8,60.3z M28.4,60.3l2.3-1.3l2.3,1.3V63l-2.3,1.3
				l-1.5-0.9L28.4,63V60.3z M33,49.7v2.6L31.8,53l-1.1,0.7L29.5,53l-1.1-0.7v-2.6l2.3-1.3L33,49.7z M25.3,44.4l2.3-1.3l2.3,1.3V47
				l-2.3,1.3L25.3,47V44.4z M22.3,49.7l2.3-1.3l2.3,1.3v2.6L25.7,53l-1.1,0.7L23.4,53l-1.1-0.7V49.7z M21.5,53.7l1.1,0.7l1.1,0.7
				v2.6L21.5,59l-2.3-1.3V55l1.1-0.7L21.5,53.7z M16.2,49.7l2.3-1.3l2.3,1.3v2.6L19.6,53l-1.1,0.7L17.3,53l-1.1-0.7
				C16.2,52.3,16.2,49.7,16.2,49.7z M13.1,57.7V55l1.1-0.7l1.1-0.7l1.1,0.7l1.1,0.7v2.6L15.4,59L13.1,57.7z M16.2,63v-2.6l2.3-1.3
				l2.3,1.3V63l-2.3,1.3L16.2,63z M19.5,68.4l-0.3-0.2v-2.6l2.3-1.3l2.3,1.3v2.6l-2.3,1.3L19.5,68.4z M26.8,73.6l-2.3,1.3l-1.8-1
				l-0.5-0.3V71l1.8-1l0.5-0.3l1.1,0.7l1.1,0.7L26.8,73.6L26.8,73.6z M26.5,68.9l-1.1-0.7v-2.6l1.1-0.7l1.1-0.7l2.3,1.3v2.6
				l-1.1,0.7l-1.1,0.7L26.5,68.9z M33,73.6l-1.1,0.7L30.8,75l-1.1-0.7l-1.1-0.7V71l1.1-0.7l1.1-0.7l1.1,0.7L33,71V73.6z M32.6,68.9
				l-1.1-0.7v-2.6l0.7-0.4l1.5-0.9l1.1,0.7l1.1,0.7v2.6L34.8,69l-1.1,0.7L32.6,68.9z M35,73.8l-0.5-0.3v-2.6l1.1-0.7l1.1-0.7
				l2.3,1.3v2.6l-2.3,1.3L35,73.8z M42.1,78.9L41,79.5l-1.1,0.7l-1.1-0.7l-1.1-0.7v-2.6l2.3-1.3l1.1,0.7l1.1,0.7v2.6H42.1z
				 M41.8,74.2l-1.1-0.7v-2.6l1.8-1l0.5-0.3l2.3,1.3v2.6l-1.1,0.7l-1.1,0.7L41.8,74.2z M48.3,78.9l-1.1,0.7L46,80.2l-1.1-0.7
				l-1.1-0.7v-2.6l1.1-0.7l1.1-0.7l1.1,0.7l1.1,0.7v2.7H48.3z M47.9,74.2l-1.1-0.7v-2.6l1.8-1l0.5-0.3l1.1,0.7l1.1,0.7v2.6l-1.1,0.7
				L49,74.9L47.9,74.2z M54.4,78.9l-1.1,0.7l-1.1,0.7l-1.1-0.7L50,78.9v-2.6l1.1-0.7l1.1-0.7l2.3,1.3v2.7H54.4z M53.3,73.8l-0.5-0.3
				v-2.6l1.1-0.7l1.1-0.7l2.3,1.3v2.6L55,74.7L53.3,73.8z M60.5,78.9l-1.1,0.7l-1.1,0.7l-1.1-0.7l-1.1-0.7v-2.6l2-1.2l0.3-0.2
				l1.1,0.7l1.1,0.7v2.6H60.5z M60.1,74.2L59,73.6V71l2-1.2l0.3-0.2l1.1,0.7l1.1,0.7v2.6l-1.1,0.7L61.3,75L60.1,74.2z M66.6,78.9
				l-1.1,0.7l-1.1,0.7l-1.1-0.7L62,78.9v-2.6l1.1-0.7l1.1-0.7l1.1,0.7l1.1,0.7v2.6H66.6z M66.2,74.2l-1.1-0.7v-2.6l1.1-0.7l1.1-0.7
				l1.1,0.7l1.1,0.7v2.6l-1.1,0.7l-1.1,0.7L66.2,74.2z M72.7,78.9l-1.1,0.7l-1.1,0.7l-1.1-0.7l-1.1-0.7v-2.6l1.1-0.7l1.1-0.7
				l1.1,0.7l1.1,0.7V78.9z M78.8,78.9l-1.1,0.7l-1.1,0.7l-1.1-0.7l-1.1-0.7v-2.6l1.1-0.7l1.1-0.7l2.3,1.3v2.7H78.8z"/>
		</g>
		<g>
			<path class="st1" d="M103.9,88.1c-0.3,0-0.7-0.1-1-0.3L10.6,30.4c-0.9-0.6-1.2-1.8-0.6-2.7c0.6-0.9,1.8-1.2,2.7-0.6L105,84.5
				c0.9,0.6,1.2,1.8,0.6,2.7C105.2,87.8,104.6,88.1,103.9,88.1z"/>
		</g>
	</g>
</g>
</svg>
