<?xml version="1.0" encoding="utf-8"?>
<!-- Generator: Adobe Illustrator 25.0.1, SVG Export Plug-In . SVG Version: 6.00 Build 0)  -->
<svg version="1.1" id="Layer_1" xmlns="http://www.w3.org/2000/svg" xmlns:xlink="http://www.w3.org/1999/xlink" x="0px" y="0px"
	 viewBox="0 0 141.7 141.7" style="enable-background:new 0 0 141.7 141.7;" xml:space="preserve">
<style type="text/css">
	.st0{fill:none;stroke:#242B38;stroke-width:3.57;stroke-linecap:round;stroke-linejoin:round;stroke-miterlimit:4;}
	.st1{fill:#242B38;stroke:#242B38;stroke-width:3.57;stroke-linecap:round;stroke-linejoin:round;}
	.st2{fill:none;stroke:#FFFFFF;stroke-width:1.45;stroke-linecap:round;stroke-linejoin:round;}
	.st3{fill:#FFFFFF;}
	.st4{fill:none;stroke:#242B38;stroke-width:3.97;stroke-linecap:round;stroke-linejoin:round;stroke-miterlimit:4;}
	.st5{fill:#242B38;stroke:#242B38;stroke-width:3.97;stroke-linecap:round;stroke-linejoin:round;}
	.st6{fill:none;stroke:#FFFFFF;stroke-width:1.61;stroke-linecap:round;stroke-linejoin:round;}
	.st7{fill:none;stroke:#242B38;stroke-width:0.81;stroke-linecap:round;stroke-linejoin:round;}
	.st8{fill:none;stroke:#F02429;stroke-width:3;stroke-linecap:round;stroke-linejoin:round;stroke-miterlimit:10;}
	.st9{fill:#F02429;}
</style>
<g id="Layer_1_1_">
	<ellipse transform="matrix(0.9066 -0.422 0.422 0.9066 -15.6991 44.472)" class="st0" cx="92.6" cy="57.7" rx="11.9" ry="18.1"/>
	<path class="st1" d="M63.2,91.5c-6,2.8-14.2-2.3-18.5-11.4s-2.8-18.7,3.2-21.5L85,41.2c-6,2.8-7.4,12.4-3.2,21.5
		s12.5,14.2,18.5,11.4L63.2,91.5z"/>
	<line class="st2" x1="66.8" y1="87.6" x2="80.5" y2="81.1"/>
	<path class="st3" d="M36.6,105.6C30,108.7,20.7,103,16,92.9S12.9,72,19.6,69c0,0,37.3-17.5,41.2-19.3s12.9,1.8,20.3,13
		s1.9,19.5-3.2,23.5S36.6,105.6,36.6,105.6z"/>
	<ellipse transform="matrix(0.9066 -0.422 0.422 0.9066 -22.3851 35.501)" class="st4" cx="69" cy="68.3" rx="13.3" ry="20.2"/>
	<path class="st5" d="M36.3,105.9c-6.6,3.1-15.9-2.6-20.6-12.7s-3.1-20.8,3.5-23.9L60.5,50c-6.7,3.1-8.2,13.8-3.5,23.9
		s13.9,15.8,20.5,12.7L36.3,105.9z"/>
	<line class="st6" x1="59.5" y1="92.5" x2="64.7" y2="90.1"/>
	<line class="st7" x1="77.6" y1="83" x2="82.6" y2="80.6"/>
	<line class="st7" x1="66" y1="52.8" x2="71" y2="50.5"/>
	<line class="st6" x1="40.3" y1="101.5" x2="55.5" y2="94.3"/>
	<line class="st7" x1="102.9" y1="66.5" x2="106.1" y2="65"/>
	<line class="st7" x1="102.4" y1="58" x2="105.6" y2="56.5"/>
	<line class="st7" x1="93.2" y1="43.9" x2="96.4" y2="42.4"/>
	<g>
		<line class="st8" x1="117.4" y1="70.4" x2="76.1" y2="72.6"/>
		<line class="st8" x1="107.3" y1="51.2" x2="92.5" y2="61.9"/>
		<line class="st8" x1="72.4" y1="68.9" x2="105.6" y2="42.4"/>
		<path class="st8" d="M129.4,65.8c0.9,8.9-4.1,16.2-11.2,16.4c-4.3,0.1-8.6-2.5-11.5-6.9"/>
		<path class="st8" d="M112.5,44.9c2.9-6.8,9.9-8.8,15.8-4.5c5.8,4.3,8.3,13.3,5.4,20.1c-1,2.3-2.4,4.1-4.3,5.3"/>
		<path class="st8" d="M100,40.6c-0.8-8.1,3.7-14.7,10.2-14.9c5.9-0.1,11.4,5.2,12.9,12.5"/>
		<line class="st8" x1="118.8" y1="61.6" x2="100.8" y2="64.6"/>
	</g>
</g>
<g>
	<path class="st9" d="M18.2,40.2h-6.4V28.3h6.4c3.8,0,6.2,2.1,6.2,5.9C24.5,38.1,22,40.2,18.2,40.2z M17.9,30.2h-3.4v8.1H18
		c2.5,0,3.7-1.6,3.7-4S20.4,30.2,17.9,30.2z"/>
	<path class="st9" d="M31.8,40.4c-3.4,0-5.8-1.1-5.8-4.2h2.7c0,1.6,1.1,2.3,3.2,2.3c1.9,0,3.1-0.4,3.1-1.6c0-1.1-0.7-1.4-1.9-1.5
		L30.2,35c-1.6-0.2-4-0.7-4-3.4c0-2.5,2.6-3.6,5.5-3.6c2.7,0,5.6,0.9,5.7,3.6h-2.7c0-1.2-1.3-1.7-3.1-1.7c-1.8,0-2.8,0.4-2.8,1.5
		c0,1.1,1,1.2,1.9,1.3l2.4,0.3c1.8,0.3,4.5,0.7,4.5,3.7C37.7,39.6,34.7,40.4,31.8,40.4z"/>
	<path class="st9" d="M50.1,31.7c-0.4-1-1-1.7-3.4-1.7c-3,0-4.5,1.9-4.5,4.1c0,3,1.8,4.4,4.8,4.4c0.6,0,1.3,0,1.8-0.1
		s0.9-0.1,1.2-0.2v-2.6h-2.5v-1.9h5.2v6c-1.6,0.4-3.9,0.8-5.7,0.8c-4.4,0-7.6-1.8-7.6-6.2c0-4,3.2-6.2,7.4-6.2c3.1,0,5.8,1.2,6,3.7
		L50.1,31.7L50.1,31.7z"/>
</g>
</svg>
