<?xml version="1.0" encoding="utf-8"?>
<!-- Generator: Adobe Illustrator 25.0.1, SVG Export Plug-In . SVG Version: 6.00 Build 0)  -->
<svg version="1.1" id="_x38_5aa4d71-1039-4e8f-9399-c15acb229240"
	 xmlns="http://www.w3.org/2000/svg" xmlns:xlink="http://www.w3.org/1999/xlink" x="0px" y="0px" viewBox="0 0 113.4 113.4"
	 style="enable-background:new 0 0 113.4 113.4;" xml:space="preserve">
<style type="text/css">
	.st0{fill:#494C53;}
	.st1{fill:#F02429;}
</style>
<path class="st0" d="M107.1,36.5H96.8c-0.9,0-1.6,0.7-1.6,1.6v5.2H91v-5.2c0-0.9-0.7-1.6-1.6-1.6H78.6l-7.9-7.9
	c-0.3-0.3-0.7-0.5-1.1-0.5h-18v-5.8h11.2c0.9,0,1.6-0.7,1.6-1.6s-0.7-1.6-1.6-1.6H37.2c-0.9,0-1.6,0.7-1.6,1.6s0.7,1.6,1.6,1.6h11.2
	v5.8h-17c-0.6,0-1.1,0.3-1.4,0.8l-5.9,10.1H13.8c-0.9,0-1.6,0.7-1.6,1.6v13.2H6.1V42.6c0-0.9-0.7-1.6-1.6-1.6
	c-0.9,0-1.6,0.7-1.6,1.6v25.9c0,0.9,0.7,1.6,1.6,1.6c0.9,0,1.6-0.7,1.6-1.6V57.1h6.1v23.7c0,0.9,0.7,1.6,1.6,1.6h13.9
	c0.9,0,1.6-0.7,1.6-1.6c0-0.9-0.7-1.6-1.6-1.6H15.4V42.3h9.6c0.6,0,1.1-0.3,1.4-0.8l5.9-10.2h36.6l7.9,7.9c0.3,0.3,0.7,0.5,1.1,0.5
	h9.8v5.2c0,0.9,0.7,1.6,1.6,1.6h7.5c0.9,0,1.6-0.7,1.6-1.6v-5.2h7v33.6h-7.3v-3.5c0-0.9-0.7-1.6-1.6-1.6h-7.5
	c-0.4,0-0.8,0.2-1.1,0.5l-11,11c-0.7,0.6-0.7,1.6-0.1,2.3s1.6,0.7,2.3,0.1c0,0,0.1-0.1,0.1-0.1l10.5-10.5H95v3.4
	c0,0.9,0.7,1.6,1.6,1.6h10.5c0.9,0,1.6-0.7,1.6-1.6V38.1C108.7,37.2,108,36.5,107.1,36.5C107.1,36.5,107.1,36.5,107.1,36.5z"/>
<path class="st0" d="M35.9,45.7c1.3,0,2.6,0.2,3.8,0.7c1.1,0.4,2.2,1.1,3,1.9c0.9,0.9,1.6,2,2,3.2c0.5,1.5,0.8,3,0.7,4.6
	c0,1.4-0.2,2.9-0.6,4.2c-0.4,1.2-1,2.4-1.8,3.4c-0.8,1-1.8,1.7-3,2.2c-1.3,0.6-2.8,0.8-4.2,0.8h-9v-21L35.9,45.7L35.9,45.7z
	 M35.6,62.8c0.7,0,1.3-0.1,1.9-0.3c0.6-0.2,1.2-0.6,1.7-1.1c0.5-0.6,0.9-1.3,1.2-2c0.3-1,0.5-1.9,0.4-3c0-1-0.1-1.9-0.3-2.9
	c-0.2-0.8-0.5-1.5-1-2.2c-0.5-0.6-1.1-1.1-1.9-1.4c-0.9-0.3-1.9-0.5-2.9-0.5h-3.3v13.3H35.6z"/>
<path class="st0" d="M45.3,49.6v-3.9h17.2v3.9h-6.3v17.1h-4.6V49.6H45.3z"/>
<path class="st0" d="M76.6,51.3c-0.3-0.4-0.6-0.8-1-1.2c-0.4-0.3-0.9-0.6-1.4-0.8c-0.5-0.2-1.1-0.3-1.6-0.3c-0.9,0-1.8,0.2-2.7,0.6
	c-0.7,0.4-1.3,0.9-1.8,1.6c-0.5,0.7-0.8,1.5-1,2.3c-0.2,0.9-0.3,1.8-0.3,2.7c0,0.9,0.1,1.7,0.3,2.6c0.2,0.8,0.5,1.6,1,2.2
	c0.5,0.7,1.1,1.2,1.8,1.6c0.8,0.4,1.7,0.6,2.7,0.6c1.2,0.1,2.4-0.4,3.3-1.3c0.8-1,1.3-2.2,1.5-3.4h4.5c-0.1,1.2-0.4,2.4-0.9,3.6
	c-0.5,1-1.1,2-1.9,2.7c-0.8,0.8-1.8,1.3-2.8,1.7c-1.1,0.4-2.4,0.6-3.6,0.6c-1.5,0-3-0.3-4.3-0.8c-1.2-0.5-2.3-1.3-3.2-2.3
	c-0.9-1-1.6-2.2-2-3.5c-0.5-1.4-0.7-2.8-0.7-4.3c0-1.5,0.2-3,0.7-4.4c0.4-1.3,1.1-2.5,2-3.5c0.9-1,2-1.8,3.3-2.4
	c2.4-1,5.1-1.1,7.6-0.3c1,0.3,1.9,0.8,2.8,1.5c0.8,0.6,1.5,1.5,2,2.4c0.5,1,0.9,2.1,1,3.2h-4.5C77.1,52.3,76.9,51.8,76.6,51.3z"/>
<path class="st1" d="M44,78.8c-0.3-0.4-0.6-0.7-1-0.9c-0.9-0.4-2-0.4-2.9,0c-0.4,0.2-0.7,0.5-1,0.9c-0.2,0.4-0.4,0.8-0.5,1.2
	c-0.1,0.5-0.2,1-0.2,1.5c0,0.5,0.1,1,0.2,1.4c0.1,0.4,0.3,0.9,0.5,1.2c0.3,0.4,0.6,0.7,1,0.9c0.9,0.4,2,0.4,2.9,0
	c0.4-0.2,0.7-0.5,1-0.9c0.3-0.4,0.4-0.8,0.5-1.2c0.1-0.5,0.2-0.9,0.2-1.4c0-0.5-0.1-1-0.2-1.5C44.5,79.6,44.3,79.1,44,78.8z"/>
<path class="st1" d="M63.7,72.1H41.5c-5.1,0-9.2,4.1-9.2,9.2l0,0v0.2c0,5.1,4.1,9.2,9.2,9.2h22.2c5.1,0,9.3-4.1,9.3-9.2c0,0,0,0,0,0
	v-0.2C73,76.3,68.9,72.1,63.7,72.1C63.7,72.1,63.7,72.1,63.7,72.1z M46.9,83.9c-0.2,0.7-0.6,1.4-1.1,1.9c-0.5,0.5-1.1,1-1.8,1.3
	c-1.5,0.6-3.3,0.6-4.8,0c-0.7-0.3-1.3-0.7-1.8-1.3c-0.5-0.6-0.9-1.2-1.1-1.9c-0.3-0.8-0.4-1.6-0.4-2.4c0-0.8,0.1-1.6,0.4-2.4
	c0.2-0.7,0.6-1.4,1.1-1.9c0.5-0.6,1.1-1,1.8-1.3c1.5-0.6,3.3-0.6,4.8,0c0.7,0.3,1.3,0.7,1.8,1.3c0.5,0.6,0.9,1.2,1.1,1.9
	c0.3,0.8,0.4,1.6,0.4,2.4C47.3,82.3,47.2,83.1,46.9,83.9z M57.5,77.8h-5.6v2.7h4.8v2h-4.8v4.8h-2.5V75.7h8.1V77.8z M67.8,77.8h-5.6
	v2.7H67v2h-4.8v4.8h-2.5V75.7h8.2C67.8,75.7,67.8,77.8,67.8,77.8z"/>
</svg>
