<svg xmlns="http://www.w3.org/2000/svg" xmlns:xlink="http://www.w3.org/1999/xlink" viewBox="0 0 252.72 125.51"><defs><style>.cls-1{fill:url(#Dégradé_sans_nom_407);}.cls-2{fill:#484d53;}</style><linearGradient id="Dégradé_sans_nom_407" x1="198.63" y1="129.59" x2="198.63" y2="0.28" gradientUnits="userSpaceOnUse"><stop offset="0" stop-color="#65b32e"/><stop offset="1" stop-color="#0a6e2e"/></linearGradient></defs><g id="Calque_2" data-name="Calque 2"><g id="Calque_2-2" data-name="Calque 2"><g id="E85"><path class="cls-1" d="M171.79,104.2c-6,.27-11,2.49-11,6.5,0,3.65,3.65,5.7,9.71,5.7,5.34,0,9.53-2.4,9.53-5.7S176.33,105.27,171.79,104.2Zm3.74-23.69c-4.37,0-8.2,2.14-8.2,5.35,0,2.76,3.92,4.89,7.39,5.69,5.79-.35,9.89-2.49,9.89-5.52C184.61,82.83,180.69,80.51,175.53,80.51Zm44.06,12.92c3.09-2.49,6.19-3.61,11.08-3.61A19.62,19.62,0,0,1,237.41,91l1.78-8.36H221.91ZM235.72.28H184L167.2,68.81a40.79,40.79,0,0,1,9.22-1c11.75,0,24.58,4.63,24.58,15.49,0,7.57-5.79,13.54-14.7,15.59,5.79,3.2,9.26,7.92,9.26,13.18,0,6.07-3.76,10.6-9.29,13.47h22.36a25.83,25.83,0,0,1-11-8.28l10.31-9.45C211,112.16,216.32,115,223,115c6,0,9.1-3.35,9.1-7.13s-3.95-6.11-9.79-6.11c-4.47,0-6.88.95-9.8,3.18l-9.45-3.61L210,69.72h32l10.41-48.91A17,17,0,0,0,235.72.28Z"/><path class="cls-2" d="M.59,107,29.68,10.17A14.17,14.17,0,0,1,43.27,0H155.2l-6.66,26.59H68.07L62.21,46.41h80.95L135.76,75H53.81L47.44,96.54h83.73l-6.4,28.59H14.18A14.17,14.17,0,0,1,.59,107Z"/></g></g></g></svg>