<svg xmlns="http://www.w3.org/2000/svg" viewBox="0 0 113.4 113.4"><style>.st0{fill:#f02429}.st1{fill:#494c53}.st2,.st3{fill:none;stroke:#c9c9c9;stroke-miterlimit:10}.st3{stroke:#dbdbdb}.st4{fill:#fff}.st5{fill:url(#SVGID_1_)}.st6{fill:url(#SVGID_2_)}.st7{fill:url(#SVGID_3_)}.st8{fill:url(#SVGID_4_)}.st9{fill:url(#SVGID_5_)}.st10{fill:url(#SVGID_6_)}.st11{fill:url(#SVGID_7_)}.st12{fill:none;stroke:#231f20;stroke-width:.48;stroke-miterlimit:10}.st13,.st14,.st15{stroke:#4c4c4c;stroke-miterlimit:10}.st13{fill-rule:evenodd;clip-rule:evenodd;fill:#494c53}.st14{fill:#d1d3d4}.st15,.st16{fill:none}.st16{stroke-width:1.071;stroke-miterlimit:3.864}.st16,.st17,.st18{stroke:#4c4c4c}.st17{stroke-width:.765;fill:none;stroke-miterlimit:3.864}.st18{fill:#494c53;stroke-miterlimit:10}.st19{fill:none;stroke-width:.551;stroke-miterlimit:3.864}.st19,.st20,.st21{stroke:#4c4c4c}.st20{stroke-width:1.531;fill:none;stroke-miterlimit:3.864}.st21{fill:#00b9f2;stroke-miterlimit:10}.st22,.st23{fill:none;stroke:#4c4c4c}.st22{stroke-linecap:round;stroke-linejoin:round;stroke-width:.551;stroke-miterlimit:3.864}.st23{stroke-width:.48;stroke-miterlimit:10}</style><g id="Calque_2"><path class="st0" d="M101.5 86.3H12.8c-2.2 0-4.1-1.8-4.1-4.1V33c0-2.2 1.8-4.1 4.1-4.1h88.7c2.2 0 4.1 1.8 4.1 4.1v49.2c0 2.3-1.9 4.1-4.1 4.1z"/><path class="st1" d="M13.8 29h86.6v57.3H13.8z"/><path class="st2" d="M16.4 30.9h81.4"/><path class="st3" d="M16.4 35.4h81.4"/><path class="st2" d="M16.4 84.5h81.4"/><path class="st3" d="M16.4 80h81.4"/><path class="st4" d="M47.7 56h-6l.1-1h6zm-.4 4.1h-6l.1-1h6zm.2-2h-6l.1-1.1h6zm12.6 2l1.1-1 .4-4.1h-1l-.4 4.1h-4l.4-4.1h-1l-.5 5.1h5zM54.7 56l.1-1h-6.1l-.4 4.1 1 1h5l.1-1h-5l.3-3.1z"/><linearGradient id="SVGID_1_" gradientUnits="userSpaceOnUse" x1="14.562" y1="55.482" x2="41.036" y2="55.482"><stop offset="0" stop-color="#e8e8e8" stop-opacity="0"/><stop offset="1" stop-color="#e8e8e8" stop-opacity=".4"/></linearGradient><path class="st5" d="M40.9 56H14.6l.1-1H41z"/><linearGradient id="SVGID_2_" gradientUnits="userSpaceOnUse" x1="14.175" y1="59.629" x2="40.65" y2="59.629"><stop offset="0" stop-color="#e8e8e8" stop-opacity="0"/><stop offset="1" stop-color="#e8e8e8" stop-opacity=".4"/></linearGradient><path class="st6" d="M40.6 60.1H14.2l.1-1h26.3z"/><linearGradient id="SVGID_3_" gradientUnits="userSpaceOnUse" x1="14.369" y1="57.555" x2="40.843" y2="57.555"><stop offset="0" stop-color="#e8e8e8" stop-opacity="0"/><stop offset="1" stop-color="#e8e8e8" stop-opacity=".4"/></linearGradient><path class="st7" d="M40.7 58.1H14.4l.1-1.1h26.3z"/><linearGradient id="SVGID_4_" gradientUnits="userSpaceOnUse" x1="69.92" y1="55.477" x2="100.415" y2="55.477"><stop offset="0" stop-color="#e8e8e8" stop-opacity=".4"/><stop offset="1" stop-color="#e8e8e8" stop-opacity="0"/></linearGradient><path class="st8" d="M70.7 55.7v.3h29.7l.1-1H70.8c-.1.2-.1.4-.1.7z"/><linearGradient id="SVGID_5_" gradientUnits="userSpaceOnUse" x1="69.47" y1="59.624" x2="100.028" y2="59.624"><stop offset="0" stop-color="#e8e8e8" stop-opacity=".4"/><stop offset="1" stop-color="#e8e8e8" stop-opacity="0"/></linearGradient><path class="st9" d="M99.9 60.1l.1-1H69.8c-.1.4-.3.8-.4 1h30.5z"/><linearGradient id="SVGID_6_" gradientUnits="userSpaceOnUse" x1="69.646" y1="57.104" x2="103.677" y2="57.104"><stop offset="0" stop-color="#e8e8e8"/><stop offset="1" stop-color="#e8e8e8" stop-opacity="0"/></linearGradient><path class="st10" d="M69.7 57v.2l.1-.2z"/><linearGradient id="SVGID_7_" gradientUnits="userSpaceOnUse" x1="69.704" y1="57.55" x2="100.222" y2="57.55"><stop offset="0" stop-color="#e8e8e8" stop-opacity=".4"/><stop offset="1" stop-color="#e8e8e8" stop-opacity="0"/></linearGradient><path class="st11" d="M70.2 58.1h29.9l.1-1H70.4c0 .3-.1.6-.2 1 0-.1 0-.1 0 0z"/><path class="st4" d="M69.5 54.3c-.9 0-2.6 1.2-4.1 2.5-.2-.3-.3-.6-.3-.7-.3-.7-.4-1.1-.9-1.1-.4 0-.6.4-.6.6 0 .3.5 1 .9 1.6.1.1.1.2.2.3-1.8 1.6-3.3 3.2-3.3 3.2-.2.2-.2.6 0 .9.2.2.6.2.9 0 .8-.9 1.8-2.2 2.9-3.4.9 1.3 2 2.8 2.8 2.8 1.2 0 2.1-4.5 2.1-5.8-.2-.7-.4-.9-.6-.9zm-1.7 6.1c-.6 0-1.6-1.7-2.2-3 1.5-1.5 3.1-2.8 3.8-2.8.1 0 .1.1.1.6.1 1.8-1.2 5.2-1.7 5.2z"/></g></svg>