<?xml version="1.0" encoding="utf-8"?>
<!-- Generator: Adobe Illustrator 25.0.1, SVG Export Plug-In . SVG Version: 6.00 Build 0)  -->
<svg version="1.1" id="_x33_e9118df-ef2a-4cdf-87e0-bbe75fe70cd3"
	 xmlns="http://www.w3.org/2000/svg" xmlns:xlink="http://www.w3.org/1999/xlink" x="0px" y="0px" viewBox="0 0 113.4 113.4"
	 style="enable-background:new 0 0 113.4 113.4;" xml:space="preserve">
<style type="text/css">
	.st0{fill:#494C53;}
	.st1{fill:#F02429;}
</style>
<path class="st0" d="M4.9,54.7l3.3-7.9l-1.8,0.8V31.1c0-2.2,1.8-4,4-4H103c2.2,0,4,1.8,4,4v8.2c0,0.8,0.7,1.5,1.5,1.5
	s1.5-0.7,1.5-1.5v-8.2c0-3.9-3.1-7-7-7H10.4c-3.9,0-7,3.1-7,7l0,0v16.5l-1.8-0.8L4.9,54.7z"/>
<path class="st0" d="M33.2,74H10.4c-2.2,0-4-1.8-4-4v-8.2c0-0.8-0.7-1.5-1.5-1.5S3.4,61,3.4,61.8V70c0,3.9,3.1,7,7,7h22.8
	c0.8,0,1.5-0.7,1.5-1.5S34,74,33.2,74z"/>
<path class="st0" d="M111.8,55.7l-3.3-7.9l-3.3,7.9l1.8-0.8V70c0,2.2-1.8,4-4,4H79.8c-0.8,0-1.5,0.7-1.5,1.5S79,77,79.8,77H103
	c3.9,0,7-3.1,7-7V54.9L111.8,55.7z"/>
<path class="st0" d="M38,35.6v5.7H21.8v6.5h14.8V53H21.8v7.5h16.5v5.7H15.1V35.6H38z"/>
<path class="st0" d="M61,65.9c-1.4,0.6-2.9,0.9-4.4,0.9c-2.2,0-4.3-0.4-6.3-1.2c-1.8-0.8-3.4-1.9-4.7-3.4c-1.3-1.5-2.3-3.2-3-5
	c-0.7-2-1-4.1-1-6.2c0-2.2,0.3-4.3,1-6.4c0.7-1.9,1.7-3.6,3-5.1c1.3-1.5,2.9-2.6,4.7-3.4c2-0.9,4.1-1.3,6.3-1.2
	c1.5,0,3.1,0.2,4.6,0.7c1.4,0.5,2.8,1.2,4,2.1c2.5,1.9,4.1,4.8,4.3,8H63c-0.3-1.5-1.1-2.9-2.3-3.8c-1.2-0.9-2.7-1.3-4.2-1.3
	c-1.3,0-2.7,0.3-3.8,0.9c-1,0.6-1.9,1.4-2.6,2.4c-0.7,1-1.2,2.2-1.4,3.4c-0.3,1.3-0.5,2.6-0.5,3.9c0,1.3,0.1,2.5,0.5,3.8
	c0.3,1.2,0.8,2.2,1.5,3.2c0.7,1,1.5,1.8,2.6,2.3c1.2,0.6,2.5,0.9,3.8,0.9c3.6,0.4,6.8-2.2,7.2-5.8c0-0.3,0-0.5,0-0.8h-6.8v-5h12.8
	v16.5h-4.3L65,62.7C64,64.1,62.6,65.2,61,65.9z"/>
<path class="st0" d="M91.8,35.6c1.3,0,2.5,0.2,3.7,0.7c1.1,0.4,2,1,2.8,1.8c0.8,0.8,1.4,1.7,1.8,2.7c0.4,1.1,0.6,2.2,0.6,3.3
	c0,1.6-0.3,3.2-1.1,4.7c-0.9,1.4-2.2,2.5-3.7,3v0.1c0.8,0.2,1.5,0.5,2.1,1c0.5,0.5,1,1,1.3,1.7c0.4,0.7,0.6,1.4,0.8,2.1
	c0.2,0.8,0.3,1.5,0.3,2.3c0,0.5,0,1.1,0.1,1.7c0.1,0.7,0.1,1.3,0.2,2c0.1,0.7,0.2,1.3,0.3,2c0.1,0.6,0.4,1.1,0.7,1.6H95
	c-0.4-1.1-0.6-2.3-0.7-3.5c-0.1-1.3-0.2-2.6-0.4-3.8c-0.1-1.3-0.6-2.5-1.5-3.5c-1-0.8-2.3-1.2-3.6-1.1h-6.7v12h-6.7V35.6H91.8z
	 M89.4,49.4c1.2,0.1,2.5-0.3,3.5-1c0.9-0.9,1.3-2.1,1.2-3.4c0.1-1.2-0.3-2.4-1.2-3.2c-1-0.7-2.2-1.1-3.5-1h-7.4v8.6L89.4,49.4
	L89.4,49.4z"/>
<path class="st1" d="M48.1,78.8c-0.3-0.4-0.6-0.7-1-0.9c-0.9-0.4-2-0.4-2.9,0c-0.4,0.2-0.7,0.5-1,0.9c-0.2,0.4-0.4,0.8-0.5,1.2
	c-0.1,0.5-0.2,1-0.2,1.5c0,0.5,0.1,1,0.2,1.4c0.1,0.4,0.3,0.9,0.5,1.2c0.3,0.4,0.6,0.7,1,0.9c0.9,0.4,2,0.4,2.9,0
	c0.4-0.2,0.7-0.5,1-0.9c0.3-0.4,0.4-0.8,0.5-1.2c0.1-0.5,0.2-0.9,0.2-1.4c0-0.5-0.1-1-0.2-1.5C48.6,79.6,48.4,79.1,48.1,78.8z"/>
<path class="st1" d="M67.8,72.1H45.6c-5.1,0-9.2,4.1-9.2,9.2v0.2c0,5.1,4.1,9.2,9.2,9.2h22.2c5.1,0,9.2-4.1,9.2-9.2v-0.2
	C77,76.3,72.9,72.1,67.8,72.1z M51,83.9c-0.2,0.7-0.6,1.4-1.1,1.9c-0.5,0.5-1.1,1-1.8,1.3c-1.5,0.6-3.3,0.6-4.8,0
	c-0.7-0.3-1.3-0.7-1.8-1.3c-0.5-0.6-0.9-1.2-1.1-1.9c-0.3-0.8-0.4-1.6-0.4-2.4c0-0.8,0.1-1.6,0.4-2.4c0.2-0.7,0.6-1.4,1.1-1.9
	c0.5-0.6,1.1-1,1.8-1.3c1.5-0.6,3.3-0.6,4.8,0c0.7,0.3,1.3,0.7,1.8,1.3c0.5,0.6,0.9,1.2,1.1,1.9c0.3,0.8,0.4,1.6,0.4,2.4
	C51.4,82.3,51.3,83.1,51,83.9z M61.6,77.8H56v2.7h4.8v2H56v4.8h-2.5V75.7h8.2L61.6,77.8L61.6,77.8z M71.9,77.8h-5.6v2.7h4.8v2h-4.8
	v4.8h-2.5V75.7h8.1L71.9,77.8L71.9,77.8z"/>
</svg>
