<?xml version="1.0" encoding="utf-8"?>
<!-- Generator: Adobe Illustrator 25.0.1, SVG Export Plug-In . SVG Version: 6.00 Build 0)  -->
<svg version="1.1" id="Calque_1" xmlns="http://www.w3.org/2000/svg" xmlns:xlink="http://www.w3.org/1999/xlink" x="0px" y="0px"
	 viewBox="0 0 113.4 113.4" style="enable-background:new 0 0 113.4 113.4;" xml:space="preserve">
<style type="text/css">
	.st0{fill:#F02429;}
	.st1{fill:#232529;}
</style>
<path class="st0" d="M97.9,32.7c-0.3-0.6-0.9-0.8-1.5-0.5l-0.7,0.3c-1.3-6.3-6-9.6-11.2-7.5c-4.6,1.9-8.2,7.5-9.2,13.6
	c1.2,0.6,2.1,1.6,2.5,3l16.8-7.8c0.2-0.1,0.4,0,0.5,0.2s0,0.4-0.2,0.5l-17,7.9c0,0.1,0,0.2,0,0.4c0.1,1,0.4,1.9,0.8,2.7l14.8-6.9
	c0.2-0.1,0.4,0,0.5,0.2s0,0.4-0.2,0.5l-14.7,6.8c0.6,0.9,1.3,1.7,2.1,2.5l11.8-5.5c0.2-0.1,0.4,0,0.5,0.2s0,0.4-0.2,0.5l-11.6,5.4
	c0.7,0.7,1.5,1.3,2.2,1.9l6.5-3c0.2-0.1,0.4,0,0.5,0.2s0,0.4-0.2,0.5l-6.2,2.9c0.7,0.5,1.3,1,1.9,1.5c5.8-2.4,10-10.6,9.4-18.3
	l1.3-0.6C98,34,98.2,33.3,97.9,32.7z M80.2,29.3l8.6-4c0.2-0.1,0.4,0,0.5,0.2s0,0.4-0.2,0.5l-8.6,4c-0.1,0-0.1,0-0.2,0
	c-0.1,0-0.3-0.1-0.3-0.2C79.9,29.6,80,29.4,80.2,29.3z M77.7,34l14.2-6.6c0.2-0.1,0.4,0,0.5,0.2s0,0.4-0.2,0.5L78,34.7
	c-0.1,0-0.1,0-0.2,0c-0.1,0-0.3-0.1-0.3-0.2C77.4,34.3,77.5,34,77.7,34z M93.4,31l-16.3,7.6c-0.1,0-0.1,0-0.2,0
	c-0.1,0-0.3-0.1-0.3-0.2c-0.1-0.2,0-0.4,0.2-0.5L93,30.3c0.2-0.1,0.4,0,0.5,0.2C93.6,30.7,93.6,30.9,93.4,31z"/>
<path class="st0" d="M74.2,43.3c-0.3-0.6-1-0.9-1.7-0.6L71.7,43c-1.5-7-6.7-10.7-12.5-8.3c-6.1,2.5-10.6,10.8-10.6,19l-4.1,1.9
	c-0.6,0.3-0.9,1-0.6,1.7c0.2,0.5,0.7,0.7,1.1,0.7c0.2,0,0.4,0,0.5-0.1l3.3-1.5c1.1,7.8,6.6,12.1,12.7,9.6
	c6.4-2.6,11.1-11.8,10.5-20.4l1.5-0.7C74.2,44.7,74.5,43.9,74.2,43.3z M54.5,39.5L64,35c0.2-0.1,0.5,0,0.6,0.2s0,0.5-0.2,0.6
	l-9.6,4.5c-0.1,0-0.1,0-0.2,0c-0.2,0-0.3-0.1-0.4-0.2C54.2,39.8,54.2,39.6,54.5,39.5z M51.6,44.7l15.8-7.3c0.2-0.1,0.5,0,0.6,0.2
	s0,0.5-0.2,0.6L52,45.4c-0.1,0-0.1,0-0.2,0c-0.2,0-0.3-0.1-0.4-0.2C51.3,45,51.4,44.8,51.6,44.7z M50.6,49.1l18.1-8.4
	c0.2-0.1,0.5,0,0.6,0.2s0,0.5-0.2,0.6L51,49.8c-0.1,0-0.1,0-0.2,0c-0.2,0-0.3-0.1-0.4-0.2C50.3,49.4,50.4,49.2,50.6,49.1z
	 M66.4,61.2l-9.6,4.5c-0.1,0-0.1,0-0.2,0c-0.2,0-0.3-0.1-0.4-0.2c-0.1-0.2,0-0.5,0.2-0.6l9.6-4.5c0.2-0.1,0.5,0,0.6,0.2
	C66.7,60.8,66.6,61.1,66.4,61.2z M69.1,55.7l-15.8,7.3c-0.1,0-0.1,0-0.2,0c-0.2,0-0.3-0.1-0.4-0.2c-0.1-0.2,0-0.5,0.2-0.6L68.8,55
	c0.2-0.1,0.5,0,0.6,0.2C69.4,55.4,69.3,55.6,69.1,55.7z M69.7,50.7l-18.1,8.4c-0.1,0-0.1,0-0.2,0c-0.2,0-0.3-0.1-0.4-0.2
	c-0.1-0.2,0-0.5,0.2-0.6l18.1-8.4c0.2-0.1,0.5,0,0.6,0.2C69.9,50.4,69.9,50.6,69.7,50.7z M70.8,45.3l-20.5,9.5c-0.1,0-0.1,0-0.2,0
	c-0.2,0-0.3-0.1-0.4-0.2c-0.1-0.2,0-0.5,0.2-0.6l20.5-9.5c0.2-0.1,0.5,0,0.6,0.2C71.1,45,71,45.2,70.8,45.3z"/>
<path class="st1" d="M103.5,31.3C98.6,20.7,89,15.1,81.7,18.5c0,0,0,0,0,0l-17.5,8.2c-2.8-0.6-5.5-0.4-8,0.8l0,0l0,0c0,0,0,0,0,0
	l-43,20.1c-4,1.9-6.7,5.9-7.5,11.3C4.9,64,5.9,69.8,8.4,75.2c4.4,9.4,12.1,15.3,19.2,15.3c1.7,0,3.4-0.3,5-1.1l0,0l43-20.1l0,0l0,0
	l0,0c0,0,0,0,0,0c2.1-1,3.8-2.5,5.1-4.5l18.5-8.7l0,0l0,0l0,0l0,0C106.5,52.8,108.4,41.8,103.5,31.3z M44.2,54.8
	c0.9-0.4,2.1,0.1,2.7,1.3c0.5,1.1,0.2,2.4-0.7,2.8c-0.9,0.4-2.1-0.1-2.7-1.3C43,56.5,43.3,55.2,44.2,54.8z M52.1,76.3l-15.9,7.5
	c-0.1,0.1-0.2,0.1-0.4,0.1c-0.3,0-0.6-0.2-0.8-0.5c-0.2-0.4,0-0.9,0.4-1.1l15.9-7.5c0.4-0.2,0.9,0,1.1,0.4
	C52.7,75.6,52.5,76.1,52.1,76.3z M61.8,71.8l-5.4,2.5c-0.1,0.1-0.2,0.1-0.3,0.1c-0.3,0-0.6-0.2-0.8-0.5c-0.2-0.4,0-0.9,0.4-1.1
	l5.4-2.5c0.4-0.2,0.9,0,1.1,0.4C62.3,71.2,62.2,71.7,61.8,71.8z M64.4,64.3c-3.2-2-6.2-5.2-8.3-9.2c-0.3-0.6-0.6-1.1-0.9-1.7
	c-2.2-4.7-3.1-9.7-2.4-14c0.1-0.5,0.2-1,0.3-1.4c0-0.2,0.1-0.3,0.2-0.5c0.1-0.3,0.2-0.5,0.2-0.8c0.1-0.2,0.1-0.3,0.2-0.5
	c0.1-0.2,0.2-0.5,0.3-0.7c0.1-0.2,0.2-0.3,0.2-0.5c0.1-0.2,0.2-0.4,0.3-0.6c0.1-0.1,0.2-0.3,0.3-0.4c0.1-0.2,0.3-0.4,0.4-0.6
	c0.1-0.1,0.2-0.2,0.3-0.3c0.2-0.2,0.3-0.3,0.5-0.5c0.1-0.1,0.3-0.2,0.4-0.3c0.2-0.1,0.3-0.3,0.5-0.4c0.1-0.1,0.3-0.2,0.4-0.2
	c0.2-0.1,0.3-0.2,0.5-0.3c1-0.5,2-0.7,3.2-0.7c1,0,2.1,0.2,3.2,0.5l-1.7,0.8c-0.2,0.1-0.3,0.3-0.2,0.6c0.1,0.2,0.2,0.2,0.4,0.2
	c0.1,0,0.1,0,0.2,0l2.4-1.1c4.3,1.8,8.6,6.2,11.2,11.9c2.2,4.7,3.1,9.7,2.4,14c-0.2,1.7-0.7,3.2-1.4,4.4l-3,1.4
	c-0.2,0.1-0.3,0.3-0.2,0.6c0.1,0.2,0.2,0.2,0.4,0.2c0.1,0,0.1,0,0.2,0l1.8-0.8c-0.8,1.1-1.8,1.9-2.9,2.4
	C71.2,66.9,67.8,66.4,64.4,64.3z M97.7,52.8c-2.4,1.1-5.5,0.7-8.6-1.2c-3.3-2.1-6.3-5.5-8.2-9.8s-2.8-8.7-2.2-12.6
	c0.1-0.5,0.2-0.9,0.2-1.3c0-0.1,0.1-0.3,0.1-0.4c0.1-0.3,0.1-0.5,0.2-0.8c0.1-0.2,0.1-0.3,0.2-0.5c0.1-0.2,0.2-0.4,0.3-0.6
	c0.1-0.1,0.2-0.3,0.2-0.4c0.1-0.2,0.2-0.4,0.3-0.6c0.1-0.1,0.2-0.3,0.3-0.4c0.1-0.2,0.2-0.3,0.3-0.5c0.1-0.1,0.2-0.2,0.3-0.3
	c0.1-0.1,0.2-0.3,0.4-0.4c0.1-0.1,0.2-0.2,0.4-0.3c0.1-0.1,0.3-0.2,0.4-0.3c0.1-0.1,0.3-0.1,0.4-0.2c0.2-0.1,0.3-0.2,0.5-0.3
	c0.9-0.4,1.8-0.6,2.8-0.6c1.5,0,3.2,0.5,4.8,1.3c-0.2,0.1-0.3,0.4-0.2,0.6c0.1,0.1,0.2,0.2,0.4,0.2c0.1,0,0.1,0,0.2,0l0.5-0.2
	c3.2,2,6.2,5.4,8.3,9.8c0.6,1.3,1.1,2.6,1.4,4l-1,0.5c-0.2,0.1-0.3,0.3-0.2,0.6c0.1,0.2,0.2,0.2,0.4,0.2c0.1,0,0.1,0,0.2,0l0.9-0.4
	c0.7,2.8,0.8,5.6,0.4,8l-1.2,0.5c-0.2,0.1-0.3,0.3-0.2,0.6c0.1,0.2,0.2,0.2,0.4,0.2c0.1,0,0.1,0,0.2,0l0.6-0.3
	C101.4,49.5,99.9,51.7,97.7,52.8z"/>
<path class="st0" d="M46.9,56c-0.3-0.6-1-0.9-1.7-0.6l-6.5,3.1v-9.6c0-0.8-0.9-1.4-1.6-1l-5.1,2.3c-1,0.5-1.7,1.5-1.7,2.7v9.7
	l-1.4,0.7c-0.6,0.3-0.9,1-0.6,1.7c0.2,0.4,0.7,0.7,1.1,0.7c0.2,0,0.4,0,0.5-0.1l16.4-7.9C46.9,57.3,47.2,56.6,46.9,56z"/>
</svg>
