<svg id="d2efe06a-118a-4bd1-bffc-555a71aa1f61" data-name="Calque 1" xmlns="http://www.w3.org/2000/svg" viewBox="0 0 113.39 113.39"><defs><style>.\30 bc1cea9-e577-42f3-b824-9407b024dac9{fill:#f02429}.\31 69461ba-e426-4827-9548-eca079e7acec{fill:#494c53}</style></defs><title>olsx-pic</title><path class="0bc1cea9-e577-42f3-b824-9407b024dac9" d="M59.98 78.24l12.73-6.99v-4l-12.73 6.99v4zm0-7.17l12.73-6.99v-2.34l-2.62-.22-10.11 5.55v4zm0 10.34v2.61l2.99-.25 7.52-4.13 1.34 2.43-2.04 1.12 2.92-.25v-8.52l-12.73 6.99zm5.11-20.31l-5.11-.43v3.23l5.11-2.8z"/><path class="169461ba-e426-4827-9548-eca079e7acec" d="M63.2 45.78l6.03-5.66v-3.13h-1.2l-4.83 4.53v4.26zm0 7.17l6.03-5.66v-4.26l-6.03 5.66v4.26zm6.03 1.51V50.2l-6.03 5.66v2.33h2.05l3.98-3.73zm-4.31-17.47H63.2v1.62l1.72-1.62zm3.44 21.2h.87v-.82l-.87.82z"/><path class="0bc1cea9-e577-42f3-b824-9407b024dac9" d="M27.13 82.57l15.27-4.45v-2.89l-15.27 4.45v2.89zm0-4.81l15.27-4.45v-2.89l-15.27 4.45v2.89zm0-4.82l15.27-4.45V65.6l-15.27 4.45v2.89zm0 14.45l15.27-4.45v-2.89L27.13 84.5v2.89zm0 4.82l15.27-4.45v-2.89l-15.27 4.45v2.89zm0 4.81l15.27-4.44v-2.89l-15.27 4.44v2.89zm4.64.58H42.4v-3.1l-10.63 3.1zm-4.64-43.93l15.27-4.45v-2.44l-.28.02-14.99 4.36v2.51zm6.9-6.44l-6.9.36v1.65l6.9-2.01zm-6.9 20.89l15.27-4.45v-2.89l-15.27 4.45v2.89zm0-9.63l15.27-4.45v-2.89L27.13 55.6v2.89zm0 4.81l15.27-4.44v-2.89l-15.27 4.45v2.88z"/><path class="169461ba-e426-4827-9548-eca079e7acec" d="M43.78 54.6h5.15v36.34h-5.15zm6.33-38.82h11.8v75.16h-11.8zM22.04 54.6h3.71v36.34h-3.71z"/><path class="169461ba-e426-4827-9548-eca079e7acec" d="M18.48 66.86h3.71v11.82h-3.71zm23.96-41.35v-.92l-2.04-.2 2.04 1.12zm-9.05-1.8l-3.68-.35v2.33l12.73 6.99v-4l-9.05-4.97zm9.05 12.14l-12.73-6.99v4l12.73 6.99v-4zm-12.73.18v4l7.16 3.93 5.57-.47v-.47l-12.73-6.99zm0 7.17v1.35l2.15-.18-2.15-1.17zm-.53 1.35l-2.12-.31V23.67l2.12-.31v21.19zm16.04-28.77h3.71v36.34h-3.71z"/><path class="169461ba-e426-4827-9548-eca079e7acec" d="M42.4 32.1h29.05v3.71H42.4z"/><path class="0bc1cea9-e577-42f3-b824-9407b024dac9" d="M42.4 70.92h7.71v3.71H42.4zm-37.07 0a1.85 1.85 0 0 0-1.85 1.85h9a.46.46 0 0 1 0 .93H3.73a1.85 1.85 0 0 0 1.6.94H18v-3.72H5.33z"/><path class="169461ba-e426-4827-9548-eca079e7acec" d="M97.37 88.9H77.94a7.67 7.67 0 0 1-7.66-7.66v-48a7.67 7.67 0 0 1 7.66-7.66h19.43a7.67 7.67 0 0 1 7.63 7.65v48a7.67 7.67 0 0 1-7.63 7.67zm-19.43-61a5.34 5.34 0 0 0-5.33 5.33v48a5.34 5.34 0 0 0 5.33 5.33h19.43a5.34 5.34 0 0 0 5.33-5.33v-48a5.34 5.34 0 0 0-5.33-5.33H77.94z"/><path class="169461ba-e426-4827-9548-eca079e7acec" d="M86.55 33h-4.82a3.92 3.92 0 0 0 0 7.83h.9v7.87a3.91 3.91 0 0 0-1.9 3.3l-.07 9.26A3.92 3.92 0 0 0 78.1 65v12.65a3.92 3.92 0 1 0 7.83 0v-9A3.92 3.92 0 0 0 88.47 65l.07-9.56a3.91 3.91 0 0 0 1.93-3.37v-15.2A3.92 3.92 0 0 0 86.55 33zm2.24 19.1a2.24 2.24 0 0 1-1.92 2.22L86.79 65a2.24 2.24 0 0 1-2.24 2.22h-.3v10.43a2.24 2.24 0 0 1-4.48 0V65A2.24 2.24 0 0 1 82 62.72h.32L82.41 52a2.24 2.24 0 0 1 1.9-2.2V39.11h-2.58a2.24 2.24 0 1 1 0-4.48h4.82a2.24 2.24 0 0 1 2.24 2.24v15.18z"/><path class="169461ba-e426-4827-9548-eca079e7acec" d="M82 78.77a1.12 1.12 0 0 1-1.12-1.12V65A1.12 1.12 0 0 1 82 63.84h1.43L83.52 52a1.12 1.12 0 0 1 1.12-1.11h.78V38h-3.7a1.12 1.12 0 0 1 0-2.24h4.82a1.12 1.12 0 0 1 1.12 1.12v15.17a1.12 1.12 0 0 1-1.12 1.12h-.78L85.67 65a1.12 1.12 0 0 1-1.12 1.11h-1.42v11.54A1.12 1.12 0 0 1 82 78.77zm13.68-43.86a2.34 2.34 0 0 1 .89.15 1.68 1.68 0 0 1 .6.4 1.55 1.55 0 0 1 .34.57 2.14 2.14 0 0 1 0 1.33 1.54 1.54 0 0 1-.34.58 1.67 1.67 0 0 1-.6.4 2.34 2.34 0 0 1-.89.15h-1.29v2h-1.23v-5.58h2.52zm-.34 2.63a2.55 2.55 0 0 0 .41 0 .94.94 0 0 0 .34-.12.66.66 0 0 0 .24-.25 1.08 1.08 0 0 0 0-.86.66.66 0 0 0-.23-.31.94.94 0 0 0-.34-.12 2.55 2.55 0 0 0-.41 0h-1v1.68h1zm.66 10.8a1.8 1.8 0 0 1 .68.12 1.57 1.57 0 0 1 .52.33 1.45 1.45 0 0 1 .33.49 1.58 1.58 0 0 1 .11.6 1.68 1.68 0 0 1-.21.85 1.3 1.3 0 0 1-.68.55 1 1 0 0 1 .38.19 1.05 1.05 0 0 1 .24.31 1.41 1.41 0 0 1 .14.39 3.3 3.3 0 0 1 .06.42v.68a2.34 2.34 0 0 0 .06.36.81.81 0 0 0 .13.29h-1.23a2.15 2.15 0 0 1-.12-.63q0-.37-.07-.71a1.11 1.11 0 0 0-.27-.64.92.92 0 0 0-.67-.2h-1.23v2.19h-1.23v-5.59h3zm-.44 2.53a.93.93 0 0 0 .63-.19.78.78 0 0 0 .21-.61.75.75 0 0 0-.21-.59.94.94 0 0 0-.63-.18h-1.39v1.57h1.35zm-1.47 10.9l2.33 3.75v-3.75h1.15v5.59h-1.21L94 63.62v3.74h-1.13v-5.59h1.22z"/><path class="0bc1cea9-e577-42f3-b824-9407b024dac9" d="M95.28 75.19a2.89 2.89 0 0 1 1 .17 2.19 2.19 0 0 1 .81.52 2.4 2.4 0 0 1 .53.86 3.48 3.48 0 0 1 .2 1.26 3.87 3.87 0 0 1-.16 1.13 2.49 2.49 0 0 1-.47.89 2.23 2.23 0 0 1-.79.59 2.68 2.68 0 0 1-1.12.22h-2.41v-5.64h2.41zm-.08 4.56a1.58 1.58 0 0 0 .52-.09 1.15 1.15 0 0 0 .45-.29 1.43 1.43 0 0 0 .31-.52 2.3 2.3 0 0 0 .12-.78 3.27 3.27 0 0 0-.08-.76 1.51 1.51 0 0 0-.27-.58 1.2 1.2 0 0 0-.5-.37 2 2 0 0 0-.75-.13h-.9v3.52h1.1z"/></svg>