<?xml version="1.0" encoding="utf-8"?>
<!-- Generator: Adobe Illustrator 25.0.1, SVG Export Plug-In . SVG Version: 6.00 Build 0)  -->
<svg version="1.1" id="Layer_1" xmlns="http://www.w3.org/2000/svg" xmlns:xlink="http://www.w3.org/1999/xlink" x="0px" y="0px"
	 viewBox="0 0 141.7 141.7" style="enable-background:new 0 0 141.7 141.7;" xml:space="preserve">
<style type="text/css">
	.st0{fill-rule:evenodd;clip-rule:evenodd;fill:#242B38;}
	.st1{fill:#242B38;}
	.st2{fill:#F02429;}
</style>
<g id="Layer_1_1_">
	<path class="st0" d="M96.8,105l12.7-12.7h4.9v5.8h16.8v-47h-16.5v7.6h-3.2v-7.6H96.8l-9.1-9.2h-20V38h14.6c1.8,0,3.2-1.4,3.2-3.2
		l0,0l0,0c0-1.8-1.4-3.2-3.2-3.2H47c-1.8,0-3.2,1.5-3.2,3.2l0,0c0,1.8,1.4,3.2,3.2,3.2l0,0h14.6v3.9H41.7l-7,12.1H21.6v16.6H17V56
		c0-1.8-1.4-3.2-3.2-3.2l0,0l0,0c-1.8,0-3.2,1.4-3.2,3.2v35.4c0,1.8,1.5,3.2,3.2,3.2l0,0c1.8,0,3.2-1.4,3.2-3.2l0,0V76.8h4.6V105
		H96.8z M26.8,99.8V59.2h10.9l0.7-1.3L44.7,47h40.8l8.3,8.5l0.8,0.8h11.6v7.6h13.6v-7.5h6.2V93h-6.5v-5.8h-12.1l-0.8,0.8L94.7,99.9
		L26.8,99.8z"/>
</g>
<path class="st1" d="M74.8,77c1.9,2.3,2.9,5.2,2.9,8.1c0,7.2-5.9,13-13,13s-13-5.9-13-13c0-2.9,1-5.7,2.8-8V61.9
	c-0.2-5.6,4.2-10.3,9.8-10.5s10.3,4.2,10.5,9.8c0,0.2,0,0.4,0,0.6V77z M71.9,85.1c0-2.3-1.1-4.4-2.9-5.8V61.9
	c0.1-2.4-1.7-4.4-4.1-4.6c-2.4-0.1-4.4,1.7-4.6,4.1c0,0.1,0,0.3,0,0.4v17.4c-3.2,2.4-3.8,7-1.4,10.1s7,3.8,10.1,1.4
	C70.8,89.5,71.9,87.4,71.9,85.1L71.9,85.1z"/>
<path class="st1" d="M81.5,52.5c-2.2,0-4.1,1.8-4.1,4s1.8,4.1,4,4.1s4.1-1.8,4.1-4l0,0C85.5,54.3,83.7,52.5,81.5,52.5z M81.5,57.9
	c-0.7,0-1.4-0.6-1.4-1.3s0.6-1.4,1.3-1.4c0.7,0,1.4,0.6,1.4,1.3l0,0C82.9,57.3,82.3,57.9,81.5,57.9L81.5,57.9L81.5,57.9z"/>
<path class="st2" d="M69,85.1c0,2.4-1.9,4.4-4.3,4.4s-4.4-1.9-4.4-4.3c0-1.9,1.2-3.5,2.9-4.1V61.9c0-0.8,0.6-1.5,1.4-1.5
	s1.5,0.6,1.5,1.5V81C67.8,81.6,69,83.3,69,85.1z"/>
<g>
	<g>
		<g>
			<path class="st2" d="M92.1,64.2c-5.1,0-9.3,4.1-9.3,9.3s4.1,9.3,9.3,9.3s9.3-4.1,9.3-9.3S97.3,64.2,92.1,64.2z M97.1,72.1
				l-4.8,4.8l-0.9,0.9C91.3,77.9,91.1,78,91,78c-0.2,0-0.3-0.1-0.4-0.2l-0.9-0.9l-2.4-2.4C87.1,74.4,87,74.2,87,74s0.1-0.3,0.2-0.4
				l0.9-0.9c0.1-0.1,0.3-0.2,0.4-0.2c0.2,0,0.3,0.1,0.4,0.2l1.9,1.9l4.3-4.3c0.1-0.1,0.3-0.2,0.4-0.2c0.2,0,0.3,0.1,0.4,0.2l0.9,0.9
				l0,0c0.1,0.1,0.2,0.3,0.2,0.4C97.3,71.8,97.2,72,97.1,72.1z"/>
		</g>
	</g>
</g>
</svg>
