<?xml version="1.0" encoding="utf-8"?>
<!-- Generator: Adobe Illustrator 25.0.1, SVG Export Plug-In . SVG Version: 6.00 Build 0)  -->
<svg version="1.1" id="_x38_e5c5a87-3e28-4edc-bd51-de1b0bf3dcb4"
	 xmlns="http://www.w3.org/2000/svg" xmlns:xlink="http://www.w3.org/1999/xlink" x="0px" y="0px" viewBox="0 0 113.4 113.4"
	 style="enable-background:new 0 0 113.4 113.4;" xml:space="preserve">
<style type="text/css">
	.st0{fill:#242B38;}
	.st1{fill:#F02429;}
</style>
<path class="st0" d="M79.7,47.4L77,51.4c1,1.1,2,2.2,2.8,3.5l2.7-3.9C81.6,49.7,80.7,48.5,79.7,47.4z"/>
<path class="st0" d="M72.9,42.2l-2.7,3.9c1.2,0.7,2.4,1.6,3.5,2.4l2.7-3.9C75.3,43.7,74.1,42.9,72.9,42.2z"/>
<path class="st0" d="M84.7,55.2L82,59.2c0.9,1.3,2.3,2,3.9,1.9l2.7-3.9C87,57.2,85.5,56.5,84.7,55.2z"/>
<path class="st0" d="M99.7,48.1l-2.7,3.9c1.9-0.6,3.8-0.9,5.7-0.8l2.7-3.9C103.5,47.3,101.6,47.6,99.7,48.1z"/>
<path class="st0" d="M91.7,60c1.9-0.6,3.8-0.9,5.7-0.8l2.7-3.9c-1.9,0-3.9,0.3-5.7,0.8L91.7,60z"/>
<path class="st0" d="M88.5,57.1c2-0.1,4-0.5,5.9-1.1l2.7-3.9c-1.9,0.6-3.9,1-5.9,1.1L88.5,57.1z"/>
<path class="st0" d="M86.6,49.8c-0.4-1-0.9-1.9-1.5-2.8l-2.7,3.9c0.6,0.9,1.1,1.9,1.5,2.9c0.2,0.5,0.4,1,0.8,1.5l2.7-3.9
	C87,50.9,86.7,50.4,86.6,49.8z"/>
<path class="st0" d="M79.1,40.6l-2.7,3.9c1.1,0.9,2.2,1.8,3.2,2.9l2.7-3.9C81.3,42.5,80.2,41.5,79.1,40.6z"/>
<path class="st0" d="M85.1,47l2.7-4C87,41.8,86,40.6,85,39.5l-2.7,3.9C83.4,44.6,84.3,45.7,85.1,47z"/>
<path class="st0" d="M91.2,53.2l2.7-3.9c-1.5,0.1-3-0.6-3.9-1.9l-2.7,3.9C88.2,52.6,89.7,53.3,91.2,53.2z"/>
<path class="st0" d="M81.8,36.7c-1.1-0.9-2.3-1.7-3.5-2.4l-2.7,3.9c1.2,0.7,2.4,1.6,3.5,2.4L81.8,36.7z"/>
<path class="st0" d="M112.3,44.9c-2.7-3-6.7-1.9-10.5-0.9c-4.3,1.1-7.9,2.1-9.6-2.2c-2.8-7.2-11-11.9-13.9-13.4l0.9-1.4
	c0.3-0.5,0.2-1.1-0.3-1.4c-0.5-0.3-1.1-0.2-1.4,0.3L56.7,56.7L35.9,25.9c-0.3-0.5-1-0.6-1.4-0.3c-0.5,0.3-0.6,1-0.3,1.4l0.9,1.4
	c-2.9,1.5-11.2,6.2-13.9,13.4c-1.6,4.3-5.3,3.3-9.6,2.2c-3.8-1-7.8-2.1-10.5,0.9l-0.2,0.2l13.7,20.3l0.3-0.3
	c2.4-2.7,6.2-1.7,9.8-0.7c4.2,1.1,8.5,2.2,10.4-2.6c2.7-7,10.9-11.7,13.7-13.1l6.6,9.8l-16.3,24c-0.3,0.5-0.2,1.1,0.3,1.4
	c0.5,0.3,1.1,0.2,1.4-0.3l15.8-23.4l15.8,23.4c0.3,0.5,1,0.6,1.4,0.3c0.5-0.3,0.6-1,0.3-1.4l-16.3-24l6.6-9.8
	c2.7,1.4,11,6.1,13.7,13.1c1.8,4.8,6.2,3.7,10.4,2.6c3.7-1,7.4-2,9.8,0.7l0.3,0.3l13.7-20.3L112.3,44.9z M45.6,49.7
	c-1.2,0.7-2.4,1.5-3.5,2.4l-2.5-3.7c-1.1,0.9-2.2,1.8-3.2,2.9l2.5,3.6c-1,1.1-2,2.2-2.8,3.5l-2.5-3.6c-0.6,0.9-1.1,1.9-1.5,2.9
	c-0.2,0.5-0.4,1-0.8,1.5l2.5,3.6c-0.8,1.3-2.3,2-3.9,1.9l-2.4-3.6c-2-0.1-4-0.5-5.9-1.1l2.4,3.5c-1.6-0.5-3.2-0.7-4.9-0.8
	c-0.3,0-0.5,0-0.8,0l-2.4-3.6c-1.4,0.1-2.7,0.6-3.7,1.6l-2.6-3.9c1-1,2.3-1.5,3.7-1.6l-2.7-3.9c-1.4,0.1-2.7,0.6-3.7,1.6l-2.7-3.9
	c1-1,2.3-1.5,3.7-1.6l-2.5-3.6c2,0.1,3.9,0.4,5.8,1l2.4,3.5c1.9,0.6,3.9,1,5.9,1.1l-2.4-3.6c1.5,0,2.9-0.7,3.9-1.9l2.5,3.6
	c0.3-0.5,0.6-0.9,0.8-1.5c0.4-1,0.9-2,1.5-2.9l-2.5-3.6c0.8-1.3,1.7-2.4,2.8-3.5l2.5,3.6c1-1,2.1-2,3.2-2.9L29.1,33
	c1.1-0.9,2.3-1.7,3.5-2.4l2.5,3.6c1.2-0.7,2.2-1.2,2.8-1.6l2.7,3.9c-0.7,0.3-1.7,0.9-2.8,1.6l2.7,3.9c1.2-0.7,2.2-1.2,2.8-1.6l2.7,4
	c-0.7,0.3-1.7,0.9-2.8,1.6L45.6,49.7z M106.5,52.8c-1-1-2.3-1.5-3.7-1.6l-2.7,3.9c1.4,0.1,2.7,0.6,3.7,1.6l-2.7,3.9
	c-1-1-2.3-1.5-3.7-1.6L95,62.7c-1.9-0.1-3.8,0.2-5.7,0.8l2.4-3.5c-1.9,0.6-3.9,1-5.9,1.1l-2.4,3.6c-1.5,0.1-3-0.6-3.9-1.9l2.5-3.6
	c-0.3-0.5-0.6-0.9-0.8-1.5c-0.4-1-0.9-2-1.5-2.9l-2.5,3.6c-0.8-1.3-1.7-2.4-2.8-3.5l2.5-3.6c-1-1-2.1-2-3.2-2.9l-2.5,3.7
	c-1.1-0.9-2.3-1.7-3.5-2.4l2.5-3.7c-1.2-0.7-2.2-1.2-2.8-1.6l2.7-3.9c0.7,0.3,1.7,0.9,2.8,1.6l2.7-3.9c-1.2-0.7-2.2-1.2-2.8-1.6
	l2.7-3.9c0.7,0.3,1.7,0.9,2.8,1.6l2.5-3.6c1.2,0.7,2.4,1.5,3.5,2.4l-2.5,3.7c1.1,0.9,2.2,1.9,3.2,2.9l2.5-3.6c1,1.1,2,2.2,2.8,3.5
	L87.8,43c0.6,0.9,1.1,1.9,1.5,2.9c0.2,0.5,0.5,1,0.8,1.5l2.5-3.6c0.9,1.2,2.3,1.9,3.8,1.9l-2.4,3.6c2-0.1,4-0.5,5.9-1.1l2.4-3.5
	c1.9-0.6,3.8-0.9,5.8-1l-2.4,3.6c1.4,0.1,2.7,0.6,3.7,1.6L106.5,52.8z"/>
<path class="st0" d="M31,50.9l2.7,3.9c0.8-1.3,1.7-2.4,2.8-3.5l-2.7-3.9C32.7,48.5,31.8,49.7,31,50.9z"/>
<path class="st0" d="M37,44.6l2.7,3.9c1.1-0.9,2.3-1.7,3.5-2.4l-2.7-3.9C39.3,42.9,38.1,43.7,37,44.6z"/>
<path class="st0" d="M24.9,57.1l2.7,3.9c1.5,0.1,3-0.6,3.9-1.9l-2.7-3.9C27.9,56.5,26.4,57.2,24.9,57.1z"/>
<path class="st0" d="M13.6,48.1c-1.9-0.6-3.8-0.9-5.7-0.8l2.7,3.9c1.9,0,3.9,0.3,5.7,0.8L13.6,48.1z"/>
<path class="st0" d="M13.3,55.2l2.7,3.9c1.9,0,3.9,0.3,5.7,0.8L19,56C17.1,55.4,15.2,55.1,13.3,55.2z"/>
<path class="st0" d="M16.3,52.1L19,56c1.9,0.6,3.9,1,5.9,1.1l-2.7-3.9C20.2,53.1,18.2,52.7,16.3,52.1z"/>
<path class="st0" d="M26.8,49.8c-0.2,0.5-0.4,1-0.8,1.5l2.7,3.9c0.3-0.5,0.6-0.9,0.8-1.5c0.4-1,0.9-2,1.5-2.9L28.3,47
	C27.7,47.9,27.2,48.8,26.8,49.8z"/>
<path class="st0" d="M31.1,43.5l2.7,3.9c1-1,2.1-2,3.3-2.8l-2.7-3.9C33.2,41.5,32.1,42.5,31.1,43.5z"/>
<path class="st0" d="M31.1,43.5l-2.7-3.9c-1,1.1-2,2.2-2.8,3.5l2.7,4C29.1,45.7,30,44.6,31.1,43.5z"/>
<path class="st0" d="M26.1,51.3l-2.7-3.9c-0.9,1.3-2.3,2-3.9,1.9l2.7,3.9C23.7,53.3,25.2,52.6,26.1,51.3z"/>
<path class="st0" d="M37.8,38.2l-2.7-3.9c-1.2,0.7-2.4,1.6-3.5,2.4l2.7,3.9C35.4,39.8,36.6,39,37.8,38.2z"/>
<path class="st1" d="M32.7,93.2c-0.1-0.2-0.3-0.3-0.4-0.5c-0.2-0.1-0.4-0.3-0.6-0.3c-0.2-0.1-0.4-0.1-0.7-0.1
	c-0.4,0-0.8,0.1-1.1,0.2c-0.3,0.2-0.6,0.4-0.7,0.7c-0.2,0.3-0.3,0.6-0.4,1c-0.1,0.4-0.1,0.7-0.1,1.1c0,0.4,0,0.7,0.1,1.1
	c0.1,0.3,0.2,0.7,0.4,0.9c0.2,0.3,0.4,0.5,0.7,0.7c0.3,0.2,0.7,0.3,1.1,0.2c0.5,0,1-0.2,1.4-0.5c0.4-0.4,0.6-0.9,0.6-1.4h1.9
	c0,0.5-0.2,1-0.4,1.5c-0.2,0.4-0.5,0.8-0.8,1.1c-0.3,0.3-0.7,0.6-1.2,0.7c-0.5,0.2-1,0.2-1.5,0.2c-0.6,0-1.2-0.1-1.8-0.3
	c-0.5-0.2-1-0.6-1.4-1C27.5,98,27.2,97.5,27,97c-0.2-0.6-0.3-1.2-0.3-1.8c0-0.6,0.1-1.2,0.3-1.8c0.2-0.5,0.5-1,0.8-1.4
	c0.4-0.4,0.8-0.8,1.4-1c1-0.4,2.1-0.5,3.2-0.2c0.4,0.1,0.8,0.3,1.2,0.6c0.3,0.3,0.6,0.6,0.8,1c0.2,0.4,0.4,0.9,0.4,1.3h-1.9
	C32.9,93.6,32.8,93.4,32.7,93.2z"/>
<path class="st1" d="M36.1,93.4c0.2-0.5,0.5-1,0.8-1.4c0.4-0.4,0.8-0.8,1.4-1c1.2-0.5,2.5-0.5,3.6,0c0.5,0.2,1,0.6,1.3,1
	c0.4,0.4,0.7,0.9,0.8,1.5c0.2,0.6,0.3,1.2,0.3,1.8c0,0.6-0.1,1.2-0.3,1.7c-0.2,0.5-0.5,1-0.8,1.4c-0.4,0.4-0.8,0.8-1.3,1
	c-1.2,0.5-2.5,0.5-3.6,0c-0.5-0.2-1-0.6-1.4-1c-0.4-0.4-0.7-0.9-0.8-1.4c-0.2-0.6-0.3-1.2-0.3-1.8C35.8,94.6,35.9,94,36.1,93.4z
	 M37.8,96.3c0.1,0.3,0.2,0.7,0.4,0.9c0.2,0.3,0.4,0.5,0.7,0.7c0.7,0.3,1.5,0.3,2.2,0c0.3-0.2,0.6-0.4,0.7-0.7
	c0.2-0.3,0.3-0.6,0.4-0.9c0.1-0.4,0.1-0.7,0.1-1.1c0-0.4,0-0.8-0.1-1.1c-0.1-0.4-0.2-0.7-0.4-1c-0.2-0.3-0.4-0.5-0.7-0.7
	c-0.7-0.3-1.5-0.3-2.2,0c-0.3,0.2-0.6,0.4-0.7,0.7c-0.2,0.3-0.3,0.6-0.4,1c-0.1,0.4-0.1,0.7-0.1,1.1C37.7,95.6,37.8,96,37.8,96.3z"
	/>
<path class="st1" d="M47.6,90.8l3.7,5.9l0,0v-5.9h1.8v8.8h-1.9l-3.7-5.9l0,0v5.9h-1.8v-8.8C45.7,90.8,47.6,90.8,47.6,90.8z"/>
<path class="st1" d="M54.1,92.5v-1.6h7.2v1.6h-2.6v7.2h-1.9v-7.2H54.1z"/>
<path class="st1" d="M67,90.8c0.4,0,0.7,0.1,1.1,0.2c0.3,0.1,0.6,0.3,0.8,0.5c0.2,0.2,0.4,0.5,0.5,0.8c0.1,0.3,0.2,0.6,0.2,0.9
	c0,0.5-0.1,0.9-0.3,1.3c-0.2,0.4-0.6,0.7-1.1,0.9l0,0c0.2,0.1,0.4,0.2,0.6,0.3c0.2,0.1,0.3,0.3,0.4,0.5c0.1,0.2,0.2,0.4,0.2,0.6
	c0,0.2,0.1,0.4,0.1,0.7c0,0.1,0,0.3,0,0.5s0,0.4,0,0.6c0,0.2,0.1,0.4,0.1,0.6c0,0.2,0.1,0.3,0.2,0.4h-1.8c-0.1-0.3-0.2-0.7-0.2-1
	c0-0.4-0.1-0.8-0.1-1.1c0-0.4-0.2-0.7-0.4-1c-0.3-0.2-0.6-0.3-1-0.3h-2v3.4h-1.9v-8.8H67z M66.3,94.8c0.4,0,0.7-0.1,1-0.3
	c0.3-0.3,0.4-0.6,0.3-1c0-0.3-0.1-0.7-0.3-0.9c-0.3-0.2-0.6-0.3-1-0.3h-2.1v2.5L66.3,94.8L66.3,94.8z"/>
<path class="st1" d="M71.1,93.4c0.2-0.5,0.5-1,0.8-1.4c0.4-0.4,0.8-0.8,1.4-1c1.2-0.5,2.5-0.5,3.6,0c0.5,0.2,1,0.6,1.3,1
	c0.4,0.4,0.7,0.9,0.8,1.5c0.2,0.6,0.3,1.2,0.3,1.8c0,0.6-0.1,1.2-0.3,1.7c-0.2,0.5-0.5,1-0.8,1.4c-0.4,0.4-0.8,0.8-1.3,1
	c-1.2,0.5-2.5,0.5-3.6,0c-0.5-0.2-1-0.6-1.4-1c-0.4-0.4-0.7-0.9-0.8-1.4c-0.2-0.6-0.3-1.2-0.3-1.8C70.8,94.6,70.9,94,71.1,93.4z
	 M72.9,96.3c0.1,0.3,0.2,0.7,0.4,0.9c0.2,0.3,0.4,0.5,0.7,0.7c0.7,0.3,1.5,0.3,2.2,0c0.3-0.2,0.6-0.4,0.8-0.7
	c0.2-0.3,0.3-0.6,0.4-0.9c0.1-0.4,0.1-0.7,0.1-1.1c0-0.4,0-0.8-0.1-1.1c-0.1-0.4-0.2-0.7-0.4-1c-0.2-0.3-0.4-0.5-0.7-0.7
	c-0.7-0.3-1.5-0.3-2.2,0c-0.3,0.2-0.6,0.4-0.7,0.7c-0.2,0.3-0.3,0.6-0.4,1c-0.1,0.4-0.1,0.7-0.1,1.1C72.8,95.6,72.8,96,72.9,96.3z"
	/>
<path class="st1" d="M82.7,90.8V98h4.3v1.6h-6.2v-8.8H82.7z"/>
<path class="st0" d="M33.4,8.3v7.1h4.3v1.6h-6.2V8.3H33.4L33.4,8.3z"/>
<path class="st0" d="M43.2,8.3l3.3,8.8h-2l-0.7-2h-3.3l-0.7,2h-1.9l3.3-8.8H43.2L43.2,8.3z M43.3,13.7l-1.1-3.2l0,0L41,13.7H43.3
	L43.3,13.7z"/>
<path class="st0" d="M53.6,16.4c-1.7,1.2-3.9,1.2-5.5,0c-0.7-0.7-1.1-1.7-1-2.6V8.3h1.9v5.4c0,0.2,0,0.5,0.1,0.7
	c0.1,0.4,0.4,0.8,0.8,1c0.3,0.1,0.6,0.2,0.9,0.2c0.5,0.1,1-0.1,1.4-0.5c0.3-0.4,0.4-0.9,0.4-1.4V8.3h1.9v5.4
	C54.7,14.8,54.3,15.7,53.6,16.4z"/>
<path class="st0" d="M58.2,8.3l3.7,5.9l0,0V8.3h1.8v8.8h-1.9l-3.7-5.9l0,0v5.9h-1.8V8.3H58.2z"/>
<path class="st0" d="M71,10.7c-0.1-0.2-0.3-0.3-0.4-0.5c-0.4-0.3-0.8-0.4-1.3-0.4c-0.4,0-0.8,0.1-1.1,0.2c-0.3,0.2-0.6,0.4-0.7,0.7
	c-0.2,0.3-0.3,0.6-0.4,1c-0.1,0.4-0.1,0.7-0.1,1.1c0,0.4,0,0.7,0.1,1.1c0.1,0.3,0.2,0.7,0.4,0.9c0.2,0.3,0.4,0.5,0.7,0.7
	c0.3,0.2,0.7,0.3,1.1,0.2c0.5,0,1-0.2,1.4-0.5c0.3-0.4,0.6-0.9,0.6-1.4h1.9c0,0.5-0.2,1-0.4,1.5c-0.2,0.4-0.5,0.8-0.8,1.1
	c-0.3,0.3-0.7,0.6-1.2,0.7c-0.5,0.2-1,0.3-1.5,0.2c-0.6,0-1.2-0.1-1.8-0.3c-0.5-0.2-1-0.6-1.4-1c-0.4-0.4-0.7-0.9-0.8-1.4
	C65.1,14,65,13.4,65,12.8c0-0.6,0.1-1.2,0.3-1.8c0.2-0.5,0.5-1,0.8-1.5c0.4-0.4,0.8-0.8,1.4-1c1-0.4,2.1-0.5,3.2-0.1
	c0.4,0.1,0.8,0.3,1.2,0.6c0.3,0.3,0.6,0.6,0.8,1c0.2,0.4,0.4,0.9,0.4,1.4h-1.9C71.2,11.1,71.1,10.9,71,10.7z"/>
<path class="st0" d="M76.4,8.3v3.4H80V8.3h1.9v8.8H80v-3.8h-3.6v3.8h-1.9V8.3H76.4L76.4,8.3z"/>
</svg>
