<?xml version="1.0" encoding="UTF-8" standalone="no"?>
<!-- Generator: Adobe Illustrator 25.0.1, SVG Export Plug-In . SVG Version: 6.00 Build 0)  -->

<svg
   xmlns:dc="http://purl.org/dc/elements/1.1/"
   xmlns:cc="http://creativecommons.org/ns#"
   xmlns:rdf="http://www.w3.org/1999/02/22-rdf-syntax-ns#"
   xmlns:svg="http://www.w3.org/2000/svg"
   xmlns="http://www.w3.org/2000/svg"
   xmlns:sodipodi="http://sodipodi.sourceforge.net/DTD/sodipodi-0.dtd"
   xmlns:inkscape="http://www.inkscape.org/namespaces/inkscape"
   version="1.1"
   id="ad367799-6dc2-4aed-90b0-e3a682731298"
   x="0px"
   y="0px"
   viewBox="0 0 113.4 113.4"
   style="enable-background:new 0 0 113.4 113.4;"
   xml:space="preserve"
   sodipodi:docname="OptionOctaneAdaptation.com.svg"
   inkscape:version="0.92.4 (5da689c313, 2019-01-14)"><metadata
   id="metadata19"><rdf:RDF><cc:Work
       rdf:about=""><dc:format>image/svg+xml</dc:format><dc:type
         rdf:resource="http://purl.org/dc/dcmitype/StillImage" /><dc:title></dc:title></cc:Work></rdf:RDF></metadata><defs
   id="defs17"><pattern
     y="0"
     x="0"
     height="6"
     width="6"
     patternUnits="userSpaceOnUse"
     id="EMFhbasepattern" /></defs><sodipodi:namedview
   pagecolor="#ffffff"
   bordercolor="#666666"
   borderopacity="1"
   objecttolerance="10"
   gridtolerance="10"
   guidetolerance="10"
   inkscape:pageopacity="0"
   inkscape:pageshadow="2"
   inkscape:window-width="1920"
   inkscape:window-height="1009"
   id="namedview15"
   showgrid="false"
   inkscape:zoom="8.3245149"
   inkscape:cx="23.324728"
   inkscape:cy="82.828686"
   inkscape:window-x="-8"
   inkscape:window-y="-8"
   inkscape:window-maximized="1"
   inkscape:current-layer="ad367799-6dc2-4aed-90b0-e3a682731298" />
<style
   type="text/css"
   id="style2">
	.st0{fill:#494C53;}
	.st1{fill:#F02429;}
</style>
<path
   class="st0"
   d="M38.3,69.3c-0.6,0-1.2-0.3-1.6-0.7c-9.7-11.2-8.5-28.1,2.7-37.8s28.1-8.5,37.8,2.7c8.1,9.3,8.7,23,1.6,33.1  c-0.7,1-2,1.2-3,0.5s-1.2-2-0.5-3c7.2-10.1,4.8-24.2-5.3-31.4s-24.2-4.8-31.4,5.3c-6,8.5-5.5,19.9,1.3,27.8c0.8,0.9,0.7,2.3-0.2,3  C39.4,69.1,38.9,69.3,38.3,69.3z"
   id="path4" />
<polygon
   class="st0"
   points="73.3,58.3 69.3,72.3 83.5,68.7 "
   id="polygon6" />



<path
   id="path829"
   d="m 48.066049,37.28873 c -0.213229,0.03782 -0.408307,0.102835 -0.636658,0.220792 -0.18752,0.09678 -0.272205,0.161812 -0.482407,0.36899 -0.226842,0.226838 -0.26616,0.281278 -0.379576,0.518701 -0.07108,0.146689 -0.151225,0.337232 -0.176933,0.427967 -0.04237,0.157275 -0.04536,0.577682 -0.05293,10.36499 l -0.0046,10.201661 h -0.189033 c -0.24801,0 -0.415867,0.03782 -0.630609,0.13913 -0.420408,0.19962 -0.718321,0.675976 -0.718321,1.146287 0,0.597342 0.458216,1.149315 1.04648,1.261223 0.110393,0.01963 2.318288,0.02418 8.052752,0.01963 l 7.901528,-0.0075 0.151224,-0.06048 c 0.538365,-0.216257 0.843838,-0.654809 0.843838,-1.212833 0,-0.559532 -0.31455,-1.007162 -0.843838,-1.209799 -0.108879,-0.03932 -0.226837,-0.0605 -0.421916,-0.06805 l -0.27221,-0.01514 v -5.652807 -5.655829 h 0.449144 c 0.328159,0 0.48392,0.01059 0.577677,0.03782 0.170884,0.04991 0.362945,0.22381 0.45368,0.41133 l 0.06956,0.143666 0.01359,3.956055 c 0.01209,3.650582 0.01664,3.969668 0.05747,4.120893 0.192057,0.716807 0.456698,1.194682 0.911886,1.654407 0.479389,0.480898 1.043458,0.783347 1.739093,0.93155 0.310013,0.06654 0.958772,0.06048 1.291467,-0.0091 1.438151,-0.310009 2.489167,-1.459324 2.654006,-2.903525 0.01963,-0.169375 0.02418,-2.38785 0.01963,-7.435752 l -0.0075,-7.195306 -0.05595,-0.202643 c -0.03022,-0.110394 -0.09224,-0.291864 -0.140639,-0.405285 -0.178442,-0.427966 -0.216251,-0.468797 -1.878217,-2.129249 -1.497132,-1.495619 -1.562158,-1.557623 -1.748165,-1.648358 -0.688076,-0.335722 -1.495618,-0.006 -1.749678,0.715294 -0.07259,0.204156 -0.08318,0.548951 -0.01963,0.760666 0.08469,0.29035 0.155761,0.373526 1.138729,1.364052 l 0.945153,0.949695 -0.426452,0.444603 c -0.869546,0.907355 -1.013213,1.066138 -1.078239,1.206777 -0.09376,0.19357 -0.124002,0.373526 -0.10888,0.601877 0.03327,0.482412 0.41133,0.913405 0.872569,1.001113 0.07259,0.01209 0.486947,0.02573 0.911891,0.02573 h 0.778806 l -0.0047,5.876622 -0.0075,5.881152 -0.06049,0.130053 c -0.12098,0.270696 -0.393185,0.444602 -0.69564,0.446116 -0.310009,0.0031 -0.585241,-0.170884 -0.71378,-0.455189 -0.03932,-0.08922 -0.04237,-0.365962 -0.05747,-4.002935 -0.01209,-3.500866 -0.01813,-3.927323 -0.05595,-4.110307 -0.276741,-1.356489 -1.27029,-2.369701 -2.613175,-2.672151 -0.136102,-0.03327 -0.365962,-0.04841 -0.819642,-0.05747 l -0.629095,-0.01514 -0.01364,-3.289151 -0.01209,-3.289151 -0.05747,-0.176933 C 60.918558,37.954141 60.321217,37.429385 59.528797,37.29026 59.350349,37.25849 48.253429,37.25849 48.065909,37.28866 Z m 9.711696,2.570835 c 0.335723,0.062 0.654804,0.317572 0.812079,0.647244 l 0.08015,0.170884 0.0075,2.959478 c 0.0046,2.658542 0.0031,2.974606 -0.03477,3.100122 -0.104349,0.358404 -0.391677,0.650268 -0.747053,0.763689 -0.143666,0.04237 -0.32665,0.04536 -4.090648,0.04536 -3.795757,0 -3.943959,-0.0031 -4.092162,-0.04841 -0.421916,-0.130058 -0.718321,-0.480898 -0.784856,-0.922478 -0.03177,-0.23591 -0.03177,-5.531826 0,-5.770759 0.06654,-0.456702 0.438553,-0.857451 0.883155,-0.94365 0.163325,-0.03177 7.797179,-0.03477 7.966554,-0.0016 z"
   style="fill:#494c53;fill-opacity:1;fill-rule:nonzero;stroke:none;stroke-width:0.01890332"
   inkscape:connector-curvature="0" /><g
   id="g874"
   transform="translate(18.499577,72.797035)"><rect
     style="fill:#f02429;fill-opacity:1;stroke-width:1.09172451"
     y="3.6437263"
     x="12.083359"
     height="17.818241"
     width="55.212753"
     id="rect839" /><ellipse
     ry="8.9189844"
     rx="8.8340416"
     cy="12.562707"
     cx="12.350996"
     id="path843"
     style="fill:#f02429;fill-opacity:1;stroke-width:1.03464162" /><ellipse
     ry="8.9189844"
     rx="8.8340416"
     cy="12.613348"
     cx="67.271187"
     id="path843-5"
     style="fill:#f02429;fill-opacity:1;stroke-width:1.03464162" /><text
     id="text867"
     y="18.139194"
     x="5.886229"
     style="font-style:normal;font-variant:normal;font-weight:bold;font-stretch:normal;font-size:16px;line-height:1.25;font-family:Arial;-inkscape-font-specification:'Arial Bold';letter-spacing:0px;word-spacing:0px;fill:#ffffff;fill-opacity:1;stroke:none"
     xml:space="preserve"><tspan
       y="18.139194"
       x="5.886229"
       id="tspan865"
       sodipodi:role="line">OCTANE</tspan></text>
</g></svg>