<?xml version="1.0" encoding="utf-8"?>
<!-- Generator: Adobe Illustrator 25.0.1, SVG Export Plug-In . SVG Version: 6.00 Build 0)  -->
<svg version="1.1" id="_x36_a066a91-cb8e-43df-ac83-a56352aa6ed8"
	 xmlns="http://www.w3.org/2000/svg" xmlns:xlink="http://www.w3.org/1999/xlink" x="0px" y="0px" viewBox="0 0 113.4 113.4"
	 style="enable-background:new 0 0 113.4 113.4;" xml:space="preserve">
<style type="text/css">
	.st0{fill:#F02429;}
	.st1{fill:#242B38;}
</style>
<path class="st0" d="M94.8,74.2l-3.4-1.6c5.4-11.5,4.7-25-1.8-35.9l3.2-1.9C100,46.7,100.8,61.5,94.8,74.2z M87.1,33.1
	c-2.1-2.7-4.6-5.2-7.3-7.2l2.2-3c3,2.3,5.7,4.9,8,7.9L87.1,33.1z"/>
<path class="st1" d="M56.7,6.3C29,6.3,6.6,28.8,6.6,56.5c0,8.8,2.3,17.4,6.7,25c0.8,1.5,2.6,2,4,1.3c1.5-0.8,2-2.6,1.3-4
	c0-0.1-0.1-0.1-0.1-0.2C6.3,57.4,13.5,30.4,34.6,18.2s48.1-4.9,60.3,16.2c7.9,13.6,7.9,30.4,0.1,44c-0.8,1.4-0.3,3.3,1.1,4.1
	s3.3,0.3,4.1-1.1c13.8-24,5.5-54.7-18.5-68.5C74.1,8.6,65.5,6.3,56.7,6.3z"/>
<path class="st1" d="M60.2,55.4c-0.5-1.8-2.4-2.9-4.2-2.4c-0.3,0.1-0.6,0.2-0.9,0.4L52,52.1L51.7,52c-1.4-0.3-2.8,0.5-3.1,1.9
	c-0.3,1.4,0.5,2.8,1.9,3.1l3.2,0.8c0.8,1.7,2.8,2.5,4.6,1.7c0.3-0.1,0.6-0.3,0.8-0.5l24.4,5.9L60.2,55.4z M14.3,55.1h5.4v2.5h-5.4
	L14.3,55.1z"/>
<path class="st1" d="M34.5,20.1l2.2-1.3l2.7,4.7l-2.2,1.3L34.5,20.1z"/>
<path class="st1" d="M74.4,23.5l2.7-4.7l2.2,1.3l-2.7,4.7L74.4,23.5z"/>
<path class="st1" d="M55.6,13.7h2.5v5.4h-2.5V13.7z"/>
<path class="st1" d="M19.4,36.1l1.3-2.2l4.7,2.7l-1.3,2.2L19.4,36.1z"/>
<path class="st1" d="M19.4,76.5l4.7-2.7l1.3,2.2l-4.7,2.7L19.4,76.5z"/>
<path class="st0" d="M81.3,84l1.7,5l1.6-5h2.2v7.3h-1.5v-5.2l-1.8,5.1h-1.2l-1.8-5.1v5.1H79V84H81.3L81.3,84z M88.1,87.6
	c0-0.3,0.1-0.6,0.2-0.8c0.1-0.2,0.3-0.4,0.6-0.5c0.2-0.1,0.5-0.2,0.8-0.3c0.3-0.1,0.6-0.1,0.9-0.1c0.3,0,0.5,0,0.8,0.1
	c0.3,0,0.5,0.1,0.7,0.2c0.2,0.1,0.4,0.3,0.6,0.4c0.2,0.2,0.2,0.5,0.2,0.8v2.7c0,0.2,0,0.5,0,0.7c0,0.2,0.1,0.3,0.1,0.5h-1.4
	c0-0.1,0-0.2-0.1-0.3c0-0.1,0-0.2,0-0.3c-0.2,0.2-0.5,0.4-0.8,0.5c-0.3,0.1-0.7,0.1-1,0.1c-0.2,0-0.5,0-0.7-0.1
	c-0.2-0.1-0.4-0.2-0.6-0.3c-0.2-0.1-0.3-0.3-0.4-0.5c-0.1-0.2-0.1-0.5-0.1-0.7c0-0.3,0-0.5,0.1-0.7c0.1-0.2,0.2-0.3,0.4-0.5
	c0.2-0.1,0.4-0.2,0.6-0.3c0.2-0.1,0.4-0.1,0.7-0.1l0.6-0.1c0.2,0,0.4,0,0.6-0.1c0.1,0,0.3-0.1,0.4-0.2c0.1-0.1,0.1-0.2,0.1-0.3
	c0-0.1,0-0.3-0.1-0.4c0-0.1-0.1-0.2-0.2-0.2c-0.1-0.1-0.2-0.1-0.3-0.1h-0.4c-0.2,0-0.5,0-0.7,0.2c-0.2,0.2-0.3,0.4-0.3,0.6
	L88.1,87.6L88.1,87.6z M91.4,88.7c-0.1,0.1-0.1,0.1-0.2,0.1l-0.3,0.1L90.5,89L90.2,89l-0.3,0.1c-0.1,0-0.2,0.1-0.3,0.1
	c-0.1,0.1-0.1,0.1-0.2,0.2c0,0.1-0.1,0.2-0.1,0.3c0,0.1,0,0.2,0.1,0.3c0,0.1,0.1,0.2,0.2,0.2c0.1,0.1,0.2,0.1,0.3,0.1
	c0.1,0,0.2,0,0.3,0c0.2,0,0.5,0,0.7-0.1c0.1-0.1,0.3-0.2,0.3-0.3c0.1-0.1,0.1-0.3,0.1-0.4c0-0.1,0-0.2,0-0.3L91.4,88.7L91.4,88.7z
	 M93.6,86h1.7l0.9,1.4l0.9-1.4h1.6l-1.7,2.5l1.9,2.8h-1.6l-1.1-1.7L95,91.3h-1.6l1.9-2.8L93.6,86z"/>
<path class="st1" d="M20,85.9c0.1-0.4,0.3-0.8,0.6-1.1c0.2-0.3,0.5-0.5,0.8-0.6c0.6-0.2,1.4-0.2,2,0c0.3,0.1,0.6,0.3,0.8,0.6
	c0.3,0.3,0.5,0.7,0.6,1.1c0.2,0.6,0.2,1.2,0.2,1.8c0,0.6-0.1,1.2-0.2,1.8c-0.1,0.4-0.3,0.8-0.6,1.1c-0.2,0.3-0.5,0.5-0.8,0.6
	c-0.6,0.2-1.4,0.2-2,0c-0.3-0.1-0.6-0.3-0.8-0.6c-0.3-0.3-0.5-0.7-0.6-1.1c-0.2-0.6-0.2-1.2-0.2-1.8C19.8,87.1,19.8,86.5,20,85.9z
	 M21.3,88.4c0,0.3,0.1,0.6,0.1,0.8c0.1,0.3,0.2,0.5,0.3,0.7c0.2,0.2,0.4,0.3,0.7,0.3c0.2,0,0.4-0.1,0.6-0.3c0.2-0.2,0.3-0.4,0.4-0.7
	c0.1-0.3,0.1-0.5,0.1-0.8v-1.2c0-0.2,0-0.4,0-0.5c0-0.2-0.1-0.4-0.1-0.5c0-0.2-0.1-0.3-0.2-0.5c-0.1-0.1-0.2-0.3-0.3-0.3
	c-0.2-0.1-0.3-0.1-0.5-0.1c-0.2,0-0.3,0-0.5,0.1c-0.1,0.1-0.2,0.2-0.3,0.3c-0.1,0.1-0.2,0.3-0.2,0.5c0,0.2-0.1,0.4-0.1,0.5v1
	C21.2,87.8,21.2,88.1,21.3,88.4L21.3,88.4z"/>
</svg>
