<?xml version="1.0" encoding="utf-8"?>
<!-- Generator: Adobe Illustrator 25.0.1, SVG Export Plug-In . SVG Version: 6.00 Build 0)  -->
<svg version="1.1" id="Layer_1" xmlns="http://www.w3.org/2000/svg" xmlns:xlink="http://www.w3.org/1999/xlink" x="0px" y="0px"
	 viewBox="0 0 141.7 141.7" style="enable-background:new 0 0 141.7 141.7;" xml:space="preserve">
<style type="text/css">
	.st0{fill:none;stroke:#242B38;stroke-width:3.57;stroke-linecap:round;stroke-linejoin:round;stroke-miterlimit:4;}
	.st1{fill:#242B38;stroke:#242B38;stroke-width:3.57;stroke-linecap:round;stroke-linejoin:round;}
	.st2{fill:none;stroke:#FFFFFF;stroke-width:1.45;stroke-linecap:round;stroke-linejoin:round;}
	.st3{fill:#FFFFFF;}
	.st4{fill:none;stroke:#242B38;stroke-width:3.97;stroke-linecap:round;stroke-linejoin:round;stroke-miterlimit:4;}
	.st5{fill:#242B38;stroke:#242B38;stroke-width:3.97;stroke-linecap:round;stroke-linejoin:round;}
	.st6{fill:none;stroke:#FFFFFF;stroke-width:1.61;stroke-linecap:round;stroke-linejoin:round;}
	.st7{fill:none;stroke:#242B38;stroke-width:0.81;stroke-linecap:round;stroke-linejoin:round;}
	.st8{fill:#242B38;}
	.st9{fill:#F02429;}
	.st10{fill:#494C53;}
</style>
<g id="Layer_1_1_">
	<ellipse transform="matrix(0.9066 -0.422 0.422 0.9066 -15.6991 44.472)" class="st0" cx="92.6" cy="57.7" rx="11.9" ry="18.1"/>
	<path class="st1" d="M63.2,91.5c-6,2.8-14.2-2.3-18.5-11.4s-2.8-18.7,3.2-21.5L85,41.2c-6,2.8-7.4,12.4-3.2,21.5
		s12.5,14.2,18.5,11.4L63.2,91.5z"/>
	<line class="st2" x1="66.8" y1="87.6" x2="80.5" y2="81.1"/>
	<path class="st3" d="M36.6,105.6C30,108.7,20.7,103,16,92.9S12.9,72,19.6,69c0,0,37.3-17.5,41.2-19.3s12.9,1.8,20.3,13
		s1.9,19.5-3.2,23.5S36.6,105.6,36.6,105.6z"/>
	<ellipse transform="matrix(0.9066 -0.422 0.422 0.9066 -22.3851 35.501)" class="st4" cx="69" cy="68.3" rx="13.3" ry="20.2"/>
	<path class="st5" d="M36.3,105.9c-6.6,3.1-15.9-2.6-20.6-12.7s-3.1-20.8,3.5-23.9L60.5,50c-6.7,3.1-8.2,13.8-3.5,23.9
		s13.9,15.8,20.5,12.7L36.3,105.9z"/>
	<line class="st6" x1="59.5" y1="92.5" x2="64.7" y2="90.1"/>
	<line class="st7" x1="77.6" y1="83" x2="82.6" y2="80.6"/>
	<line class="st7" x1="66" y1="52.8" x2="71" y2="50.5"/>
	<line class="st6" x1="40.3" y1="101.5" x2="55.5" y2="94.3"/>
	<line class="st7" x1="102.9" y1="66.5" x2="106.1" y2="65"/>
	<line class="st7" x1="102.4" y1="58" x2="105.6" y2="56.5"/>
	<line class="st7" x1="93.2" y1="43.9" x2="96.4" y2="42.4"/>
	<path class="st8" d="M134.3,31.7C118.4,47.3,111.2,60.3,90,59C94.8,34,118.5,39.8,134.3,31.7z"/>
	<path class="st3" d="M122.4,37.1c-10.6,10.4-15.8,20.1-32.3,20C92.5,41.8,108.1,44.8,122.4,37.1z"/>
	<path class="st8" d="M114.2,41.2C90.6,50,69.1,39.4,62.1,69.7C95,81.8,103.4,52.7,114.2,41.2z"/>
	<path class="st3" d="M107.8,45.1C90,51.7,71,50.5,62.1,69.7C81.2,75.2,91.1,57.5,107.8,45.1z"/>
	<path class="st9" d="M99.8,49.6C85.1,55,69.5,54,62.1,69.9C77.8,74.4,86,59.8,99.8,49.6z"/>
</g>
<g>
	<path class="st10" d="M125.8,101.5H86.3c-2.4,0-4.3,1.9-4.3,4.3v12.8c0,2.4,1.9,4.3,4.3,4.3h39.5c2.4,0,4.3-1.9,4.3-4.3v-12.8
		C130.1,103.5,128.2,101.5,125.8,101.5z M129.8,118.6c0,2.2-1.8,4-4,4H86.3c-2.2,0-4-1.8-4-4v-12.8c0-2.2,1.8-4,4-4h39.5
		c2.2,0,4,1.8,4,4V118.6z"/>
	<path class="st8" d="M125.7,102.1L125.7,102.1c-0.1,0-0.2,0-0.2,0H86.6h-0.1h-0.1c-2.1,0-3.8,1.7-3.8,3.8v12.5
		c0,2.1,1.7,3.8,3.8,3.8h39.3c2.1,0,3.8-1.7,3.8-3.8V106C129.5,103.8,127.8,102.1,125.7,102.1z M117.8,111.7v-1.2h5.3v1.2h-1.9v5.2
		h-1.4v-5.2H117.8z M116,114.2c0.1,0.1,0.2,0.2,0.3,0.4c0.1,0.1,0.1,0.3,0.2,0.4c0,0.2,0.1,0.3,0.1,0.5c0,0.1,0,0.2,0,0.4
		c0,0.1,0,0.3,0,0.4s0,0.3,0.1,0.4c0,0.1,0.1,0.2,0.1,0.3h-1.4c-0.1-0.2-0.1-0.4-0.1-0.7c0-0.3,0-0.6-0.1-0.8c0-0.3-0.1-0.6-0.3-0.7
		c-0.2-0.2-0.4-0.2-0.8-0.2h-1.4v2.5h-1.4v-6.4h3.5c0.3,0,0.5,0,0.8,0.1c0.2,0.1,0.4,0.2,0.6,0.4c0.2,0.2,0.3,0.3,0.4,0.6
		c0.1,0.2,0.1,0.4,0.1,0.7c0,0.4-0.1,0.7-0.2,1c-0.2,0.3-0.4,0.5-0.8,0.6l0,0C115.8,114,115.9,114.1,116,114.2z M109.6,113.8
		c0,0.5-0.1,0.9-0.2,1.3s-0.4,0.8-0.6,1.1c-0.3,0.3-0.6,0.5-1,0.7s-0.8,0.3-1.3,0.3s-0.9-0.1-1.3-0.3c-0.4-0.2-0.7-0.4-1-0.7
		c-0.3-0.3-0.5-0.7-0.6-1.1s-0.2-0.8-0.2-1.3s0.1-0.9,0.2-1.3s0.4-0.8,0.6-1.1c0.3-0.3,0.6-0.5,1-0.7s0.8-0.3,1.3-0.3
		s0.9,0.1,1.3,0.3c0.4,0.2,0.7,0.4,1,0.7c0.3,0.3,0.5,0.7,0.6,1.1S109.6,113.3,109.6,113.8z M101.9,112.6c0,0.3,0,0.5-0.1,0.8
		c-0.1,0.2-0.2,0.5-0.4,0.7c-0.2,0.2-0.4,0.3-0.7,0.5c-0.3,0.1-0.6,0.2-1,0.2h-1.5v2.3h-1.4v-6.4h2.9c0.4,0,0.7,0.1,1,0.2
		s0.5,0.3,0.7,0.5s0.3,0.4,0.4,0.7C101.9,112.1,101.9,112.3,101.9,112.6z M93.7,114.8c-0.1-0.1-0.3-0.2-0.4-0.3
		c-0.2-0.1-0.4-0.1-0.6-0.2s-0.5-0.1-0.7-0.2s-0.5-0.1-0.7-0.2s-0.4-0.2-0.6-0.3c-0.2-0.1-0.3-0.3-0.4-0.5s-0.2-0.5-0.2-0.8
		s0.1-0.6,0.2-0.9c0.1-0.2,0.3-0.4,0.6-0.6c0.2-0.2,0.5-0.3,0.8-0.4s0.6-0.1,0.9-0.1s0.7,0,1,0.1s0.6,0.2,0.8,0.4
		c0.2,0.2,0.4,0.4,0.6,0.6c0.1,0.3,0.2,0.6,0.2,0.9h-1.4c0-0.2-0.1-0.4-0.1-0.5c-0.1-0.1-0.2-0.2-0.3-0.3c-0.1-0.1-0.2-0.1-0.4-0.2
		c-0.1,0-0.3,0-0.5,0c-0.1,0-0.2,0-0.3,0c-0.1,0-0.2,0.1-0.3,0.1c-0.1,0.1-0.2,0.1-0.2,0.2c-0.1,0.1-0.1,0.2-0.1,0.3
		c0,0.1,0,0.2,0.1,0.3c0,0.1,0.1,0.1,0.3,0.2c0.1,0.1,0.3,0.1,0.6,0.2c0.2,0.1,0.6,0.1,1,0.3c0.1,0,0.3,0.1,0.5,0.1
		c0.2,0.1,0.4,0.2,0.6,0.3c0.2,0.1,0.4,0.3,0.5,0.6c0.2,0.2,0.2,0.5,0.2,0.9c0,0.3-0.1,0.6-0.2,0.8c-0.1,0.3-0.3,0.5-0.5,0.7
		s-0.5,0.3-0.8,0.4s-0.7,0.2-1.2,0.2c-0.4,0-0.7,0-1-0.1s-0.6-0.2-0.9-0.4c-0.3-0.2-0.5-0.4-0.6-0.7c-0.1-0.3-0.2-0.6-0.2-1h1.4
		c0,0.2,0,0.4,0.1,0.5s0.2,0.3,0.3,0.4c0.1,0.1,0.3,0.2,0.5,0.2s0.4,0.1,0.5,0.1s0.3,0,0.4,0s0.3-0.1,0.4-0.1
		c0.1-0.1,0.2-0.1,0.3-0.2c0.1-0.1,0.1-0.2,0.1-0.4C93.9,115,93.9,114.9,93.7,114.8z M125.7,121.8H86.4c-1.8,0-3.4-1.5-3.4-3.4V106
		c0-0.5,0.1-0.9,0.3-1.3c-0.1,0.3-0.1,0.6-0.1,0.9v12.3c0,1.9,1.5,3.4,3.4,3.4h38.9c1.2,0,2.3-0.7,2.9-1.7v0.9
		C127.8,121.3,126.8,121.8,125.7,121.8z M129.1,118.5c0,0.3-0.1,0.7-0.1,1v-1.7v-12.3c0-0.3,0-0.6-0.1-0.9c0.2,0.4,0.3,0.8,0.3,1.3
		L129.1,118.5L129.1,118.5z"/>
	<path class="st8" d="M114.2,111.6h-1.5v1.8h1.5c0.3,0,0.6-0.1,0.7-0.2c0.2-0.1,0.2-0.4,0.2-0.7c0-0.3-0.1-0.5-0.2-0.7
		C114.8,111.7,114.5,111.6,114.2,111.6z"/>
	<path class="st8" d="M107.8,112.3c-0.1-0.2-0.3-0.4-0.5-0.5s-0.5-0.2-0.8-0.2s-0.6,0.1-0.8,0.2c-0.2,0.1-0.4,0.3-0.5,0.5
		s-0.2,0.4-0.3,0.7c-0.1,0.3-0.1,0.5-0.1,0.8s0,0.5,0.1,0.8s0.2,0.5,0.3,0.7c0.1,0.2,0.3,0.4,0.5,0.5s0.5,0.2,0.8,0.2
		s0.6-0.1,0.8-0.2c0.2-0.1,0.4-0.3,0.5-0.5s0.2-0.4,0.3-0.7c0.1-0.3,0.1-0.5,0.1-0.8s0-0.6-0.1-0.8
		C108,112.7,107.9,112.5,107.8,112.3z"/>
	<path class="st8" d="M100.2,111.8c-0.1-0.1-0.2-0.1-0.4-0.1c-0.1,0-0.3,0-0.5,0h-1.1v1.9h1.1c0.2,0,0.3,0,0.5,0
		c0.1,0,0.3-0.1,0.4-0.1c0.1-0.1,0.2-0.2,0.3-0.3c0.1-0.1,0.1-0.3,0.1-0.5s0-0.4-0.1-0.5C100.4,112,100.3,111.9,100.2,111.8z"/>
</g>
<path class="st9" d="M111.4,106.2h-9.8c-0.3,0-0.5-0.2-0.5-0.5s0.2-0.5,0.5-0.5h9.8c0.3,0,0.5,0.2,0.5,0.5S111.7,106.2,111.4,106.2z
	"/>
<path class="st9" d="M112.1,106.7H101c-0.6,0-1-0.4-1-1s0.4-1,1-1h11.1c0.6,0,1,0.4,1,1C113.1,106.3,112.6,106.7,112.1,106.7z
	 M101,104.9c-0.4,0-0.8,0.3-0.8,0.8s0.3,0.8,0.8,0.8h11.1c0.4,0,0.8-0.3,0.8-0.8s-0.3-0.8-0.8-0.8H101z"/>
</svg>
