<?xml version="1.0" encoding="utf-8"?>
<!-- Generator: Adobe Illustrator 25.0.1, SVG Export Plug-In . SVG Version: 6.00 Build 0)  -->
<svg version="1.1" id="_x37_a279d8b-ce3e-475b-84a1-050465441f05"
	 xmlns="http://www.w3.org/2000/svg" xmlns:xlink="http://www.w3.org/1999/xlink" x="0px" y="0px" viewBox="0 0 113.4 113.4"
	 style="enable-background:new 0 0 113.4 113.4;" xml:space="preserve">
<style type="text/css">
	.st0{fill:#F02429;}
	.st1{fill:#242B38;}
</style>
<path class="st0" d="M47.3,53.5c-0.1-0.1-0.2-0.1-0.3-0.1h-0.3h-0.8v1.4h0.8H47c0.1,0,0.2,0,0.3-0.1c0.1-0.1,0.2-0.1,0.2-0.2
	c0.1-0.2,0.1-0.5,0-0.7C47.5,53.6,47.4,53.5,47.3,53.5z"/>
<path class="st0" d="M56,61.5c-0.1-0.1-0.2-0.3-0.4-0.3c-0.4-0.2-0.8-0.2-1.2,0c-0.2,0.1-0.3,0.2-0.4,0.3c-0.1,0.2-0.2,0.3-0.2,0.5
	c0,0.2-0.1,0.4-0.1,0.6c0,0.2,0,0.4,0.1,0.6c0,0.2,0.1,0.3,0.2,0.5c0.1,0.1,0.2,0.3,0.4,0.4c0.4,0.2,0.8,0.2,1.2,0
	c0.2-0.1,0.3-0.2,0.4-0.4c0.1-0.1,0.2-0.3,0.2-0.5c0-0.2,0.1-0.4,0.1-0.6c0-0.2,0-0.4-0.1-0.6C56.2,61.8,56.1,61.7,56,61.5z"/>
<path class="st0" d="M60.8,61.5c-0.1-0.1-0.2-0.2-0.4-0.3c-0.2-0.1-0.4-0.1-0.6-0.1H59V64h0.9c0.1,0,0.3,0,0.4,0
	c0.1,0,0.3-0.1,0.4-0.2c0.1-0.1,0.2-0.3,0.3-0.4c0.1-0.2,0.1-0.4,0.1-0.7c0-0.2,0-0.5,0-0.7C60.9,61.8,60.9,61.7,60.8,61.5z"/>
<path class="st0" d="M52.2,53.8c-0.1-0.1-0.2-0.3-0.4-0.3c-0.4-0.2-0.8-0.2-1.2,0c-0.2,0.1-0.3,0.2-0.4,0.3
	c-0.1,0.2-0.2,0.3-0.2,0.5c0,0.2-0.1,0.4-0.1,0.6c0,0.2,0,0.4,0.1,0.6c0,0.2,0.1,0.3,0.2,0.5c0.1,0.1,0.2,0.3,0.4,0.3
	c0.4,0.2,0.8,0.2,1.2,0c0.2-0.1,0.3-0.2,0.4-0.3c0.1-0.1,0.2-0.3,0.2-0.5c0-0.2,0.1-0.4,0.1-0.6c0-0.2,0-0.4-0.1-0.6
	C52.4,54.1,52.3,53.9,52.2,53.8z"/>
<path class="st0" d="M66.6,53.3h-1.1v1.3h1.1c0.2,0,0.4,0,0.5-0.2c0.1-0.1,0.2-0.3,0.2-0.5c0-0.2,0-0.4-0.2-0.5
	C67,53.4,66.8,53.3,66.6,53.3z"/>
<path class="st0" d="M71.2,44.2l-9.6-5.5c-3-1.7-6.7-1.7-9.8,0l-9.6,5.5c-3,1.7-4.9,5-4.9,8.5v11.1c0,3.5,1.9,6.7,4.9,8.4l9.6,5.6
	c3,1.7,6.7,1.7,9.8,0l9.6-5.6c3-1.7,4.9-5,4.9-8.5V52.7C76,49.2,74.2,46,71.2,44.2z M60.3,52.5h3.5v0.9h-2.4v1h2.2v0.8h-2.2v1.1h2.5
	v0.8h-3.5L60.3,52.5L60.3,52.5z M45.9,55.5v1.7h-1v-4.7H47c0.3,0,0.5,0,0.7,0.1c0.2,0.1,0.4,0.2,0.5,0.3c0.1,0.1,0.2,0.3,0.3,0.5
	c0.1,0.4,0.1,0.7,0,1.1c-0.1,0.2-0.2,0.3-0.3,0.5c-0.1,0.1-0.3,0.3-0.5,0.3c-0.2,0.1-0.5,0.1-0.7,0.1L45.9,55.5L45.9,55.5z
	 M52.1,64.9h-1v-3.3l0,0L50,64.9h-0.8l-1.1-3.2l0,0v3.2h-1v-4.6h1.4l1.1,3.2l0,0l1-3.2H52L52.1,64.9L52.1,64.9z M51.3,57.3
	c-0.3,0-0.7,0-1-0.2c-0.3-0.1-0.5-0.3-0.7-0.5c-0.2-0.2-0.4-0.5-0.5-0.8c-0.1-0.3-0.1-0.6-0.1-1c0-0.3,0-0.7,0.2-1
	c0.1-0.3,0.3-0.5,0.5-0.8c0.2-0.2,0.4-0.4,0.7-0.5c0.6-0.3,1.3-0.3,1.9,0c0.3,0.1,0.5,0.3,0.7,0.5c0.2,0.2,0.4,0.5,0.5,0.8
	c0.1,0.3,0.2,0.7,0.2,1c0,0.3,0,0.6-0.2,0.9c-0.1,0.3-0.3,0.5-0.5,0.8c-0.2,0.2-0.4,0.4-0.7,0.5C51.9,57.2,51.6,57.3,51.3,57.3
	L51.3,57.3z M57.1,63.6c-0.1,0.3-0.3,0.5-0.5,0.8c-0.2,0.2-0.4,0.4-0.7,0.5c-0.6,0.2-1.3,0.2-1.9,0c-0.3-0.1-0.5-0.3-0.7-0.5
	c-0.2-0.2-0.4-0.5-0.5-0.8c-0.1-0.3-0.2-0.6-0.2-0.9c0-0.3,0-0.7,0.2-1c0.1-0.3,0.3-0.5,0.5-0.8c0.2-0.2,0.4-0.4,0.7-0.5
	c0.6-0.3,1.3-0.3,1.9,0c0.3,0.1,0.5,0.3,0.7,0.5c0.2,0.2,0.4,0.5,0.5,0.8c0.1,0.3,0.2,0.7,0.2,1C57.3,63,57.2,63.3,57.1,63.6
	L57.1,63.6z M56.8,54L56.8,54L56,57.2h-1l-1.2-4.6h1l0.7,3.1l0,0l0.8-3.1h1l0.8,3.2l0,0l0.8-3.2h1l-1.2,4.6h-1L56.8,54z M61.9,63.5
	c-0.1,0.3-0.2,0.5-0.4,0.7c-0.2,0.2-0.4,0.4-0.7,0.5c-0.3,0.1-0.6,0.2-0.9,0.2h-2v-4.6h2c0.3,0,0.6,0,0.8,0.1
	c0.2,0.1,0.5,0.2,0.7,0.4c0.2,0.2,0.3,0.4,0.4,0.7c0.1,0.3,0.2,0.7,0.2,1C62.1,62.9,62,63.2,61.9,63.5L61.9,63.5z M66.2,64.9h-3.5
	v-4.6h3.4v0.8h-2.4v1H66v0.8h-2.2V64h2.5V64.9L66.2,64.9z M67.4,57.1c-0.1-0.2-0.1-0.3-0.1-0.5c0-0.2,0-0.4-0.1-0.6
	c0-0.2-0.1-0.4-0.2-0.5c-0.2-0.1-0.4-0.2-0.6-0.2h-1v1.8h-1v-4.6H67c0.2,0,0.4,0,0.6,0.1c0.2,0.1,0.3,0.2,0.4,0.3
	c0.1,0.1,0.2,0.2,0.3,0.4c0.1,0.2,0.1,0.3,0.1,0.5c0,0.2-0.1,0.5-0.2,0.7c-0.1,0.2-0.3,0.4-0.6,0.5l0,0c0.1,0,0.2,0.1,0.3,0.2
	c0.1,0.1,0.1,0.2,0.2,0.2c0.1,0.1,0.1,0.2,0.1,0.3c0,0.1,0,0.2,0,0.3c0,0.1,0,0.2,0,0.3s0,0.2,0,0.3c0,0.1,0,0.2,0.1,0.3
	c0,0.1,0.1,0.2,0.1,0.2L67.4,57.1L67.4,57.1z"/>
<path class="st1" d="M99.5,66.4l-0.1-3.9c-0.1-2.4-0.2-4.4-0.2-5.8l-0.1-2.2L99,56.7c0,1.4-0.2,3.4-0.2,5.8l-0.1,3.9
	c0,1.4-0.1,2.8-0.2,4.3c-0.1,1.5-0.4,3-0.8,4.5c-0.4,1.5-1,3-1.7,4.3c-0.7,1.4-1.6,2.7-2.5,3.9c-0.9,1.2-2,2.3-3.1,3.3
	c-1.1,0.9-2.2,1.8-3.5,2.5l-3.3,2c-2.1,1.2-3.8,2.4-5,3.1l-1.9,1.2l2-1c1.2-0.7,3-1.6,5.2-2.7l3.4-1.9c1.3-0.7,2.6-1.5,3.7-2.4
	c1.2-1,2.4-2.1,3.4-3.4c1-1.3,1.9-2.7,2.6-4.1c1.5-2.9,2.3-6.1,2.5-9.3C99.6,69.3,99.5,67.8,99.5,66.4z"/>
<path class="st1" d="M22.4,86.8c-1.3-1.2-2.4-2.5-3.4-3.9c-1.3-1.9-2.3-3.9-3-6c-0.9-2.5-1.3-5.2-1.3-7.8l0.1-9v-9.6
	c0-1.7,0-3.3,0.1-4.9c0.1-1.6,0.4-3.2,0.9-4.8c0.9-3.1,2.5-6,4.6-8.5C21.5,31,22.7,30,24,29c1.3-0.9,2.6-1.8,4-2.5
	c5.4-3.1,10.4-6.1,14.7-8.7l3-1.8c2.5-1.4,5.1-2.3,7.9-2.7c1.1-0.2,2.2-0.3,3.4-0.3c0.8,0,1.2,0,1.2,0s-0.4,0-1.2-0.1
	c-1.1-0.1-2.3,0-3.4,0.1c-1.8,0.2-3.5,0.6-5.2,1.2c-1,0.4-2,0.8-3,1.3c-1,0.5-2,1.1-3.1,1.7c-4.3,2.5-9.5,5.3-14.9,8.4
	c-1.4,0.8-2.8,1.6-4.1,2.5c-1.3,1-2.6,2.1-3.7,3.4c-2.2,2.6-3.9,5.6-4.9,8.8c-0.5,1.6-0.8,3.3-0.9,5c-0.1,1.7-0.1,3.3-0.1,5V60
	l0.1,9c0,2.7,0.5,5.4,1.4,8c0.8,2.2,1.9,4.2,3.3,6c1.1,1.4,2.3,2.7,3.6,3.8c0.9,0.7,1.8,1.4,2.8,2l1,0.6l-1-0.7
	C24.1,88.1,23.2,87.5,22.4,86.8z"/>
<path class="st1" d="M96.8,69.5V47c0-7.4-3.9-14.2-10.3-17.9L67,17.9c-6.4-3.7-14.3-3.7-20.7,0L26.9,29.1
	C20.5,32.8,16.6,39.6,16.6,47v22.5c0,7.4,3.9,14.2,10.3,17.9l19.5,11.2l0,0c6.4,3.7,14.2,3.7,20.6,0l19.5-11.2
	C92.9,83.7,96.8,76.9,96.8,69.5z M66.1,97c-5.8,3.4-13,3.4-18.8,0l0,0L27.8,85.8c-5.8-3.4-9.4-9.6-9.4-16.3V47
	c0-6.7,3.6-12.9,9.4-16.3l19.5-11.2c5.8-3.4,13-3.4,18.9,0l19.5,11.2C91.4,34.1,95,40.3,95,47v22.5c0,6.7-3.6,12.9-9.4,16.3L66.1,97
	z"/>
<path class="st1" d="M75.8,67.8c0.5-1.3,0.8-2.6,0.8-4V52.7c0-3.7-2-7.1-5.2-8.9l-9.6-5.5c-1.2-0.7-2.5-1.1-3.8-1.3l-1.3-17.2
	l-1.3,17.2c-1.4,0.2-2.7,0.6-3.9,1.3l-9.6,5.5c-3.2,1.8-5.1,5.2-5.2,8.9v11.1c0,1.4,0.3,2.7,0.8,4l-14.1,9.6L38.9,70
	c0.8,1.1,1.9,2,3.1,2.7l9.6,5.6c3.2,1.8,7.1,1.8,10.3,0l9.6-5.6c1.2-0.7,2.2-1.6,3.1-2.7l16,7.8L75.8,67.8z M70.9,71.8l-9.6,5.5
	c-2.9,1.6-6.4,1.6-9.2,0l-9.6-5.6c-2.9-1.7-4.6-4.7-4.6-8V52.7c0-3.3,1.8-6.3,4.6-8l9.6-5.5c2.9-1.6,6.4-1.6,9.2,0l9.6,5.5
	c2.9,1.7,4.6,4.7,4.6,8v11.1C75.5,67.1,73.8,70.1,70.9,71.8L70.9,71.8z"/>
<circle class="st1" cx="24.5" cy="39.7" r="2.4"/>
<circle class="st1" cx="56.8" cy="95.6" r="2.4"/>
<circle class="st1" cx="88.9" cy="39.7" r="2.4"/>
<path class="st1" d="M27.2,52.7c-0.2,0.2-0.3,0.5-0.4,0.8c0,0.1,0,0.3,0,0.4c0,0.1,0,0.3,0.1,0.4c0.1,0.1,0.1,0.2,0.2,0.3
	c0.1,0.1,0.3,0.1,0.4,0.2c0.1,0,0.3,0,0.4-0.1c0.1-0.1,0.2-0.2,0.3-0.3c0.1-0.2,0.2-0.3,0.2-0.5l0.2-0.6c0.1-0.2,0.2-0.4,0.3-0.6
	c0.1-0.2,0.2-0.3,0.3-0.5c0.1-0.1,0.3-0.2,0.4-0.3c0.2-0.1,0.4-0.1,0.6,0c0.2,0,0.5,0.1,0.7,0.3c0.2,0.1,0.3,0.3,0.4,0.5
	c0.1,0.2,0.1,0.4,0.2,0.7c0,0.2,0,0.5,0,0.7c0,0.3-0.1,0.5-0.2,0.8c-0.1,0.2-0.2,0.4-0.4,0.6c-0.2,0.2-0.4,0.3-0.6,0.4
	c-0.3,0.1-0.6,0.1-0.8,0l0.1-0.6c0.2,0,0.4,0,0.6,0c0.2-0.1,0.3-0.2,0.4-0.4c0.1-0.1,0.2-0.3,0.3-0.4c0.1-0.2,0.1-0.4,0.2-0.5
	c0-0.2,0-0.3,0-0.5c0-0.1,0-0.3-0.1-0.4c0-0.1-0.1-0.2-0.2-0.3c-0.1-0.1-0.3-0.2-0.4-0.2c-0.2,0-0.3,0-0.5,0.1
	c-0.1,0.1-0.2,0.2-0.3,0.3c-0.1,0.2-0.2,0.3-0.2,0.5l-0.2,0.6c-0.1,0.2-0.2,0.4-0.2,0.6c-0.1,0.2-0.2,0.3-0.3,0.5
	c-0.1,0.1-0.3,0.2-0.4,0.3c-0.2,0.1-0.4,0.1-0.6,0c-0.4-0.1-0.8-0.3-1-0.8c-0.1-0.2-0.2-0.4-0.2-0.6c0-0.2,0-0.5,0-0.7
	c0-0.2,0.1-0.5,0.2-0.7c0.1-0.2,0.2-0.4,0.4-0.5c0.2-0.1,0.4-0.3,0.6-0.3c0.2-0.1,0.5-0.1,0.8,0l-0.1,0.6
	C27.8,52.4,27.5,52.5,27.2,52.7z"/>
<path class="st1" d="M27.9,47.8c0.1-0.4,0.4-0.8,0.8-1c0.8-0.3,1.7,0,2.1,0.7c0.2,0.4,0.2,0.9,0,1.2l-0.5,1.5l2,0.7L32,51.6
	l-4.9-1.7L27.9,47.8z M30.1,48.8c0.1-0.3,0.1-0.6,0-0.9c-0.1-0.2-0.3-0.4-0.6-0.5c-0.2-0.1-0.5-0.1-0.8,0c-0.3,0.2-0.4,0.4-0.5,0.7
	l-0.4,1.3l1.8,0.6L30.1,48.8z"/>
<path class="st1" d="M30.3,45.7c-0.2-0.2-0.4-0.5-0.5-0.8c-0.1-0.3-0.2-0.7-0.1-1c0.1-0.7,0.5-1.4,1.1-1.8c0.3-0.2,0.6-0.3,0.9-0.4
	c0.3-0.1,0.7-0.1,1,0c0.7,0.1,1.3,0.5,1.8,1c0.2,0.2,0.4,0.5,0.5,0.8c0.1,0.3,0.2,0.7,0.1,1c-0.1,0.8-0.5,1.4-1.1,1.9
	c-0.3,0.2-0.6,0.3-0.9,0.4c-0.3,0.1-0.7,0.1-1,0C31.4,46.6,30.8,46.2,30.3,45.7z M32.2,46c0.2,0.1,0.5,0.1,0.8,0.1
	c0.2,0,0.5-0.1,0.7-0.2c0.5-0.3,0.8-0.8,0.8-1.4c0-0.3,0-0.5-0.1-0.7c-0.1-0.2-0.3-0.4-0.4-0.6c-0.4-0.4-0.8-0.6-1.3-0.8
	c-0.2-0.1-0.5-0.1-0.8-0.1c-0.2,0-0.5,0.1-0.7,0.2c-0.5,0.3-0.8,0.8-0.8,1.4c0,0.2,0,0.5,0.1,0.7c0.1,0.2,0.3,0.4,0.4,0.6
	C31.2,45.6,31.7,45.9,32.2,46z"/>
<path class="st1" d="M33.9,37.7c0.3-0.3,0.6-0.6,1.1-0.7c0.4,0,0.7,0.1,1,0.3c0.2,0.2,0.4,0.4,0.5,0.7c0.1,0.3,0.1,0.6-0.1,0.8l0,0
	c0.1-0.1,0.2-0.1,0.3-0.2c0.1,0,0.2,0,0.3,0c0.1,0,0.2,0.1,0.3,0.1l0.3,0.2l0.3,0.2l0.3,0.2c0.1,0.1,0.2,0.1,0.3,0.2
	c0.1,0,0.2,0.1,0.3,0.1l-0.5,0.6c-0.1,0-0.2,0-0.2-0.1L38,40l-0.3-0.2c-0.1-0.1-0.2-0.2-0.3-0.2l-0.3-0.2c-0.1,0-0.2-0.1-0.3-0.1
	c-0.1,0-0.2,0-0.3,0c-0.1,0.1-0.2,0.1-0.3,0.3L35,40.9l1.7,1.5l-0.5,0.5l-3.9-3.4L33.9,37.7z M35.8,39.1c0.1-0.1,0.1-0.2,0.1-0.4
	c0-0.1,0-0.3,0-0.4c-0.1-0.1-0.2-0.3-0.3-0.4c-0.2-0.2-0.4-0.3-0.7-0.3c-0.3,0-0.5,0.2-0.6,0.4l-1.1,1.3l1.4,1.2l0.9-1.1
	C35.6,39.3,35.7,39.2,35.8,39.1L35.8,39.1z"/>
<path class="st1" d="M36,36.3l-0.4-0.5l3.2-2.6l0.4,0.5l-1.3,1.1l2.9,3.5l-0.5,0.4l-2.9-3.5L36,36.3z"/>
<path class="st1" d="M80.8,39.1l-0.4,0.4l-1.9-2.1l-1.2,1.1l1.8,2l-0.4,0.4l-1.8-2l-1.3,1.2l1.9,2.2L77,42.6l-2.4-2.7l3.8-3.5
	L80.8,39.1z"/>
<path class="st1" d="M82.8,43.4c0-0.3-0.1-0.7-0.3-0.9c-0.1-0.2-0.3-0.4-0.6-0.6c-0.2-0.1-0.4-0.2-0.7-0.2c-0.2,0-0.5,0-0.7,0.1
	c-0.3,0.1-0.5,0.2-0.7,0.3c-0.2,0.1-0.5,0.3-0.7,0.5c-0.2,0.2-0.3,0.4-0.4,0.6c-0.1,0.2-0.1,0.5-0.1,0.7c0,0.3,0.1,0.5,0.3,0.8
	c0.1,0.2,0.2,0.3,0.4,0.5c0.2,0.1,0.3,0.2,0.5,0.2c0.2,0,0.4,0,0.6,0c0.2,0,0.4-0.1,0.6-0.2l0.4,0.6c-0.5,0.3-1.1,0.3-1.6,0.2
	c-0.5-0.2-1-0.5-1.3-1c-0.2-0.3-0.3-0.6-0.4-1c-0.1-0.3,0-0.7,0.1-1c0.1-0.3,0.3-0.6,0.5-0.8c0.2-0.3,0.5-0.5,0.8-0.7
	c0.3-0.2,0.6-0.3,1-0.4c0.3-0.1,0.7-0.1,1-0.1c0.3,0,0.6,0.2,0.9,0.3c0.3,0.2,0.5,0.5,0.7,0.8c0.1,0.2,0.2,0.5,0.3,0.7
	c0.1,0.2,0.1,0.5,0.1,0.7c0,0.2-0.1,0.5-0.2,0.7c-0.1,0.2-0.3,0.4-0.5,0.6l-0.4-0.6C82.6,44,82.7,43.7,82.8,43.4z"/>
<path class="st1" d="M83.2,46c0.3,0,0.7,0,1,0.1c0.3,0.1,0.6,0.3,0.8,0.5c0.5,0.5,0.8,1.3,0.7,2c0,0.3-0.1,0.6-0.3,0.9
	c-0.2,0.3-0.4,0.5-0.7,0.7C84.3,50.8,83.6,51,83,51c-0.3,0-0.7,0-1-0.1c-0.3-0.1-0.6-0.3-0.8-0.5c-0.5-0.5-0.8-1.3-0.7-2
	c0-0.3,0.1-0.6,0.3-0.9c0.2-0.3,0.4-0.5,0.7-0.7C81.9,46.3,82.5,46,83.2,46z M81.8,47.2c-0.2,0.1-0.4,0.3-0.5,0.5
	c-0.1,0.2-0.2,0.4-0.3,0.7c0,0.3,0,0.6,0.1,0.8c0.1,0.3,0.2,0.5,0.4,0.7c0.2,0.2,0.4,0.3,0.7,0.3c0.2,0.1,0.5,0.1,0.8,0.1
	c0.5,0,1-0.2,1.4-0.5c0.2-0.1,0.4-0.3,0.5-0.5c0.1-0.2,0.2-0.4,0.3-0.7c0.1-0.6-0.2-1.1-0.6-1.5c-0.2-0.2-0.4-0.3-0.6-0.3
	c-0.2-0.1-0.5-0.1-0.8-0.1c-0.3,0-0.5,0.1-0.8,0.2C82.2,46.9,82,47,81.8,47.2z"/>
<path class="st1" d="M44.4,80.9l0.7,4.7l0,0l1.7-3.7l0.6,0.3l-2.1,4.5l-0.7-0.3l-0.7-4.7l0,0l-1.7,3.6l-0.6-0.3l2.1-4.5L44.4,80.9z"
	/>
<path class="st1" d="M47.5,84c0.2-0.3,0.4-0.5,0.6-0.7c0.2-0.2,0.5-0.3,0.8-0.4c0.7-0.1,1.4,0.1,2,0.5c0.2,0.2,0.4,0.5,0.6,0.7
	c0.1,0.3,0.2,0.6,0.2,0.9c0.1,0.7-0.1,1.3-0.5,1.9c-0.2,0.3-0.4,0.5-0.6,0.7c-0.3,0.2-0.5,0.3-0.9,0.4c-0.7,0.1-1.4-0.1-2-0.5
	c-0.2-0.2-0.4-0.5-0.6-0.7c-0.1-0.3-0.2-0.6-0.2-0.9C47,85.2,47.2,84.6,47.5,84z M47.7,85.8c0,0.2,0,0.5,0.1,0.7
	c0.1,0.2,0.2,0.4,0.4,0.6c0.4,0.4,1,0.5,1.5,0.4c0.2-0.1,0.4-0.2,0.6-0.3c0.2-0.2,0.3-0.3,0.5-0.6c0.1-0.2,0.2-0.4,0.3-0.7
	c0.1-0.2,0.1-0.5,0.1-0.7c0-0.2,0-0.5-0.1-0.7c-0.1-0.2-0.2-0.4-0.4-0.6c-0.4-0.4-1-0.5-1.5-0.4c-0.2,0.1-0.4,0.2-0.6,0.3
	c-0.2,0.2-0.3,0.3-0.5,0.6c-0.1,0.2-0.2,0.4-0.3,0.7C47.7,85.3,47.7,85.5,47.7,85.8L47.7,85.8z"/>
<path class="st1" d="M55.1,83.9c0.4,0,0.8,0.2,1.1,0.4c0.3,0.3,0.4,0.6,0.3,1c0,0.3-0.1,0.5-0.3,0.8c-0.2,0.2-0.4,0.4-0.7,0.4l0,0
	c0.1,0,0.2,0.1,0.3,0.2c0.1,0.1,0.2,0.2,0.2,0.2c0,0.1,0.1,0.2,0.1,0.3c0,0.1,0,0.2,0,0.3c0,0.1,0,0.2,0,0.4c0,0.1,0,0.2,0,0.4
	c0,0.1,0,0.2,0,0.3c0,0.1,0.1,0.2,0.1,0.3l-0.7-0.1c0-0.1-0.1-0.1-0.1-0.2c0-0.1,0-0.2,0-0.3c0-0.1,0-0.2,0-0.3c0-0.1,0-0.2,0-0.4
	c0-0.1,0-0.2,0-0.3c0-0.1-0.1-0.2-0.1-0.3c-0.1-0.1-0.1-0.2-0.2-0.2c-0.1-0.1-0.2-0.1-0.4-0.1l-1.6-0.1l-0.2,2.1h-0.7l0.4-4.9
	L55.1,83.9z M55.1,86.1c0.1,0,0.2-0.1,0.3-0.1c0.1-0.1,0.2-0.1,0.3-0.2c0.1-0.1,0.1-0.3,0.1-0.4c0-0.2,0-0.4-0.2-0.6
	c-0.2-0.2-0.4-0.3-0.7-0.3l-1.6-0.1L53.3,86l1.4,0.1C54.8,86.1,55,86.1,55.1,86.1L55.1,86.1z"/>
<path class="st1" d="M58.1,83.9l2,3.9l1-4.3l0.9-0.1l0.6,4.9L62,88.4l-0.5-4.1l0,0l-1,4.3L60,88.7l-2-3.9l0,0l0.5,4.1l-0.6,0.1
	L57.2,84L58.1,83.9z"/>
<path class="st1" d="M64.8,82.5l3.4,4.1l-0.7,0.2l-1-1.2l-2,0.7l-0.1,1.6l-0.6,0.2l0.3-5.3L64.8,82.5z M66.1,85.2l-1.5-1.9l0,0
	l-0.1,2.4L66.1,85.2z"/>
<path class="st1" d="M67.4,81.5l2,3.9l2.3-1.2l0.2,0.5l-3,1.5l-2.2-4.4L67.4,81.5z"/>
</svg>
