<?xml version="1.0" encoding="utf-8"?>
<!-- Generator: Adobe Illustrator 25.0.1, SVG Export Plug-In . SVG Version: 6.00 Build 0)  -->
<svg version="1.1" id="Layer_1" xmlns="http://www.w3.org/2000/svg" xmlns:xlink="http://www.w3.org/1999/xlink" x="0px" y="0px"
	 viewBox="0 0 141.7 141.7" style="enable-background:new 0 0 141.7 141.7;" xml:space="preserve">
<style type="text/css">
	.st0{fill:none;stroke:#E1373C;stroke-width:11;stroke-miterlimit:10;}
	.st1{fill:none;stroke:#F02429;stroke-width:11;stroke-miterlimit:10;}
	.st2{fill:#242B38;}
	.st3{fill:#F02429;}
</style>
<path class="st0" d="M87.6,73.1c-2.4-3.8-3.9-8.2-3.9-13.1c0-13.2,10.7-24,24-24c1.7,0,3.3,0.2,4.8,0.5"/>
<path class="st1" d="M15.5,73.1c-2.4-3.8-3.9-8.2-3.9-13c0-10.9,7.3-20.1,17.2-23"/>
<g>
	
		<rect x="32.7" y="37.3" transform="matrix(2.556720e-03 -1 1 2.556720e-03 -2.8668 73.7175)" class="st2" width="5.6" height="1.9"/>
	<rect x="13.7" y="70.4" transform="matrix(0.8659 -0.5002 0.5002 0.8659 -33.477 17.8081)" class="st2" width="5.6" height="1.9"/>
	
		<rect x="51.9" y="48.4" transform="matrix(0.8664 -0.4994 0.4994 0.8664 -17.3316 33.9124)" class="st2" width="5.6" height="1.9"/>
	<rect x="53.7" y="68.6" transform="matrix(0.5001 -0.866 0.866 0.5001 -34.5227 83.0562)" class="st2" width="1.9" height="5.6"/>
	
		<rect x="15.5" y="46.5" transform="matrix(0.5022 -0.8648 0.8648 0.5022 -34.4906 38.7779)" class="st2" width="1.9" height="5.6"/>
	<g>
		<path class="st2" d="M11.3,74.4c-2.9-4-4.7-8.9-5-14c-0.2-5.1,0.8-10.4,3.3-15c1.2-2.3,2.8-4.4,4.6-6.4l1.4-1.4l0.7-0.7l0.8-0.6
			l1.6-1.2l1.7-1.1c4.5-2.8,9.9-4.2,15.2-4.3c5.3,0.1,10.7,1.4,15.2,4.2l1.7,1.1c0.5,0.4,1.1,0.8,1.6,1.2c1.1,0.8,2,1.8,2.9,2.7
			c1.8,2,3.4,4,4.6,6.4c2.6,4.6,3.6,9.9,3.4,15c-0.3,5.1-2,10.1-4.9,14c1.9-4.5,2.8-9.3,2.5-14l-0.2-1.7l-0.1-0.9l-0.2-0.9l-0.4-1.7
			c-0.2-0.6-0.4-1.1-0.5-1.7c-0.3-1.1-0.8-2.1-1.2-3.2c-0.3-0.5-0.5-1-0.8-1.5L58.6,48c-0.1-0.2-0.3-0.5-0.5-0.7l-0.9-1.4l-1.1-1.3
			l-0.5-0.7L55,43.2L53.8,42c-0.9-0.7-1.7-1.5-2.6-2.1c-0.5-0.3-0.9-0.7-1.4-1l-1.5-0.8c-0.5-0.3-1-0.5-1.5-0.8
			c-0.5-0.2-1-0.5-1.5-0.7c-1.1-0.4-2.1-0.8-3.2-1c-2.1-0.6-4.4-0.8-6.6-0.8c-2.2,0.1-4.5,0.2-6.6,0.9c-1.1,0.2-2.1,0.7-3.2,1
			c-0.5,0.2-1,0.5-1.5,0.7s-1,0.5-1.5,0.8L21.2,39l-1.4,1l-0.7,0.5L18.5,41l-1.3,1.1c-0.8,0.8-1.6,1.6-2.3,2.5
			c-0.4,0.4-0.7,0.9-1.1,1.3L13,47.4c-0.3,0.5-0.6,1-0.9,1.5c-0.3,0.5-0.6,1-0.8,1.5c-0.4,1.1-0.9,2.1-1.2,3.2
			c-0.8,2.2-1.1,4.5-1.3,6.8C8.4,65.1,9.3,69.9,11.3,74.4z"/>
	</g>
	<path class="st2" d="M107.5,56.6c-2,0.1-3.5,1.8-3.4,3.9c0.1,1.2,0.7,2.2,1.7,2.8l-0.9,3.6l2.9,0.6l0.6-3.7
		c1.8-0.3,3.2-1.9,3.1-3.8c-0.1-1.3-0.9-2.5-2-3l2.9-18.7L107.5,56.6z"/>
</g>
<g>
	<path class="st3" d="M30.1,74.3v4.4l0,0c0.3-0.5,0.7-0.8,1.1-1.1c0.5-0.2,0.9-0.3,1.3-0.3c0.6,0,1.1,0.1,1.5,0.3
		c0.4,0.2,0.7,0.4,0.9,0.7c0.2,0.3,0.4,0.7,0.5,1.1s0.1,0.9,0.1,1.4V86h-2.3v-4.8c0-0.7-0.1-1.2-0.3-1.6c-0.2-0.3-0.6-0.5-1.2-0.5
		c-0.6,0-1.1,0.2-1.4,0.6s-0.4,1-0.4,1.9V86h-2.3V74.3H30.1z"/>
	<path class="st3" d="M39.7,77.5v1.1l0,0c0.3-0.5,0.6-0.8,1.1-1c0.4-0.2,0.9-0.3,1.4-0.3c0.7,0,1.2,0.1,1.7,0.4s0.9,0.6,1.2,1
		s0.6,0.9,0.7,1.5c0.2,0.6,0.2,1.1,0.2,1.7s-0.1,1.1-0.2,1.6c-0.2,0.5-0.4,1-0.7,1.4s-0.7,0.7-1.2,1c-0.5,0.2-1,0.4-1.6,0.4
		c-0.5,0-1-0.1-1.5-0.3c-0.4-0.2-0.8-0.5-1.1-0.9l0,0v4h-2.3V77.5H39.7z M42.7,84.2c0.3-0.2,0.5-0.4,0.6-0.6
		c0.2-0.2,0.3-0.5,0.3-0.9c0.1-0.3,0.1-0.7,0.1-1s0-0.7-0.1-1s-0.2-0.6-0.4-0.9s-0.4-0.5-0.6-0.6S42.1,79,41.7,79
		c-0.4,0-0.7,0.1-1,0.2s-0.5,0.4-0.6,0.6c-0.2,0.3-0.3,0.5-0.3,0.9c-0.1,0.3-0.1,0.7-0.1,1s0,0.7,0.1,1s0.2,0.6,0.3,0.9
		c0.2,0.2,0.4,0.4,0.6,0.6c0.3,0.2,0.6,0.2,1,0.2C42.1,84.4,42.4,84.4,42.7,84.2z"/>
</g>
<g>
	
		<rect x="104.8" y="37.3" transform="matrix(2.556720e-03 -1 1 2.556720e-03 69.0491 145.8099)" class="st2" width="5.6" height="1.9"/>
	
		<rect x="85.8" y="70.4" transform="matrix(0.8659 -0.5002 0.5002 0.8659 -23.8074 53.8711)" class="st2" width="5.6" height="1.9"/>
	<rect x="124" y="48.4" transform="matrix(0.8664 -0.4994 0.4994 0.8664 -7.6968 69.9192)" class="st2" width="5.6" height="1.9"/>
	<rect x="125.8" y="68.6" transform="matrix(0.5001 -0.866 0.866 0.5001 1.525 145.4915)" class="st2" width="1.9" height="5.6"/>
	<rect x="87.6" y="46.5" transform="matrix(0.5022 -0.8648 0.8648 0.5022 1.4072 101.1248)" class="st2" width="1.9" height="5.6"/>
	<g>
		<path class="st2" d="M83.4,74.4c-2.9-4-4.7-8.9-5-14c-0.2-5.1,0.8-10.4,3.3-15c1.2-2.3,2.8-4.4,4.6-6.4l1.4-1.4l0.7-0.7l0.8-0.6
			l1.6-1.2l1.7-1.1c4.5-2.8,9.9-4.2,15.2-4.3c5.3,0.1,10.7,1.4,15.2,4.2l1.7,1.1c0.5,0.4,1.1,0.8,1.6,1.2c1.1,0.8,2,1.8,2.9,2.7
			c1.8,2,3.4,4,4.6,6.4c2.6,4.6,3.6,9.9,3.4,15c-0.3,5.1-2,10.1-4.9,14c1.9-4.5,2.8-9.3,2.5-14l-0.2-1.7l-0.1-0.9l-0.2-0.9l-0.4-1.7
			c-0.2-0.6-0.4-1.1-0.5-1.7c-0.3-1.1-0.8-2.1-1.2-3.2c-0.3-0.5-0.5-1-0.8-1.5l-0.4-0.8c-0.1-0.2-0.3-0.5-0.5-0.7l-0.9-1.4l-1.1-1.3
			l-0.5-0.7l-0.6-0.6l-1.2-1.2c-0.9-0.7-1.7-1.5-2.6-2.1c-0.5-0.3-0.9-0.7-1.4-1l-1.5-0.8c-0.5-0.3-1-0.5-1.5-0.8
			c-0.5-0.2-1-0.5-1.5-0.7c-1.1-0.4-2.1-0.8-3.2-1c-2.1-0.6-4.4-0.8-6.6-0.8c-2.2,0.1-4.5,0.2-6.6,0.9c-1.1,0.2-2.1,0.7-3.2,1
			c-0.5,0.2-1,0.5-1.5,0.7s-1,0.5-1.5,0.8L93.3,39L92,40l-0.7,0.5L90.6,41l-1.3,1.1c-0.8,0.8-1.6,1.6-2.3,2.5
			c-0.4,0.4-0.7,0.9-1.1,1.3L85,47.3c-0.3,0.5-0.6,1-0.9,1.5s-0.6,1-0.8,1.5c-0.4,1.1-0.9,2.1-1.2,3.2c-0.8,2.2-1.1,4.5-1.3,6.8
			C80.5,65.1,81.4,69.9,83.4,74.4z"/>
	</g>
</g>
<g>
	<path class="st3" d="M97.5,74.3l4.9,7.9l0,0v-7.9h2.4V86h-2.6l-4.9-7.8l0,0V86H95V74.3H97.5z"/>
	<path class="st3" d="M109.1,77.5v1.1l0,0c0.3-0.4,0.7-0.8,1.1-1s0.9-0.4,1.5-0.4c0.5,0,1,0.1,1.5,0.3c0.4,0.2,0.8,0.6,1,1.1
		c0.3-0.4,0.6-0.7,1-1s0.9-0.4,1.5-0.4c0.4,0,0.9,0.1,1.2,0.2s0.7,0.3,1,0.5s0.5,0.6,0.6,0.9c0.2,0.4,0.2,0.9,0.2,1.4V86h-2.3v-4.8
		c0-0.3,0-0.6,0-0.8c0-0.3-0.1-0.5-0.2-0.7s-0.2-0.3-0.4-0.4c-0.2-0.1-0.5-0.2-0.8-0.2s-0.6,0.1-0.8,0.2c-0.2,0.1-0.4,0.3-0.5,0.5
		s-0.2,0.4-0.2,0.7s-0.1,0.5-0.1,0.8V86h-2.3v-4.8c0-0.3,0-0.5,0-0.7S112,80,112,79.8c-0.1-0.2-0.2-0.4-0.4-0.5
		c-0.2-0.1-0.5-0.2-0.8-0.2c-0.1,0-0.3,0-0.4,0.1c-0.2,0-0.4,0.1-0.5,0.3c-0.2,0.1-0.3,0.3-0.4,0.6s-0.2,0.6-0.2,1V86H107v-8.5
		H109.1z"/>
</g>
<path class="st2" d="M33.7,56.9c-1.7,1.1-2.2,3.3-1.2,5c0.6,1,1.7,1.6,2.8,1.7l0.9,3.6l2.8-0.8l-1.2-3.5c1.5-1.1,1.9-3.2,0.9-4.8
	c-0.7-1.1-1.9-1.7-3.2-1.7l-6.3-17.8L33.7,56.9z"/>
<g>
	<g>
		<path class="st2" d="M40.6,105.6c0.2,0.3,0.4,0.6,0.7,0.8c0.3,0.2,0.6,0.4,1,0.5s0.8,0.2,1.2,0.2c0.3,0,0.6,0,0.9-0.1
			c0.3,0,0.6-0.1,0.9-0.3c0.3-0.1,0.5-0.3,0.7-0.5s0.3-0.5,0.3-0.9s-0.1-0.7-0.4-0.9c-0.2-0.2-0.6-0.4-1-0.6s-0.9-0.3-1.4-0.4
			s-1-0.3-1.5-0.4s-1.1-0.3-1.6-0.5s-1-0.4-1.4-0.8c-0.4-0.3-0.7-0.7-1-1.1c-0.2-0.5-0.4-1-0.4-1.7s0.2-1.4,0.5-1.9s0.7-1,1.2-1.3
			c0.5-0.4,1.1-0.6,1.7-0.8c0.6-0.2,1.3-0.3,1.9-0.3c0.7,0,1.5,0.1,2.2,0.2c0.7,0.2,1.3,0.4,1.8,0.8s1,0.8,1.3,1.4s0.5,1.3,0.5,2.1
			h-3c0-0.4-0.1-0.8-0.3-1.1s-0.4-0.5-0.6-0.7c-0.3-0.2-0.5-0.3-0.9-0.3c-0.3-0.1-0.7-0.1-1.1-0.1c-0.3,0-0.5,0-0.8,0.1
			s-0.5,0.1-0.7,0.3c-0.2,0.1-0.4,0.3-0.5,0.5s-0.2,0.5-0.2,0.8s0.1,0.5,0.2,0.7c0.1,0.2,0.3,0.3,0.6,0.5c0.3,0.1,0.7,0.3,1.3,0.4
			s1.3,0.3,2.2,0.6c0.3,0.1,0.6,0.2,1.1,0.3c0.5,0.1,0.9,0.4,1.4,0.7c0.5,0.3,0.9,0.7,1.2,1.2s0.5,1.2,0.5,2c0,0.7-0.1,1.3-0.4,1.8
			c-0.3,0.6-0.6,1-1.1,1.5c-0.5,0.4-1.1,0.7-1.9,1c-0.7,0.2-1.6,0.3-2.6,0.3c-0.8,0-1.6-0.1-2.3-0.3c-0.7-0.2-1.4-0.5-2-0.9
			s-1-0.9-1.4-1.6c-0.3-0.6-0.5-1.4-0.5-2.3h3C40.3,104.8,40.4,105.2,40.6,105.6z"/>
		<path class="st2" d="M57.6,94.8c0.9,0,1.7,0.1,2.3,0.4s1.1,0.6,1.5,1s0.7,0.9,0.9,1.5c0.2,0.5,0.3,1.1,0.3,1.7s-0.1,1.1-0.3,1.7
			s-0.5,1-0.9,1.5c-0.4,0.4-0.9,0.8-1.5,1c-0.6,0.3-1.4,0.4-2.3,0.4h-3.3v5.1h-3.1V94.8H57.6z M56.7,101.5c0.4,0,0.7,0,1-0.1
			s0.6-0.2,0.9-0.3s0.5-0.4,0.6-0.6c0.2-0.3,0.2-0.6,0.2-1.1s-0.1-0.8-0.2-1.1c-0.2-0.3-0.4-0.5-0.6-0.7s-0.5-0.3-0.9-0.3
			c-0.3-0.1-0.7-0.1-1-0.1h-2.4v4.3C54.3,101.5,56.7,101.5,56.7,101.5z"/>
		<path class="st2" d="M64.3,99c0.3-0.9,0.8-1.7,1.4-2.4c0.6-0.7,1.3-1.2,2.2-1.6c0.9-0.4,1.9-0.6,2.9-0.6c1.1,0,2.1,0.2,3,0.6
			s1.6,0.9,2.2,1.6s1.1,1.5,1.4,2.4s0.5,1.9,0.5,3c0,1-0.2,2-0.5,2.9s-0.8,1.7-1.4,2.3c-0.6,0.7-1.3,1.2-2.2,1.6
			c-0.9,0.4-1.9,0.6-3,0.6s-2.1-0.2-2.9-0.6c-0.9-0.4-1.6-0.9-2.2-1.6s-1.1-1.4-1.4-2.3s-0.5-1.9-0.5-2.9
			C63.9,100.9,64,99.9,64.3,99z M67.2,103.7c0.1,0.6,0.4,1.1,0.7,1.5s0.7,0.8,1.2,1.1c0.5,0.3,1.1,0.4,1.8,0.4s1.3-0.1,1.8-0.4
			s0.9-0.6,1.2-1.1s0.5-1,0.7-1.5c0.1-0.6,0.2-1.2,0.2-1.8c0-0.6-0.1-1.2-0.2-1.8c-0.1-0.6-0.4-1.1-0.7-1.6s-0.7-0.8-1.2-1.1
			c-0.5-0.3-1.1-0.4-1.8-0.4s-1.3,0.1-1.8,0.4s-0.9,0.6-1.2,1.1s-0.5,1-0.7,1.6c-0.1,0.6-0.2,1.2-0.2,1.8
			C67,102.6,67.1,103.2,67.2,103.7z"/>
		<path class="st2" d="M87.7,94.8c0.6,0,1.2,0.1,1.7,0.3c0.5,0.2,1,0.5,1.3,0.8c0.4,0.4,0.6,0.8,0.8,1.2c0.2,0.5,0.3,1,0.3,1.5
			c0,0.8-0.2,1.6-0.5,2.2c-0.4,0.6-0.9,1.1-1.7,1.4l0,0c0.4,0.1,0.7,0.3,1,0.5s0.5,0.5,0.6,0.8s0.3,0.6,0.3,1s0.1,0.7,0.2,1.1
			c0,0.2,0,0.5,0,0.8s0,0.6,0.1,0.9c0,0.3,0.1,0.6,0.2,0.9s0.2,0.5,0.3,0.7h-3.1c-0.2-0.5-0.3-1-0.3-1.6s-0.1-1.2-0.2-1.8
			c-0.1-0.7-0.3-1.3-0.7-1.6c-0.3-0.3-0.9-0.5-1.7-0.5h-3.1v5.6H80V94.8H87.7z M86.6,101.3c0.7,0,1.3-0.2,1.6-0.5
			c0.4-0.3,0.5-0.8,0.5-1.6c0-0.7-0.2-1.2-0.5-1.5s-0.9-0.5-1.6-0.5h-3.4v4L86.6,101.3L86.6,101.3z"/>
		<path class="st2" d="M93,97.4v-2.6h11.7v2.6h-4.3V109h-3.1V97.4H93z"/>
	</g>
</g>
</svg>
