<?xml version="1.0" encoding="utf-8"?>
<!-- Generator: Adobe Illustrator 25.0.1, SVG Export Plug-In . SVG Version: 6.00 Build 0)  -->
<svg version="1.1" id="_x33_617f0e1-5d4c-453c-9632-381f81550869"
	 xmlns="http://www.w3.org/2000/svg" xmlns:xlink="http://www.w3.org/1999/xlink" x="0px" y="0px" viewBox="0 0 113.4 113.4"
	 style="enable-background:new 0 0 113.4 113.4;" xml:space="preserve">
<style type="text/css">
	.st0{fill:#494C53;}
	.st1{fill:#F02429;}
</style>
<path class="st0" d="M19.3,40.7l7,18.7H22l-1.4-4.2h-7l-1.5,4.2H8l7.1-18.7H19.3L19.3,40.7z M19.5,52.2l-2.4-6.9h0l-2.4,6.9H19.5z"
	/>
<path class="st0" d="M36,40.7c1.1,0,2.3,0.2,3.4,0.6c1,0.4,1.9,1,2.6,1.7c0.8,0.8,1.4,1.8,1.8,2.9c0.5,1.3,0.7,2.7,0.6,4.1
	c0,1.3-0.2,2.5-0.5,3.8c-0.3,1.1-0.9,2.1-1.6,3c-0.7,0.9-1.6,1.5-2.7,2c-1.2,0.5-2.4,0.7-3.7,0.7h-8V40.7H36z M35.7,55.9
	c0.6,0,1.2-0.1,1.7-0.3c0.6-0.2,1.1-0.6,1.5-1c0.5-0.5,0.8-1.1,1-1.7c0.3-0.8,0.4-1.7,0.4-2.6c0-0.9-0.1-1.7-0.3-2.5
	c-0.2-0.7-0.5-1.4-0.9-2c-0.4-0.6-1-1-1.7-1.2c-0.8-0.3-1.7-0.5-2.6-0.4H32v11.9H35.7L35.7,55.9z"/>
<path class="st0" d="M50.6,40.7v6.8h0c0.5-0.7,1.1-1.2,1.9-1.5c0.8-0.3,1.6-0.5,2.5-0.5c1.5,0,2.8,0.6,3.8,1.7
	c0.6,0.6,1,1.4,1.3,2.2c0.7,2.1,0.7,4.3,0,6.4c-0.3,0.8-0.7,1.6-1.3,2.2c-1,1.1-2.3,1.7-3.8,1.7c-0.9,0-1.8-0.1-2.7-0.5
	c-0.8-0.3-1.4-0.9-1.8-1.6h-0.1v1.7h-3.5V40.7H50.6z M56.6,51c-0.1-0.5-0.3-1-0.6-1.4c-0.2-0.4-0.6-0.8-1-1c-0.9-0.5-2-0.5-2.8,0
	c-0.4,0.2-0.8,0.6-1,1C51,50,50.8,50.5,50.7,51c-0.1,0.5-0.2,1.1-0.2,1.7c0,0.5,0.1,1.1,0.2,1.6c0.1,0.5,0.3,1,0.6,1.4
	c0.2,0.4,0.6,0.8,1,1c0.9,0.5,2,0.5,2.8,0c0.4-0.2,0.8-0.6,1-1c0.3-0.4,0.5-0.9,0.6-1.4c0.1-0.5,0.2-1.1,0.2-1.6
	C56.9,52.1,56.8,51.5,56.6,51L56.6,51z"/>
<path class="st0" d="M66.8,40.7v18.7H63V40.7H66.8L66.8,40.7z"/>
<path class="st0" d="M78.9,59.4v-1.9h-0.1c-0.4,0.7-1.1,1.3-1.8,1.7c-0.7,0.3-1.5,0.5-2.3,0.5c-0.8,0-1.7-0.1-2.4-0.4
	c-0.6-0.2-1.1-0.6-1.5-1.1c-0.4-0.5-0.6-1.1-0.8-1.8c-0.2-0.8-0.2-1.5-0.2-2.3v-8.3h3.7v7.7c-0.1,0.9,0.1,1.7,0.5,2.5
	c0.4,0.6,1.1,0.9,1.9,0.8c0.8,0.1,1.7-0.3,2.2-0.9c0.5-0.9,0.8-2,0.7-3v-7.1h3.7v13.6H78.9z"/>
<path class="st0" d="M89.2,56.1c1.3,1,3,1.1,4.3,0.2c0.5-0.3,0.8-0.7,1-1.2h3.3c-0.4,1.4-1.2,2.6-2.4,3.5c-1.2,0.7-2.6,1.1-3.9,1
	c-1,0-2-0.2-2.9-0.5c-0.8-0.3-1.6-0.8-2.2-1.5c-0.6-0.6-1.1-1.4-1.4-2.2c-0.3-0.9-0.5-1.9-0.5-2.9c0-1,0.2-1.9,0.5-2.8
	c0.6-1.7,1.9-3.1,3.6-3.8c0.9-0.4,1.9-0.6,2.8-0.5c1,0,2.1,0.2,3,0.7c0.8,0.4,1.6,1,2.1,1.8c0.6,0.8,1,1.6,1.2,2.6
	c0.2,1,0.3,2,0.3,3h-9.8C88.2,54.5,88.6,55.4,89.2,56.1z M93.4,49c-0.5-0.5-1.3-0.8-2-0.7c-0.5,0-1,0.1-1.5,0.3
	c-0.4,0.2-0.7,0.4-0.9,0.8c-0.2,0.3-0.4,0.6-0.5,0.9c-0.1,0.3-0.1,0.6-0.2,0.9h6.1C94.3,50.4,93.9,49.6,93.4,49z"/>
<path class="st0" d="M99.6,42.8c0.3-0.7,0.7-1.3,1.3-1.8c0.5-0.5,1.2-0.9,1.9-1.2c1.4-0.5,3-0.5,4.4,0c0.7,0.3,1.3,0.7,1.9,1.2
	c0.5,0.5,1,1.1,1.3,1.8c1.3,2.8,0.1,6.2-2.7,7.5c-0.1,0.1-0.3,0.1-0.4,0.2c-1.4,0.5-3,0.5-4.4,0c-0.7-0.3-1.3-0.6-1.9-1.2
	c-0.5-0.5-1-1.1-1.3-1.8C98.9,46,98.9,44.3,99.6,42.8z M101,47c0.2,0.5,0.5,1,0.9,1.4c0.4,0.4,0.9,0.7,1.4,0.9
	c1.1,0.4,2.3,0.4,3.4,0c0.5-0.2,1-0.5,1.4-0.9c0.4-0.4,0.7-0.9,0.9-1.4c0.2-0.6,0.3-1.2,0.3-1.8c0-0.6-0.1-1.2-0.3-1.8
	c-0.2-0.5-0.5-1-0.9-1.4c-0.8-0.8-1.9-1.3-3-1.3c-0.6,0-1.2,0.1-1.7,0.3c-0.5,0.2-1,0.5-1.4,0.9c-0.4,0.4-0.7,0.9-0.9,1.4
	c-0.2,0.6-0.3,1.2-0.3,1.8C100.7,45.8,100.8,46.4,101,47z M105.1,42c0.6,0,1.3,0.1,1.9,0.4c0.5,0.3,0.7,0.9,0.7,1.5
	c0,0.3,0,0.5-0.1,0.8c-0.1,0.2-0.2,0.4-0.4,0.5c-0.2,0.1-0.3,0.2-0.5,0.3c-0.2,0.1-0.4,0.1-0.7,0.1l1.7,2.8h-1.3l-1.6-2.7H104v2.7
	h-1.3V42H105.1L105.1,42z M105.1,44.7c0.3,0,0.6,0,0.9-0.2c0.3-0.1,0.4-0.4,0.3-0.7c0-0.1,0-0.3-0.1-0.4c-0.1-0.1-0.2-0.2-0.3-0.2
	c-0.1-0.1-0.3-0.1-0.4-0.1l-0.5,0h-1v1.7L105.1,44.7L105.1,44.7z"/>
<path class="st1" d="M48,70.5c-0.2-0.3-0.5-0.6-0.9-0.8c-0.9-0.4-1.9-0.4-2.7,0c-0.4,0.2-0.7,0.5-0.9,0.8c-0.2,0.4-0.4,0.8-0.5,1.2
	c-0.1,0.5-0.2,0.9-0.2,1.4c0,0.5,0.1,0.9,0.2,1.3c0.1,0.4,0.3,0.8,0.5,1.2c0.2,0.3,0.5,0.6,0.9,0.8c0.9,0.4,1.9,0.4,2.7,0
	c0.3-0.2,0.6-0.5,0.8-0.8c0.2-0.4,0.4-0.8,0.5-1.2c0.1-0.4,0.2-0.9,0.2-1.3c0-0.5-0.1-0.9-0.2-1.4C48.4,71.3,48.2,70.9,48,70.5z"/>
<path class="st1" d="M66.5,64.3H45.6c-4.8,0-8.7,3.9-8.7,8.7c0,0,0,0,0,0v0.2c0,4.8,3.9,8.7,8.7,8.7h20.9c4.8,0,8.7-3.9,8.7-8.7V73
	C75.2,68.2,71.3,64.3,66.5,64.3C66.5,64.3,66.5,64.3,66.5,64.3z M50.7,75.3c-0.2,0.7-0.6,1.3-1,1.8c-0.5,0.5-1,1-1.7,1.2
	c-1.4,0.6-3.1,0.6-4.5,0c-0.6-0.3-1.2-0.7-1.7-1.2c-0.5-0.5-0.8-1.1-1-1.8c-0.2-0.7-0.4-1.5-0.4-2.2c0-0.8,0.1-1.5,0.4-2.3
	c0.2-0.7,0.6-1.3,1-1.9c0.5-0.5,1-0.9,1.7-1.2c1.4-0.6,3.1-0.6,4.5,0c0.6,0.3,1.2,0.7,1.7,1.2c0.5,0.5,0.8,1.2,1,1.8
	c0.3,0.7,0.4,1.5,0.4,2.3C51.1,73.8,51,74.6,50.7,75.3L50.7,75.3z M60.7,69.6h-5.3v2.5H60V74h-4.6v4.5H53V67.6h7.7L60.7,69.6
	L60.7,69.6z M70.3,69.6h-5.3v2.5h4.6V74h-4.6v4.5h-2.4V67.6h7.7V69.6L70.3,69.6z"/>
</svg>
