<svg xmlns="http://www.w3.org/2000/svg" xmlns:xlink="http://www.w3.org/1999/xlink" viewBox="0 0 259.29 126.39"><defs><style>.cls-1{fill:url(#Dégradé_sans_nom_8);}.cls-2{fill:#484d53;}</style><linearGradient id="Dégradé_sans_nom_8" x1="203.96" y1="128.97" x2="203.96" y2="1.13" gradientUnits="userSpaceOnUse"><stop offset="0" stop-color="#747887"/><stop offset="1" stop-color="#484d52"/></linearGradient></defs><g id="Calque_2" data-name="Calque 2"><g id="Calque_2-2" data-name="Calque 2"><g id="S0"><path class="cls-1" d="M197.41,80.76c-18,0-21,.65-23.54,5.12-2.05,3.53-4.94,15.82-4.94,21.13,0,5.77,2.79,6.79,18.8,6.79,8.38,0,13.13-.09,16.39-.37,7.26-.65,10-3.45,12.19-12.47,1.58-7,2.33-11.17,2.33-13.69C218.64,81.41,216.5,80.76,197.41,80.76ZM242.29,1.13H190.54L176.66,66.36c4.6-.6,10.87-.77,21.78-.77,25,0,28.67.28,34.06,3,3.91,2,6,6.33,6,12.66,0,3.26-.65,7.45-3.07,18.62-2.33,10.52-4.28,15.73-7.73,19.92a21.65,21.65,0,0,1-9.25,6.6h18.21l22.29-104.7A17,17,0,0,0,242.29,1.13Z"/><path class="cls-2" d="M40.14,85.69a36.28,36.28,0,0,0-.75,6.54c0,3.36,2.06,5.6,5.42,6.34,3.54.75,13.81,1.31,23.33,1.31,15.69,0,31.55-.37,36.22-.93,11.39-1.31,15.87-5.23,15.87-13.63,0-3.55-1.68-6.16-4.48-7.1-3.73-1.3-3.73-1.3-23.52-1.49H57.88c-17,0-27.45-.93-33.42-2.8-9.34-3-14-9.33-14-19.23,0-14.37,5.78-32.48,12.88-40.32C33.6,3,49.29,0,98,0c37.16,0,46.3.75,55.45,4.29,7.66,3,11.58,9.15,11.58,18.49,0,4.48-.56,9-2.43,16.24H125.83a27.11,27.11,0,0,0,.56-4.3c0-6.72-4.48-8-26.32-8-15.5,0-32.11.56-38.09,1.12-7.65.74-12.32,5.6-12.32,12.69a6.74,6.74,0,0,0,2.8,5.79c3.17,2.05,3.36,2.05,18.48,2.43h35.29c2.24,0,8.59.18,18.48.56,13.82.56,18.3,1.12,23.71,3.73,7.47,3.17,11,9.33,11,18.86,0,14.18-5.22,31.17-12.32,39.57-10.08,12-25.76,14.94-77.66,14.94-32.86,0-42.94-.56-52.65-2.61C5.23,121.16,0,115.19,0,104.92c0-5.6.56-9.52,3-19.23Z"/></g></g></g></svg>