<svg xmlns="http://www.w3.org/2000/svg" xmlns:xlink="http://www.w3.org/1999/xlink" viewBox="0 0 259.28 126.39"><defs><style>.cls-1{fill:url(#Dégradé_sans_nom_22);}.cls-2{fill:#484d53;}</style><linearGradient id="Dégradé_sans_nom_22" x1="211" y1="128.95" x2="211" y2="1.13" gradientUnits="userSpaceOnUse"><stop offset="0" stop-color="#099ab9"/><stop offset="1" stop-color="#0054c2"/></linearGradient></defs><g id="Calque_2" data-name="Calque 2"><g id="Calque_2-2" data-name="Calque 2"><g id="S1_" data-name="S1+"><path class="cls-1" d="M163.88,126.36h20.66l9.73-45.7L170.54,95.09ZM242.29,1.13H190.54l-16.17,76,18.5-10.85h22.62l-12.8,60.12h19.89l2.3-10.92H210.21l1.45-7h14.73L229.23,95h7l-2.84,13.52h7.07l18.49-86.82A17,17,0,0,0,242.29,1.13ZM229.54,126.36h7.08l2.32-10.92h-7.1Z"/><path class="cls-2" d="M40.14,85.69a36.28,36.28,0,0,0-.75,6.54c0,3.36,2.06,5.6,5.42,6.34,3.54.75,13.81,1.31,23.33,1.31,15.69,0,31.55-.37,36.22-.93,11.39-1.31,15.87-5.23,15.87-13.63,0-3.55-1.68-6.16-4.48-7.1-3.73-1.3-3.73-1.3-23.52-1.49H57.88c-17,0-27.45-.93-33.42-2.8-9.34-3-14-9.33-14-19.23,0-14.37,5.78-32.48,12.88-40.32C33.6,3,49.29,0,98,0c37.16,0,46.3.75,55.45,4.29,7.66,3,11.58,9.15,11.58,18.49,0,4.48-.56,9-2.43,16.24H125.83a27.11,27.11,0,0,0,.56-4.3c0-6.72-4.48-8-26.32-8-15.5,0-32.11.56-38.09,1.12-7.65.74-12.32,5.6-12.32,12.69a6.74,6.74,0,0,0,2.8,5.79c3.17,2.05,3.36,2.05,18.48,2.43h35.29c2.24,0,8.59.18,18.48.56,13.82.56,18.3,1.12,23.71,3.73,7.47,3.17,11,9.34,11,18.86,0,14.18-5.22,31.17-12.32,39.58C137,123.4,121.35,126.39,69.45,126.39c-32.86,0-42.94-.56-52.65-2.61C5.23,121.16,0,115.19,0,104.92c0-5.6.56-9.52,3-19.23Z"/></g></g></g></svg>