<?xml version="1.0" encoding="utf-8"?>
<!-- Generator: Adobe Illustrator 25.0.1, SVG Export Plug-In . SVG Version: 6.00 Build 0)  -->
<svg version="1.1" id="ad367799-6dc2-4aed-90b0-e3a682731298"
	 xmlns="http://www.w3.org/2000/svg" xmlns:xlink="http://www.w3.org/1999/xlink" x="0px" y="0px" viewBox="0 0 113.4 113.4"
	 style="enable-background:new 0 0 113.4 113.4;" xml:space="preserve">
<style type="text/css">
	.st0{fill:#494C53;}
	.st1{fill:#F02429;}
</style>
<path class="st0" d="M38.3,69.3c-0.6,0-1.2-0.3-1.6-0.7c-9.7-11.2-8.5-28.1,2.7-37.8s28.1-8.5,37.8,2.7c8.1,9.3,8.7,23,1.6,33.1
	c-0.7,1-2,1.2-3,0.5s-1.2-2-0.5-3c7.2-10.1,4.8-24.2-5.3-31.4s-24.2-4.8-31.4,5.3c-6,8.5-5.5,19.9,1.3,27.8c0.8,0.9,0.7,2.3-0.2,3
	C39.4,69.1,38.9,69.3,38.3,69.3z"/>
<polygon class="st0" points="73.3,58.3 69.3,72.3 83.5,68.7 "/>
<path class="st1" d="M50.3,84.6c-0.2-0.3-0.5-0.6-0.9-0.8c-0.9-0.4-1.9-0.4-2.7,0c-0.4,0.2-0.7,0.5-0.9,0.8
	c-0.2,0.4-0.4,0.8-0.5,1.2c-0.1,0.5-0.2,0.9-0.2,1.4c0,0.4,0.1,0.9,0.2,1.3c0.1,0.4,0.3,0.8,0.5,1.2c0.2,0.3,0.5,0.6,0.9,0.8
	c0.9,0.4,1.9,0.4,2.7,0c0.4-0.2,0.7-0.5,0.9-0.8c0.2-0.4,0.4-0.8,0.5-1.2c0.1-0.4,0.2-0.9,0.2-1.3c0-0.5-0.1-0.9-0.2-1.4
	C50.7,85.3,50.6,84.9,50.3,84.6z"/>
<path class="st1" d="M68.8,78.3H47.9c-4.8,0-8.7,3.9-8.7,8.7v0.2c0,4.8,3.9,8.7,8.7,8.7h20.9c4.8,0,8.7-3.9,8.7-8.7V87
	C77.5,82.2,73.6,78.3,68.8,78.3z M53,89.4c-0.2,0.7-0.6,1.3-1,1.8c-0.5,0.5-1,0.9-1.7,1.2c-1.4,0.6-3.1,0.6-4.5,0
	c-0.6-0.3-1.2-0.7-1.7-1.2c-0.5-0.5-0.8-1.1-1-1.8c-0.2-0.7-0.4-1.5-0.4-2.2c0-0.8,0.1-1.5,0.4-2.3c0.2-0.7,0.6-1.3,1-1.8
	c0.5-0.5,1-0.9,1.7-1.2c1.4-0.6,3.1-0.6,4.5,0c0.6,0.3,1.2,0.7,1.7,1.2c0.4,0.5,0.8,1.2,1,1.8c0.3,0.7,0.4,1.5,0.4,2.3
	C53.4,87.9,53.3,88.7,53,89.4z M63,83.7h-5.3v2.5h4.5v1.9h-4.5v4.5h-2.4V81.7H63V83.7L63,83.7z M72.6,83.7h-5.3v2.5h4.6v1.9h-4.6
	v4.5H65V81.7h7.7L72.6,83.7L72.6,83.7z"/>
<path class="st0" d="M59.8,36.4L69,61h-5.6l-1.9-5.5h-9.2L50.4,61H45l9.3-24.6L59.8,36.4L59.8,36.4z M60.1,51.5l-3.1-9h0l-3.2,9
	H60.1L60.1,51.5z"/>
</svg>
