<?xml version="1.0" encoding="utf-8"?>
<!-- Generator: Adobe Illustrator 25.0.1, SVG Export Plug-In . SVG Version: 6.00 Build 0)  -->
<svg version="1.1" id="Layer_1" xmlns="http://www.w3.org/2000/svg" xmlns:xlink="http://www.w3.org/1999/xlink" x="0px" y="0px"
	 viewBox="0 0 141.7 141.7" style="enable-background:new 0 0 141.7 141.7;" xml:space="preserve">
<style type="text/css">
	.st0{fill-rule:evenodd;clip-rule:evenodd;fill:url(#path3197_1_);}
	.st1{fill:#242B38;stroke:#242B38;stroke-width:3.97;stroke-linecap:round;stroke-linejoin:round;}
	.st2{fill:#242B38;}
	.st3{fill-rule:evenodd;clip-rule:evenodd;fill:#F02429;}
	.st4{fill:#F02429;}
	.st5{fill:#242B38;stroke:#242B38;stroke-width:4.2241;stroke-linecap:round;stroke-linejoin:round;}
	.st6{fill:none;stroke:#242B38;stroke-width:4.2241;stroke-linecap:round;stroke-linejoin:round;}
</style>
<linearGradient id="path3197_1_" gradientUnits="userSpaceOnUse" x1="148.4357" y1="414.6996" x2="196.6357" y2="414.6996" gradientTransform="matrix(1 0 0 1 -100.0357 -344.0562)">
	<stop  offset="0" style="stop-color:#AF2429"/>
	<stop  offset="1" style="stop-color:#FFA7A7"/>
</linearGradient>
<path id="path3197" class="st0" d="M48.4,68.2v-7.5c0-11.3,48.2,13.8,48.2,15.5v7.3C96.5,81.9,48.4,55.5,48.4,68.2z"/>
<path class="st1" d="M486.8,108h9.1c1.6,0,3,1.3,3,3v18.8c0,1.6-1.3,3-3,3h-9.1c-1.6,0-3-1.3-3-3V111
	C483.8,109.4,485.2,108,486.8,108z"/>
<path class="st2" d="M512.8,57.5c0-2.9-2.3-5.2-5.2-5.2l0,0h-32.4c-2.9,0-5.2,2.3-5.2,5.2l0,0v2.6h42.9L512.8,57.5L512.8,57.5z"/>
<rect x="469.9" y="61.7" class="st2" width="42.9" height="6"/>
<path class="st2" d="M512.8,90.4v-21h-42.9v21c0,1.7,1.1,3.2,2.7,3.6c12.2,3.7,25.2,3.7,37.5,0C511.7,93.5,512.8,92,512.8,90.4z"/>
<path class="st2" d="M495.9,116.4c0.2,0,0.5,0,0.7,0l0,0V86.5c-1.6,0.1-3.2,0.1-4.9,0.1s-3.8,0-5.6-0.1v1.8l0,0v28.2l0,0
	c0.2,0,0.5,0,0.7,0L495.9,116.4z"/>
<path id="path3193" class="st3" d="M54.9,92.4v-5L46.5,96l8.4,9.2v-5.5c9.8,0,41.6-9.9,41.6-16.2v-7.4
	C96.5,81.8,74.1,90.9,54.9,92.4z"/>
<path id="path3177" class="st3" d="M48.3,60.7v7.5c16.8,8.6,48.2-7,48.2-13.4v-7.9C96.4,50.1,66.8,69.9,48.3,60.7z"/>
<path class="st4" d="M60.3,17.7c-0.2-0.4-0.6-0.8-1-1c-1-0.5-2.2-0.5-3.2,0c-0.4,0.2-0.8,0.6-1,1c-0.3,0.4-0.5,0.9-0.6,1.4
	s-0.2,1.1-0.2,1.6s0.1,1,0.2,1.5c0.1,0.5,0.3,0.9,0.6,1.3c0.2,0.4,0.6,0.8,1,1c1,0.5,2.2,0.5,3.2,0c0.4-0.2,0.8-0.6,1-1
	c0.3-0.4,0.5-0.9,0.6-1.3c0.1-0.5,0.2-1,0.2-1.5s-0.1-1.1-0.2-1.6C60.7,18.6,60.5,18.1,60.3,17.7z"/>
<path class="st4" d="M81.5,10.5h-24c-5.5,0-10,4.5-10,10v0.2c0,5.5,4.5,10,10,10h24c5.5,0,10-4.5,10-10v-0.2
	C91.5,15,87,10.5,81.5,10.5z M63.4,23.2c-0.3,0.8-0.7,1.5-1.2,2.1s-1.2,1.1-1.9,1.4c-1.7,0.7-3.5,0.7-5.2,0
	c-0.7-0.3-1.4-0.8-1.9-1.4S52.3,24,52,23.2c-0.3-0.8-0.4-1.7-0.4-2.6s0.1-1.8,0.4-2.6c0.3-0.8,0.7-1.5,1.2-2.1s1.2-1.1,1.9-1.4
	c1.7-0.7,3.5-0.7,5.2,0c0.7,0.3,1.4,0.8,1.9,1.4c0.5,0.6,0.9,1.3,1.2,2.1c0.3,0.8,0.4,1.7,0.4,2.6C63.8,21.6,63.7,22.4,63.4,23.2z
	 M74.8,16.7h-6.1v2.9H74v2.1h-5.2v5.1H66V14.4h8.8V16.7z M85.9,16.7h-6v2.9h5.2v2.1h-5.3v5.1H77V14.4h8.8v2.3H85.9z"/>
<g>
	<g>
		<g>
			<path class="st5" d="M70.8,107.2c-19.4,0-31.5,3-31.5,7.9c0,0.4,0.1,0.8,0.3,1.2c0.1,0.1,0.1,0.3,0.2,0.4
				c0.1,0.3,0.3,0.5,0.6,0.7c0.2,0.2,0.4,0.4,0.6,0.5c0.2,0.2,0.5,0.4,0.8,0.6c0.2,0.1,0.4,0.2,0.6,0.3c0.5,0.2,0.9,0.5,1.5,0.7l0,0
				c7,2.8,20.1,3.3,25.2,3.4c0.6,0,1.2,0,1.8,0c0.6,0,1.2,0,1.8,0c5.1-0.1,18.2-0.6,25.2-3.4l0,0c0.5-0.2,1-0.5,1.5-0.7
				c0.2-0.1,0.4-0.2,0.6-0.3c0.3-0.2,0.6-0.4,0.8-0.6c0.2-0.2,0.4-0.4,0.6-0.5c0.2-0.2,0.4-0.5,0.6-0.7c0.1-0.1,0.1-0.2,0.2-0.4
				c0.2-0.4,0.3-0.8,0.3-1.2C102.3,110.2,90.3,107.2,70.8,107.2z"/>
			<path class="st5" d="M70.8,52.7c19.4,0,31.5-3,31.5-7.9c0-0.3-0.1-0.6-0.2-0.8c-1.8-6.1-22.9-6.9-29.5-7c-0.6,0-1.2,0-1.8,0
				s-1.2,0-1.8,0c-6.7,0.1-27.7,0.9-29.5,7c-0.1,0.3-0.2,0.5-0.2,0.8C39.4,49.7,51.4,52.7,70.8,52.7z"/>
			<path class="st6" d="M39.4,47.1v65.7c5.3-3.5,15.8-5.3,31.5-5.3s26.2,1.8,31.5,5.3V47.1c-5.3,3.5-15.8,5.3-31.5,5.3
				S44.6,50.6,39.4,47.1z"/>
		</g>
	</g>
</g>
</svg>
