<?xml version="1.0" encoding="utf-8"?>
<!-- Generator: Adobe Illustrator 25.3.1, SVG Export Plug-In . SVG Version: 6.00 Build 0)  -->
<svg version="1.1"
	 id="svg37" inkscape:version="0.92.4 (5da689c313, 2019-01-14)" sodipodi:docname="OLSXAnalyze.svg" xmlns:cc="http://creativecommons.org/ns#" xmlns:dc="http://purl.org/dc/elements/1.1/" xmlns:inkscape="http://www.inkscape.org/namespaces/inkscape" xmlns:rdf="http://www.w3.org/1999/02/22-rdf-syntax-ns#" xmlns:sodipodi="http://sodipodi.sourceforge.net/DTD/sodipodi-0.dtd" xmlns:svg="http://www.w3.org/2000/svg"
	 xmlns="http://www.w3.org/2000/svg" xmlns:xlink="http://www.w3.org/1999/xlink" x="0px" y="0px" viewBox="0 0 113.4 113.4"
	 style="enable-background:new 0 0 113.4 113.4;" xml:space="preserve">
<style type="text/css">
	.st0{fill:none;stroke:#494C53;stroke-width:3;stroke-miterlimit:10;}
	.st1{fill:#494C53;}
	.st2{fill:#f02429;}
	.st3{enable-background:new    ;}
	.st4{fill:#FFFFFF;}
</style>
<sodipodi:namedview  bordercolor="#666666" borderopacity="1" gridtolerance="10" guidetolerance="10" id="namedview39" inkscape:current-layer="Calque_3" inkscape:cx="59.929305" inkscape:cy="58.942223" inkscape:pageopacity="0" inkscape:pageshadow="2" inkscape:window-height="2050" inkscape:window-maximized="1" inkscape:window-width="3840" inkscape:window-x="-12" inkscape:window-y="-12" inkscape:zoom="11.772642" objecttolerance="10" pagecolor="#ffffff" showgrid="false">
	</sodipodi:namedview>
<g id="Calque_1">
</g>
<g id="Calque_2">
</g>
<g id="Calque_3">
	<path id="path26" class="st0" d="M1.3,75.5c0,0,3.1-4.3,8-4.3c4.8,0,93.4,0,95.2,0c4.5,0,7.1,2,7.1,2"/>
	<path id="path28" class="st1" d="M58.6,96.9c0,0-1.3,0.3-2.8,0.3S53,96.9,53,96.9l-2.1-25.7h9.8L58.6,96.9z"/>
	<g id="g34">
		<g id="g32">
			<path id="path30" class="st1" d="M26,54.3c-4.2,0-7.6,3.4-7.6,7.6s3.4,7.6,7.6,7.6s7.6-3.4,7.6-7.6S30.2,54.3,26,54.3z M26,67.1
				c-2.8,0-5.2-2.3-5.2-5.2c0-2.8,2.3-5.2,5.2-5.2c2.8,0,5.2,2.3,5.2,5.2C31.2,64.8,28.9,67.1,26,67.1z M101.3,54.5
				c-0.6-0.6-0.7-0.7-0.6-2.4c0.1-3.5,0.9-5.4-2.6-5.9c-1.9-0.3-3.9-0.6-5.9-0.7c-6.3-2.7-11.5-5.9-15.5-7.2
				c-5-1.5-9.9-1.7-15.1-1.5c-3.8,0.1-7.5,0.5-11.1,1.4c-6.3,1.6-11.8,5.5-16.9,8.6c-7.1,0-14.1,1.6-20.9,3.7c-6,2.5-2.5,6.4-1.5,11
				c0.4,1.9,0.5,2.8,2.7,3.3c0.6,0.1,1.7,0.2,2.3,0.2c-0.3-1-0.5-2-0.5-3.1c0-2.8,1.1-5.3,3-7.2c1.8-1.8,4.4-3,7.2-3
				c5.6,0,10.2,4.6,10.2,10.2c0,1.7-0.4,3.3-1.2,4.7l0.9,0.1h38.5c-0.8-1.4-1.2-3.1-1.2-4.8c0-5.6,4.6-10.2,10.2-10.2
				c2.8,0,5.3,1.1,7.2,3c1.8,1.8,3,4.4,3,7.2c0,1.3-0.2,2.5-0.7,3.7c0.2,0,0.4-0.1,0.7-0.1c1.8-0.4,3.5-0.9,5.3-1.4
				c2-0.5,3.4-2.6,3.4-5.9C102.2,56.4,102,54.9,101.3,54.5z M58,47.1c-4.9,0-9.8-0.1-14.7,0c0.1-1,0.4-1.8-1.3-2.3
				c4.2-2.6,8.9-6.4,18.2-6.5C59.3,40.8,58.6,44.6,58,47.1z M61.7,47.1c0.1-2.4,0.4-6.2,0.8-8.9c4-0.2,18.3,1.5,18.3,8.9H61.7z
				 M83.4,54.3c-4.2,0-7.6,3.4-7.6,7.6s3.4,7.6,7.6,7.6s7.6-3.4,7.6-7.6S87.6,54.3,83.4,54.3z M83.4,67.1c-2.9,0-5.2-2.3-5.2-5.2
				c0-2.8,2.3-5.2,5.2-5.2c2.8,0,5.2,2.3,5.2,5.2C88.6,64.8,86.2,67.1,83.4,67.1z"/>
		</g>
	</g>
	<path id="rect4569" class="st2" d="M37.7,9.6H80c5,0,9.1,4.1,9.1,9.1l0,0c0,5-4.1,9.1-9.1,9.1H37.7c-5,0-9.1-4.1-9.1-9.1l0,0
		C28.6,13.7,32.7,9.6,37.7,9.6z"/>
	<g class="st3">
		<path class="st4" d="M42.7,22.7c-0.4,0.2-0.8,0.4-1.1,0.5s-0.8,0.2-1.2,0.2s-0.8,0.1-1.2,0.1c-0.8,0-1.5-0.1-2.1-0.3
			c-0.6-0.2-1.2-0.5-1.6-1c-0.5-0.4-0.8-0.9-1-1.5S34,19.5,34,18.8c0-0.8,0.1-1.5,0.4-2c0.3-0.6,0.6-1.1,1.1-1.5
			c0.5-0.4,1-0.7,1.7-0.9c0.6-0.2,1.3-0.3,2-0.3c1,0,2.2,0.2,3.5,0.7v2.4c-0.4-0.3-0.9-0.5-1.3-0.7c-0.4-0.2-0.9-0.3-1.5-0.3
			c-0.5,0-1,0.1-1.5,0.3c-0.5,0.2-0.8,0.5-1.1,0.9c-0.3,0.4-0.4,0.8-0.4,1.4c0,0.5,0.1,0.9,0.4,1.3c0.2,0.4,0.6,0.7,1,0.9
			c0.4,0.2,0.9,0.3,1.5,0.3c0.4,0,0.9-0.1,1.2-0.2s0.7-0.2,1-0.4s0.5-0.3,0.8-0.5V22.7z"/>
		<path class="st4" d="M54,23.4h-2.7v-3.5h-4.1v3.5h-2.7v-9h2.7v3.3h4.1v-3.3H54V23.4z"/>
		<path class="st4" d="M63.1,23.4h-6.8v-9H63v1.8h-4v1.7h3.8v1.8H59v1.9h4.1V23.4z"/>
		<path class="st4" d="M73,22.7c-0.4,0.2-0.8,0.4-1.1,0.5s-0.8,0.2-1.2,0.2c-0.4,0-0.8,0.1-1.2,0.1c-0.8,0-1.5-0.1-2.1-0.3
			c-0.6-0.2-1.2-0.5-1.6-1c-0.5-0.4-0.8-0.9-1-1.5c-0.2-0.6-0.3-1.2-0.3-1.9c0-0.8,0.1-1.5,0.4-2c0.3-0.6,0.6-1.1,1.1-1.5
			c0.5-0.4,1-0.7,1.7-0.9s1.3-0.3,2-0.3c1,0,2.2,0.2,3.5,0.7v2.4c-0.4-0.3-0.9-0.5-1.3-0.7c-0.4-0.2-0.9-0.3-1.5-0.3
			c-0.5,0-1,0.1-1.5,0.3c-0.5,0.2-0.8,0.5-1.1,0.9c-0.3,0.4-0.4,0.8-0.4,1.4c0,0.5,0.1,0.9,0.4,1.3s0.6,0.7,1,0.9
			c0.4,0.2,0.9,0.3,1.5,0.3c0.4,0,0.9-0.1,1.2-0.2s0.7-0.2,1-0.4c0.3-0.1,0.5-0.3,0.8-0.5V22.7z"/>
		<path class="st4" d="M84.3,23.4H81l-3.5-4.2v4.2h-2.7v-9h2.7v4l3.3-4h3l-3.4,4.2L84.3,23.4z"/>
	</g>
</g>
</svg>
