<?xml version="1.0" encoding="utf-8"?>
<!-- Generator: Adobe Illustrator 25.0.1, SVG Export Plug-In . SVG Version: 6.00 Build 0)  -->
<svg version="1.1" id="Calque_1" xmlns="http://www.w3.org/2000/svg" xmlns:xlink="http://www.w3.org/1999/xlink" x="0px" y="0px"
	 viewBox="0 0 113.4 113.4" style="enable-background:new 0 0 113.4 113.4;" xml:space="preserve">
<style type="text/css">
	.st0{fill:#444343;}
	.st1{fill:#F02429;}
	.st2{fill:#FFFFFF;}
	.st3{fill:none;stroke:#C50000;stroke-width:14.4796;stroke-miterlimit:10;}
</style>
<g id="Calque_2_1_">
</g>
<g id="Calque_1_1_">
	<g id="Calque_3">
		<path class="st0" d="M75.7,80.6L73,79.3c2-4.1,2.9-8.6,2.8-13.2c-0.1-5.3-1.6-10.5-4.3-14.9l2.5-1.5c3,4.9,4.6,10.6,4.7,16.4
			C78.9,71.1,77.8,76,75.7,80.6z M69.7,48.3c-1.6-2.1-3.6-4-5.7-5.7l1.8-2.3c2.4,1.8,4.5,3.9,6.3,6.2L69.7,48.3z"/>
		<path class="st0" d="M45.8,27.4C24.1,27.4,6.5,45,6.5,66.7c0,6.9,1.8,13.7,5.3,19.7c0.4,0.8,1.2,1.2,2,1.2c0.4,0,0.8-0.1,1.2-0.3
			c1.1-0.7,1.5-2.1,0.9-3.2c-3-5.2-4.6-11.2-4.6-17.3c0-19.1,15.5-34.6,34.6-34.6s34.6,15.5,34.6,34.6c0,6.1-1.6,12-4.6,17.2
			c-0.6,1.1-0.3,2.6,0.9,3.2c1.1,0.6,2.6,0.3,3.2-0.9c3.4-5.9,5.2-12.7,5.2-19.6C85.1,45,67.5,27.4,45.8,27.4L45.8,27.4z"/>
		<path class="st1" d="M43.3,66.2c-0.2,1.3,0.4,2.4,1.5,2.9c0.4,0.2,0.9,0.2,1.5,0.2l1.7,2c0.1,0.1,0.1,0.2,0.3,0.2
			c0.8,0.6,2.2,0.5,2.8-0.4s0.5-2.2-0.4-2.8l-2-1.6c0-1-0.6-2-1.6-2.5c-0.7-0.3-1.2-0.3-1.8-0.2L29.7,51.9L43.3,66.2z"/>
		<path class="st0" d="M48.6,65.9c-0.3-1.2-1.4-2-2.6-2c-0.5,0-1,0.1-1.4,0.4l-2.4-1c-0.1,0-0.2-0.1-0.3-0.1
			c-1.1-0.3-2.2,0.4-2.4,1.5c-0.3,1.1,0.4,2.2,1.5,2.4l2.6,0.6c0.4,1,1.4,1.6,2.5,1.6c0.6,0,1.2-0.2,1.7-0.6l19.1,4.6
			C66.9,73.3,48.6,65.9,48.6,65.9z"/>
		<path class="st0" d="M12.6,65.6h4.2v2h-4.2L12.6,65.6z"/>
		<path class="st0" d="M30.5,41.8l-2.1-3.6l1.7-1l2.1,3.6L30.5,41.8z"/>
		<path class="st0" d="M59.7,40.8l2.1-3.6l1.7,1l-2.1,3.6L59.7,40.8z"/>
		<path class="st0" d="M45,33.2h2v4.2h-2V33.2z"/>
		<path class="st0" d="M17.6,49l3.6,2.1l-1,1.7l-3.6-2.1L17.6,49z"/>
		<path class="st0" d="M17.5,84.1l-1-1.7l3.6-2.1l1,1.7L17.5,84.1z"/>
		<path class="st0" d="M106.1,73.2c0,0.4-0.3,0.7-0.7,0.7h-0.7c-0.4,0-0.7-0.3-0.7-0.7v-2.7c0-1.5-1.2-2.7-2.7-2.7s-2.7,1.2-2.7,2.7
			v2h1c0.6,0,1,0.5,1,1v6.1c0,0.6-0.5,1-1,1H89.5c-0.6,0-1-0.5-1-1v-6.1c0-0.6,0.5-1,1-1h7.1v-2c0-2.6,2.1-4.7,4.7-4.7
			s4.7,2.1,4.7,4.7v2.7H106.1z"/>
		<path class="st1" d="M14.7,36.4c0,0.6-0.5,1-1,1H3.2c-0.6,0-1-0.5-1-1v-6.3c0-0.6,0.5-1,1-1h0.3V27c0-2.7,2.2-4.9,4.9-4.9
			s4.9,2.2,4.9,4.9v2.1h0.3c0.6,0,1,0.5,1,1L14.7,36.4L14.7,36.4z M11.2,29.2v-2.1c0-1.5-1.2-2.8-2.8-2.8c-1.5,0-2.8,1.2-2.8,2.8
			v2.1C5.6,29.2,11.2,29.2,11.2,29.2z"/>
	</g>
</g>
<g id="g3413">
	<g id="g3401">
		<g id="g3396">
			<path id="rect3651_5_" class="st1" d="M79.1,7.9c-12.4-0.6-22.9,9-23.5,21.4s9,22.9,21.4,23.5c12.4,0.6,22.9-9,23.5-21.4
				C101.1,18.9,91.6,8.4,79.1,7.9z"/>
			<path id="rect4540_5_" class="st2" d="M79,12.1L79,12.1c-10-0.5-18.5,7.3-19,17.4l0,0c-0.5,10,7.3,18.5,17.4,19l0,0
				c10,0.5,18.5-7.3,19-17.4l0,0C96.8,21.1,89,12.6,79,12.1z"/>
		</g>
		<path id="path3399" class="st3" d="M63.5,16.2"/>
	</g>
	<g id="g3411">
		<g id="g3409">
			<path id="path3405" d="M71.8,39.1c-2.8,0-4.8-2-4.9-4.9h2.4c0.1,1.4,1.1,2.4,2.4,2.4c1.4,0,2.4-1.1,2.4-2.6c0-1.8-1-3.4-2.3-3.4
				h-1.2v-2.4h1c0.6,0,0.9-0.2,1.3-0.7c0.5-0.5,0.8-1.2,0.8-1.9c0-1.4-0.8-2.2-2-2.2c-1.1,0-1.8,0.7-1.9,1.8l-2.4-0.3
				c0.3-2.3,2-4,4.3-4c2.5,0,4.4,1.9,4.4,4.5c0,1.5-0.4,2.6-1.6,4c1.4,1.2,2,2.8,2,4.6C76.6,37,74.6,39.1,71.8,39.1L71.8,39.1z"/>
			<path id="path3407" d="M88.2,36.1c-0.9,2.1-2.1,3-4.1,3c-2.1,0-3.3-0.9-4.2-3c-0.7-1.7-1-3.4-1-6.1c0-2.6,0.3-4.4,1-6.1
				c0.9-2.1,2.1-2.9,4.2-2.9c2,0,3.2,0.9,4.1,3c0.7,1.7,1,3.4,1,6C89.2,32.8,88.9,34.5,88.2,36.1L88.2,36.1z M86.2,25.7
				c-0.4-1.5-1.1-2.2-2.1-2.2c-1.1,0-1.8,0.7-2.2,2.2c-0.4,1.3-0.5,2.5-0.5,4.4c0,1.9,0.2,3,0.5,4.4c0.4,1.5,1.1,2.2,2.2,2.2
				c1,0,1.7-0.7,2.1-2.2c0.4-1.4,0.5-2.4,0.5-4.4C86.8,28.1,86.6,27,86.2,25.7L86.2,25.7z"/>
		</g>
	</g>
</g>
</svg>
