<?xml version="1.0" encoding="utf-8"?>
<!-- Generator: Adobe Illustrator 25.0.1, SVG Export Plug-In . SVG Version: 6.00 Build 0)  -->
<svg version="1.1" id="Calque_1" xmlns="http://www.w3.org/2000/svg" xmlns:xlink="http://www.w3.org/1999/xlink" x="0px" y="0px"
	 viewBox="0 0 113.4 113.4" style="enable-background:new 0 0 113.4 113.4;" xml:space="preserve">
<style type="text/css">
	.st0{fill:#494C53;}
	.st1{fill:#F02429;}
</style>
<g id="Calque_1_1_">
</g>
<g id="Calque_2_1_">
</g>
<g id="Calque_3">
	<path class="st0" d="M75.7,80.6L73,79.3c2-4.1,2.9-8.6,2.8-13.2c-0.1-5.3-1.6-10.5-4.3-14.9l2.5-1.5c3,4.9,4.6,10.6,4.7,16.4
		C78.9,71.1,77.8,76,75.7,80.6z"/>
	<path class="st0" d="M69.7,48.3c-1.7-2.1-3.6-4-5.7-5.7l1.8-2.3c2.4,1.8,4.5,3.9,6.3,6.2L69.7,48.3z"/>
	<g>
		<path class="st0" d="M45.8,27.4C24.1,27.4,6.5,45,6.5,66.7c0,6.9,1.8,13.7,5.3,19.7c0.4,0.8,1.2,1.2,2,1.2c0.4,0,0.8-0.1,1.2-0.3
			c1.1-0.7,1.5-2.1,0.9-3.2c-3-5.2-4.6-11.2-4.6-17.3c0-19.1,15.5-34.6,34.6-34.6s34.6,15.5,34.6,34.6c0,6.1-1.6,12-4.6,17.2
			c-0.6,1.1-0.3,2.6,0.9,3.2c1.1,0.6,2.6,0.3,3.2-0.9c3.4-5.9,5.2-12.7,5.2-19.6C85.1,45,67.5,27.4,45.8,27.4z"/>
		<path class="st0" d="M46.8,63.9c-1.2-0.3-2.4,0.2-3,1.3c-0.2,0.4-0.3,0.9-0.3,1.4l-2.1,1.6c-0.1,0.1-0.2,0.1-0.2,0.2
			c-0.8,0.8-0.7,2.1,0.1,2.8c0.8,0.8,2.1,0.7,2.8-0.1l1.8-1.9c1,0.1,2.1-0.4,2.6-1.4c0.3-0.6,0.4-1.2,0.3-1.8l13.4-14.5L46.8,63.9z"
			/>
		<path class="st1" d="M48.6,65.9c-0.3-1.2-1.4-2-2.6-2c-0.5,0-1,0.1-1.4,0.4l-2.4-1c-0.1,0-0.2-0.1-0.3-0.1
			c-1.1-0.3-2.2,0.4-2.4,1.5c-0.3,1.1,0.4,2.2,1.5,2.4l2.6,0.6c0.4,1,1.4,1.6,2.5,1.6c0.6,0,1.2-0.2,1.7-0.6l19.1,4.6L48.6,65.9z"/>
		<rect x="12.6" y="65.6" class="st0" width="4.2" height="2"/>
		<rect x="29.3" y="37.4" transform="matrix(0.8659 -0.5002 0.5002 0.8659 -15.6817 20.4636)" class="st0" width="2" height="4.2"/>
		<rect x="59.5" y="38.5" transform="matrix(0.4999 -0.8661 0.8661 0.4999 -3.3747 73.104)" class="st0" width="4.2" height="2"/>
		<rect x="45" y="33.2" class="st0" width="2" height="4.2"/>
		<rect x="17.9" y="48.8" transform="matrix(0.4998 -0.8662 0.8662 0.4998 -34.6744 41.8317)" class="st0" width="2" height="4.2"/>
		<rect x="16.8" y="81.2" transform="matrix(0.8659 -0.5002 0.5002 0.8659 -38.5926 20.4718)" class="st0" width="4.2" height="2"/>
	</g>
	<g>
		<path class="st1" d="M106.1,73.2c0,0.4-0.3,0.7-0.7,0.7h-0.7c-0.4,0-0.7-0.3-0.7-0.7v-2.7c0-1.5-1.2-2.7-2.7-2.7s-2.7,1.2-2.7,2.7
			v2h1c0.6,0,1,0.5,1,1v6.1c0,0.6-0.5,1-1,1H89.5c-0.6,0-1-0.5-1-1v-6.1c0-0.6,0.5-1,1-1h7.1v-2c0-2.6,2.1-4.7,4.7-4.7
			s4.7,2.1,4.7,4.7V73.2z"/>
	</g>
	<g>
		<path class="st0" d="M100.8,48.8c0,0.6-0.5,1-1,1H89.3c-0.6,0-1-0.5-1-1v-6.2c0-0.6,0.5-1,1-1h0.3v-2.1c0-2.7,2.2-4.9,4.9-4.9
			s4.9,2.2,4.9,4.9v2.1h0.3c0.6,0,1,0.5,1,1V48.8z M97.3,41.6v-2.1c0-1.5-1.2-2.8-2.8-2.8c-1.5,0-2.8,1.2-2.8,2.8v2.1H97.3z"/>
	</g>
</g>
</svg>
