<?xml version="1.0" encoding="UTF-8" standalone="no"?>
<!-- Generator: Adobe Illustrator 19.1.0, SVG Export Plug-In . SVG Version: 6.00 Build 0)  -->

<svg
   xmlns:dc="http://purl.org/dc/elements/1.1/"
   xmlns:cc="http://creativecommons.org/ns#"
   xmlns:rdf="http://www.w3.org/1999/02/22-rdf-syntax-ns#"
   xmlns:svg="http://www.w3.org/2000/svg"
   xmlns="http://www.w3.org/2000/svg"
   xmlns:sodipodi="http://sodipodi.sourceforge.net/DTD/sodipodi-0.dtd"
   xmlns:inkscape="http://www.inkscape.org/namespaces/inkscape"
   version="1.1"
   x="0px"
   y="0px"
   viewBox="0 0 113.4 113.4"
   style="enable-background:new 0 0 113.4 113.4;"
   xml:space="preserve"
   id="svg41"
   sodipodi:docname="ori_vr_green.svg"
   inkscape:version="0.92.4 (5da689c313, 2019-01-14)"><metadata
   id="metadata47"><rdf:RDF><cc:Work
       rdf:about=""><dc:format>image/svg+xml</dc:format><dc:type
         rdf:resource="http://purl.org/dc/dcmitype/StillImage" /></cc:Work></rdf:RDF></metadata><defs
   id="defs45" /><sodipodi:namedview
   pagecolor="#ffffff"
   bordercolor="#666666"
   borderopacity="1"
   objecttolerance="10"
   gridtolerance="10"
   guidetolerance="10"
   inkscape:pageopacity="0"
   inkscape:pageshadow="2"
   inkscape:window-width="3440"
   inkscape:window-height="1369"
   id="namedview43"
   showgrid="false"
   inkscape:zoom="8.3245149"
   inkscape:cx="43.726566"
   inkscape:cy="51.653994"
   inkscape:window-x="3832"
   inkscape:window-y="457"
   inkscape:window-maximized="1"
   inkscape:current-layer="Calque_3" />
<style
   type="text/css"
   id="style2">
	.st0{fill:#494C53;}
	.st1{fill:none;stroke:#494C53;stroke-miterlimit:10;}
	.st2{fill:#f02429;}
	
		.st3{fill-rule:evenodd;clip-rule:evenodd;fill:none;stroke:#494C53;stroke-width:3.196;stroke-linecap:round;stroke-linejoin:round;stroke-miterlimit:10;}
	.st4{fill:none;stroke:#f02429;stroke-width:1.5109;stroke-linecap:round;stroke-miterlimit:10;}
	.st5{fill:#f02429;stroke:#f02429;stroke-miterlimit:10;}
	.st6{fill:none;stroke:#494C53;stroke-width:3;stroke-miterlimit:10;}
</style>
<g
   id="Calque_1">
</g>
<g
   id="Calque_2">
</g>
<g
   id="Calque_3">
	<g
   id="g14">
		<g
   id="g12">
			<path
   class="st2"
   d="M9.9,46.6c0,0,0.3-1.4,0.7-3.9c0.1-0.6,0.3-1.3,0.5-2c0.2-0.7,0.5-1.5,0.7-2.4c0.2-0.9,0.7-1.7,1-2.6     c0.2-0.5,0.4-0.9,0.6-1.4c0.2-0.5,0.4-1,0.7-1.5c0.5-1,1.1-2,1.6-3c0.6-1,1.3-2,2-3.1c0.7-1.1,1.6-2,2.4-3.1     c0.4-0.5,0.8-1.1,1.3-1.5c0.5-0.5,1-1,1.5-1.5c0.5-0.5,1-1,1.5-1.5c0.5-0.5,1.1-0.9,1.6-1.4c0.6-0.5,1.1-0.9,1.7-1.4     c0.6-0.4,1.2-0.8,1.8-1.3c0.6-0.4,1.2-0.8,1.8-1.2c0.6-0.4,1.3-0.7,1.9-1.1l2-1.1c0.7-0.4,1.4-0.6,2.1-0.9l2.1-0.9     c0.7-0.3,1.4-0.5,2.1-0.7c1.4-0.5,2.9-1,4.4-1.2c1.5-0.3,2.9-0.7,4.4-0.8c0.7-0.1,1.5-0.2,2.2-0.2l1.1-0.1l1.1,0     c1.4,0,2.9-0.1,4.3,0c1.4,0.1,2.8,0.3,4.1,0.4c0.2,0,0.3,0,0.5,0.1l0.5,0.1c0.3,0,0.6,0.1,0.9,0.1c0.7,0.1,1.3,0.2,1.9,0.4     c1.2,0.3,2.4,0.6,3.5,0.9c4.5,1.3,8.1,3.1,10.5,4.5c1.2,0.7,2.1,1.3,2.7,1.7c0.6,0.4,0.9,0.6,0.9,0.6l-5.9,7.7     c0,0-0.2-0.2-0.7-0.6c-0.5-0.4-1.2-0.9-2.1-1.6c-1.8-1.3-4.6-3.1-8.2-4.6c-0.9-0.4-1.9-0.7-2.9-1.1c-0.5-0.2-1-0.3-1.5-0.5     c-0.3-0.1-0.6-0.2-0.9-0.2l-0.4-0.1c0,0-0.2-0.1-0.4-0.1c-1.1-0.2-2.3-0.5-3.4-0.7c-1.2-0.2-2.4-0.3-3.6-0.4l-0.9-0.1l-0.9,0     c-0.6,0-1.3,0-1.9,0c-1.3-0.1-2.6,0.2-3.9,0.3c-1.3,0.1-2.6,0.4-3.9,0.7c-0.7,0.2-1.3,0.2-2,0.4l-1.9,0.6     c-0.6,0.2-1.3,0.4-1.9,0.6l-1.9,0.8c-0.6,0.3-1.3,0.5-1.9,0.8c-0.6,0.3-1.2,0.6-1.8,1c-0.6,0.3-1.2,0.6-1.8,1     c-0.6,0.4-1.1,0.7-1.7,1.1c-0.6,0.4-1.1,0.7-1.7,1.1c-0.5,0.4-1,0.8-1.5,1.2c-0.5,0.4-1,0.8-1.5,1.2c-0.5,0.4-0.9,0.9-1.4,1.3     c-0.9,0.9-1.8,1.7-2.5,2.7c-0.8,0.9-1.5,1.8-2.2,2.7c-0.6,0.9-1.3,1.9-1.8,2.7c-0.3,0.4-0.6,0.9-0.8,1.3     c-0.2,0.4-0.5,0.9-0.7,1.3c-0.4,0.9-1,1.6-1.3,2.4c-0.3,0.8-0.6,1.5-0.9,2.2c-0.3,0.7-0.6,1.3-0.7,1.9     C10.3,45.2,9.9,46.6,9.9,46.6z"
   id="path6"
   style="fill:#23c729;fill-opacity:1" />
			<g
   id="g10">
				<polygon
   class="st2"
   points="66.9,26.3 95.2,36.1 89.6,6.7     "
   id="polygon8"
   style="fill:#23c729;fill-opacity:1" />
			</g>
		</g>
	</g>
	<g
   id="g24">
		<g
   id="g22">
			<path
   class="st2"
   d="M98.5,63.8c0,0-0.3,1.4-0.7,3.9c-0.1,0.6-0.3,1.3-0.5,2c-0.2,0.7-0.5,1.5-0.7,2.4c-0.2,0.9-0.7,1.7-1,2.6     c-0.2,0.5-0.4,0.9-0.6,1.4c-0.2,0.5-0.4,1-0.7,1.5c-0.5,1-1.1,2-1.6,3c-0.6,1-1.3,2-2,3.1c-0.7,1.1-1.6,2-2.4,3.1     c-0.4,0.5-0.8,1.1-1.3,1.5c-0.5,0.5-1,1-1.5,1.5c-0.5,0.5-1,1-1.5,1.5c-0.5,0.5-1.1,0.9-1.6,1.4c-0.6,0.5-1.1,0.9-1.7,1.4     c-0.6,0.4-1.2,0.8-1.8,1.3c-0.6,0.4-1.2,0.8-1.8,1.2c-0.6,0.4-1.3,0.7-1.9,1.1l-2,1.1c-0.7,0.4-1.4,0.6-2.1,0.9l-2.1,0.9     c-0.7,0.3-1.4,0.5-2.1,0.7c-1.4,0.5-2.9,1-4.4,1.2c-1.5,0.3-2.9,0.7-4.4,0.8c-0.7,0.1-1.5,0.2-2.2,0.2l-1.1,0.1l-1.1,0     c-1.4,0-2.9,0.1-4.3,0c-1.4-0.1-2.8-0.3-4.1-0.4c-0.2,0-0.3,0-0.5-0.1l-0.5-0.1c-0.3,0-0.6-0.1-0.9-0.1c-0.7-0.1-1.3-0.2-1.9-0.4     c-1.2-0.3-2.4-0.6-3.5-0.9c-4.5-1.3-8.1-3.1-10.5-4.5c-1.2-0.7-2.1-1.3-2.7-1.7c-0.6-0.4-0.9-0.6-0.9-0.6l5.9-7.7     c0,0,0.2,0.2,0.7,0.6c0.5,0.4,1.2,0.9,2.1,1.6c1.8,1.3,4.6,3.1,8.2,4.6c0.9,0.4,1.9,0.7,2.9,1.1c0.5,0.2,1,0.3,1.5,0.5     c0.3,0.1,0.6,0.2,0.9,0.2l0.4,0.1c0,0,0.2,0.1,0.4,0.1c1.1,0.2,2.3,0.5,3.4,0.7c1.2,0.2,2.4,0.3,3.6,0.4l0.9,0.1l0.9,0     c0.6,0,1.3,0,1.9,0c1.3,0.1,2.6-0.2,3.9-0.3c1.3-0.1,2.6-0.4,3.9-0.7c0.7-0.2,1.3-0.2,2-0.4l1.9-0.6c0.6-0.2,1.3-0.4,1.9-0.6     l1.9-0.8c0.6-0.3,1.3-0.5,1.9-0.8c0.6-0.3,1.2-0.6,1.8-1c0.6-0.3,1.2-0.6,1.8-1c0.6-0.4,1.1-0.7,1.7-1.1c0.6-0.4,1.1-0.7,1.7-1.1     c0.5-0.4,1-0.8,1.5-1.2c0.5-0.4,1-0.8,1.5-1.2c0.5-0.4,0.9-0.9,1.4-1.3c0.9-0.9,1.8-1.7,2.5-2.7c0.8-0.9,1.5-1.8,2.2-2.7     c0.6-0.9,1.3-1.9,1.8-2.7c0.3-0.4,0.6-0.9,0.8-1.3c0.2-0.4,0.5-0.9,0.7-1.3c0.4-0.9,1-1.6,1.3-2.4c0.3-0.8,0.6-1.5,0.9-2.2     c0.3-0.7,0.6-1.3,0.7-1.9C98.1,65.2,98.5,63.8,98.5,63.8z"
   id="path16"
   style="fill:#23c729;fill-opacity:1" />
			<g
   id="g20">
				<polygon
   class="st2"
   points="41.5,84.1 13.2,74.3 18.9,103.6     "
   id="polygon18"
   style="fill:#23c729;fill-opacity:1" />
			</g>
		</g>
	</g>
	<path
   class="st6"
   d="M2,74.6c0,0,3.1-4.3,8-4.3c4.8,0,93.4,0,95.2,0c4.5,0,7.1,2,7.1,2"
   id="path26" />
	<path
   class="st0"
   d="M59.2,95.9c0,0-1.3,0.3-2.8,0.3c-1.5,0-2.8-0.3-2.8-0.3l-2.1-25.7h9.8L59.2,95.9z"
   id="path28" />
	<g
   id="g38">
		<path
   class="st0"
   d="M26.7,53.3c-4.2,0-7.6,3.4-7.6,7.6c0,4.2,3.4,7.6,7.6,7.6c4.2,0,7.6-3.4,7.6-7.6    C34.3,56.8,30.9,53.3,26.7,53.3z M26.7,66.1c-2.8,0-5.2-2.3-5.2-5.2c0-2.8,2.3-5.2,5.2-5.2c2.8,0,5.2,2.3,5.2,5.2    C31.8,63.8,29.5,66.1,26.7,66.1z"
   id="path30" />
		<path
   class="st0"
   d="M84,53.3c-4.2,0-7.6,3.4-7.6,7.6c0,4.2,3.4,7.6,7.6,7.6c4.2,0,7.6-3.4,7.6-7.6C91.7,56.8,88.2,53.3,84,53.3z     M84,66.1c-2.9,0-5.2-2.3-5.2-5.2c0-2.8,2.3-5.2,5.2-5.2c2.8,0,5.2,2.3,5.2,5.2C89.2,63.8,86.9,66.1,84,66.1z"
   id="path32" />
		<path
   class="st0"
   d="M64.3,51.4c-0.5,0-0.8,0-1.1,0.1l-0.7,3.6h1.1c1.5,0,2.6-0.9,2.6-2.1C66.2,51.9,65.4,51.4,64.3,51.4z"
   id="path34" />
		<path
   class="st0"
   d="M102,53.5c-0.6-0.6-0.7-0.7-0.6-2.4c0.1-3.5,0.9-5.4-2.6-5.9c-1.9-0.3-3.9-0.6-5.9-0.7    c-6.3-2.7-11.5-5.9-15.5-7.2c-5-1.5-9.9-1.7-15.1-1.5c-3.8,0.1-7.5,0.5-11.1,1.4c-6.3,1.6-11.8,5.5-16.9,8.6    c-7.1,0-14.1,1.6-20.9,3.7c-6,2.5-2.5,6.4-1.5,11c0.4,1.9,0.5,2.8,2.7,3.3c0.6,0.1,1.7,0.2,2.3,0.2c-0.3-1-0.5-2-0.5-3.1    c0-2.8,1.1-5.3,3-7.2c1.8-1.8,4.4-3,7.2-3c5.6,0,10.2,4.6,10.2,10.2c0,1.7-0.4,3.3-1.2,4.7l0.9,0.1l38.5,0    c-0.8-1.4-1.2-3.1-1.2-4.8c0-5.6,4.6-10.2,10.2-10.2c2.8,0,5.3,1.1,7.2,3c1.8,1.8,3,4.4,3,7.2c0,1.3-0.2,2.5-0.7,3.7    c0.2,0,0.4-0.1,0.7-0.1c1.8-0.4,3.5-0.9,5.3-1.4c2-0.5,3.4-2.6,3.4-5.9C102.9,55.5,102.7,53.9,102,53.5z M42.8,43.8    c4.2-2.6,8.9-6.4,18.2-6.5c-1,2.5-1.7,6.3-2.2,8.8c-4.9,0-9.8-0.1-14.7,0C44.2,45.2,44.4,44.3,42.8,43.8z M50.9,62.2h-3.2    l-1.6-12.8h2.8l0.6,6.1c0.1,1.4,0.2,2.6,0.3,3.9h0c0.5-1.3,1.1-2.6,1.7-4l2.9-6.1h3.1L50.9,62.2z M66.2,56.1L66.2,56.1    c0.8,0.4,1.1,1.2,1.2,2.4c0.2,1.4,0.3,3.1,0.5,3.6h-2.8c-0.1-0.3-0.2-1.4-0.4-3c-0.1-1.6-0.7-2-1.7-2h-0.8l-1,5.1h-2.7l2.4-12.6    c0.9-0.2,2.1-0.3,3.4-0.3c1.2,0,2.5,0.2,3.4,0.7c0.8,0.5,1.4,1.3,1.4,2.5C69.1,54.4,67.8,55.6,66.2,56.1z M62.4,46.1    c0.1-2.4,0.4-6.2,0.8-8.9c4-0.2,18.3,1.5,18.3,8.9H62.4z"
   id="path36" />
	</g>
</g>
</svg>